<?xml version="1.0" encoding="UTF-8" standalone="no"?>
<!DOCTYPE svg PUBLIC "-//W3C//DTD SVG 1.1//EN"
 "http://www.w3.org/Graphics/SVG/1.1/DTD/svg11.dtd">
<!-- Generated by graphviz version 2.38.0 (20140413.2041)
 -->
<!-- Title: alphabetaia.h Pages: 1 -->
<svg width="82pt" height="252pt"
 viewBox="0.00 0.00 82.00 252.00" xmlns="http://www.w3.org/2000/svg" xmlns:xlink="http://www.w3.org/1999/xlink">
<g id="graph0" class="graph" transform="scale(1 1) rotate(0) translate(4 248)">
<title>alphabetaia.h</title>
<polygon fill="white" stroke="none" points="-4,4 -4,-248 78,-248 78,4 -4,4"/>
<!-- Node1 -->
<g id="node1" class="node"><title>Node1</title>
<polygon fill="#bfbfbf" stroke="black" points="0,-224.5 0,-243.5 74,-243.5 74,-224.5 0,-224.5"/>
<text text-anchor="middle" x="37" y="-231.5" font-family="Helvetica,sans-Serif" font-size="10.00">alphabetaia.h</text>
</g>
<!-- Node2 -->
<g id="node2" class="node"><title>Node2</title>
<g id="a_node2"><a xlink:href="negamaxia_8h_source.html" target="_top" xlink:title="negamaxia.h">
<polygon fill="white" stroke="black" points="1,-168.5 1,-187.5 73,-187.5 73,-168.5 1,-168.5"/>
<text text-anchor="middle" x="37" y="-175.5" font-family="Helvetica,sans-Serif" font-size="10.00">negamaxia.h</text>
</a>
</g>
</g>
<!-- Node1&#45;&gt;Node2 -->
<g id="edge1" class="edge"><title>Node1&#45;&gt;Node2</title>
<path fill="none" stroke="midnightblue" d="M37,-213.805C37,-204.91 37,-194.78 37,-187.751"/>
<polygon fill="midnightblue" stroke="midnightblue" points="33.5001,-214.083 37,-224.083 40.5001,-214.083 33.5001,-214.083"/>
</g>
<!-- Node3 -->
<g id="node3" class="node"><title>Node3</title>
<g id="a_node3"><a xlink:href="memia_8h_source.html" target="_top" xlink:title="memia.h">
<polygon fill="white" stroke="black" points="10,-112.5 10,-131.5 64,-131.5 64,-112.5 10,-112.5"/>
<text text-anchor="middle" x="37" y="-119.5" font-family="Helvetica,sans-Serif" font-size="10.00">memia.h</text>
</a>
</g>
</g>
<!-- Node2&#45;&gt;Node3 -->
<g id="edge2" class="edge"><title>Node2&#45;&gt;Node3</title>
<path fill="none" stroke="midnightblue" d="M37,-157.805C37,-148.91 37,-138.78 37,-131.751"/>
<polygon fill="midnightblue" stroke="midnightblue" points="33.5001,-158.083 37,-168.083 40.5001,-158.083 33.5001,-158.083"/>
</g>
<!-- Node4 -->
<g id="node4" class="node"><title>Node4</title>
<g id="a_node4"><a xlink:href="menu_8h_source.html" target="_top" xlink:title="menu.h">
<polygon fill="white" stroke="black" points="12.5,-56.5 12.5,-75.5 61.5,-75.5 61.5,-56.5 12.5,-56.5"/>
<text text-anchor="middle" x="37" y="-63.5" font-family="Helvetica,sans-Serif" font-size="10.00">menu.h</text>
</a>
</g>
</g>
<!-- Node3&#45;&gt;Node4 -->
<g id="edge3" class="edge"><title>Node3&#45;&gt;Node4</title>
<path fill="none" stroke="midnightblue" d="M37,-101.805C37,-92.9102 37,-82.7798 37,-75.7511"/>
<polygon fill="midnightblue" stroke="midnightblue" points="33.5001,-102.083 37,-112.083 40.5001,-102.083 33.5001,-102.083"/>
</g>
<!-- Node5 -->
<g id="node5" class="node"><title>Node5</title>
<g id="a_node5"><a xlink:href="main_8cpp.html" target="_top" xlink:title="main.cpp">
<polygon fill="white" stroke="black" points="9,-0.5 9,-19.5 65,-19.5 65,-0.5 9,-0.5"/>
<text text-anchor="middle" x="37" y="-7.5" font-family="Helvetica,sans-Serif" font-size="10.00">main.cpp</text>
</a>
</g>
</g>
<!-- Node4&#45;&gt;Node5 -->
<g id="edge4" class="edge"><title>Node4&#45;&gt;Node5</title>
<path fill="none" stroke="midnightblue" d="M37,-45.8045C37,-36.9102 37,-26.7798 37,-19.7511"/>
<polygon fill="midnightblue" stroke="midnightblue" points="33.5001,-46.083 37,-56.083 40.5001,-46.083 33.5001,-46.083"/>
</g>
</g>
</svg>
