<?xml version="1.0" encoding="UTF-8" standalone="no"?>
<!DOCTYPE svg PUBLIC "-//W3C//DTD SVG 1.1//EN"
 "http://www.w3.org/Graphics/SVG/1.1/DTD/svg11.dtd">
<!-- Generated by graphviz version 2.38.0 (20140413.2041)
 -->
<!-- Title: alphabetaia.h Pages: 1 -->
<!--zoomable 308 -->
<svg id="main" version="1.1" xmlns="http://www.w3.org/2000/svg" xmlns:xlink="http://www.w3.org/1999/xlink" xml:space="preserve" onload="init(evt)">
<style type="text/css"><![CDATA[
.edge:hover path { stroke: red; }
.edge:hover polygon { stroke: red; fill: red; }
]]></style>
<script type="text/javascript"><![CDATA[
var edges = document.getElementsByTagName('g');
if (edges && edges.length) {
  for (var i=0;i<edges.length;i++) {
    if (edges[i].id.substr(0,4)=='edge') {
      edges[i].setAttribute('class','edge');
    }
  }
}
]]></script>
        <defs>
                <circle id="rim" cx="0" cy="0" r="7"/>
                <circle id="rim2" cx="0" cy="0" r="3.5"/>
                <g id="zoomPlus">
                        <use xlink:href="#rim" fill="#404040">
                                <set attributeName="fill" to="#808080" begin="zoomplus.mouseover" end="zoomplus.mouseout"/>
                        </use>
                        <path d="M-4,0h8M0,-4v8" fill="none" stroke="white" stroke-width="1.5" pointer-events="none"/>
                </g>
                <g id="zoomMin">
                        <use xlink:href="#rim" fill="#404040">
                                <set attributeName="fill" to="#808080" begin="zoomminus.mouseover" end="zoomminus.mouseout"/>
                        </use>
                        <path d="M-4,0h8" fill="none" stroke="white" stroke-width="1.5" pointer-events="none"/>
                </g>
                <g id="dirArrow">
                        <path fill="none" stroke="white" stroke-width="1.5" d="M0,-3.0v7 M-2.5,-0.5L0,-3.0L2.5,-0.5"/>
                </g>
               <g id="resetDef">
                       <use xlink:href="#rim2" fill="#404040">
                               <set attributeName="fill" to="#808080" begin="reset.mouseover" end="reset.mouseout"/>
                       </use>
               </g>
        </defs>

<script type="text/javascript">
var viewWidth = 532;
var viewHeight = 308;
var sectionId = 'dynsection-0';
</script>
<script xlink:href="svgpan.js"/>
<svg id="graph" class="graph">
<g id="viewport">
<title>alphabetaia.h</title>
<polygon fill="white" stroke="none" points="-4,4 -4,-304 527.5,-304 527.5,4 -4,4"/>
<!-- Node1 -->
<g id="node1" class="node"><title>Node1</title>
<polygon fill="#bfbfbf" stroke="black" points="411,-280.5 411,-299.5 485,-299.5 485,-280.5 411,-280.5"/>
<text text-anchor="middle" x="448" y="-287.5" font-family="Helvetica,sans-Serif" font-size="10.00">alphabetaia.h</text>
</g>
<!-- Node2 -->
<g id="node2" class="node"><title>Node2</title>
<polygon fill="white" stroke="#bfbfbf" points="482.5,-112.5 482.5,-131.5 523.5,-131.5 523.5,-112.5 482.5,-112.5"/>
<text text-anchor="middle" x="503" y="-119.5" font-family="Helvetica,sans-Serif" font-size="10.00">string</text>
</g>
<!-- Node1&#45;&gt;Node2 -->
<g id="edge1" class="edge"><title>Node1&#45;&gt;Node2</title>
<path fill="none" stroke="midnightblue" d="M452.147,-280.271C460.218,-262.997 478.19,-223.086 489,-188 493.732,-172.642 497.458,-154.764 499.872,-141.65"/>
<polygon fill="midnightblue" stroke="midnightblue" points="503.366,-141.989 501.649,-131.535 496.472,-140.778 503.366,-141.989"/>
</g>
<!-- Node3 -->
<g id="node3" class="node"><title>Node3</title>
<g id="a_node3"><a xlink:href="minmaxia_8h_source.html" target="_top" xlink:title="minmaxia.h">
<polygon fill="white" stroke="black" points="333.5,-224.5 333.5,-243.5 400.5,-243.5 400.5,-224.5 333.5,-224.5"/>
<text text-anchor="middle" x="367" y="-231.5" font-family="Helvetica,sans-Serif" font-size="10.00">minmaxia.h</text>
</a>
</g>
</g>
<!-- Node1&#45;&gt;Node3 -->
<g id="edge2" class="edge"><title>Node1&#45;&gt;Node3</title>
<path fill="none" stroke="midnightblue" d="M434.986,-280.324C422.468,-271.979 403.318,-259.212 388.529,-249.352"/>
<polygon fill="midnightblue" stroke="midnightblue" points="390.244,-246.289 379.982,-243.655 386.361,-252.114 390.244,-246.289"/>
</g>
<!-- Node3&#45;&gt;Node2 -->
<g id="edge4" class="edge"><title>Node3&#45;&gt;Node2</title>
<path fill="none" stroke="midnightblue" d="M399.685,-224.465C421.151,-217.518 448.721,-205.888 468,-188 481.776,-175.218 491.253,-155.755 496.837,-141.457"/>
<polygon fill="midnightblue" stroke="midnightblue" points="500.246,-142.32 500.354,-131.726 493.663,-139.941 500.246,-142.32"/>
</g>
<!-- Node4 -->
<g id="node4" class="node"><title>Node4</title>
<polygon fill="white" stroke="#bfbfbf" points="0,-56.5 0,-75.5 52,-75.5 52,-56.5 0,-56.5"/>
<text text-anchor="middle" x="26" y="-63.5" font-family="Helvetica,sans-Serif" font-size="10.00">memory</text>
</g>
<!-- Node3&#45;&gt;Node4 -->
<g id="edge3" class="edge"><title>Node3&#45;&gt;Node4</title>
<path fill="none" stroke="midnightblue" d="M333.48,-228.058C255.599,-215.825 66.2274,-181.496 29,-132 19.1413,-118.892 19.5002,-99.7453 21.658,-85.6254"/>
<polygon fill="midnightblue" stroke="midnightblue" points="25.1361,-86.0754 23.6135,-75.5906 18.2653,-84.7365 25.1361,-86.0754"/>
</g>
<!-- Node5 -->
<g id="node5" class="node"><title>Node5</title>
<g id="a_node5"><a xlink:href="noeud_8h_source.html" target="_top" xlink:title="noeud.h">
<polygon fill="white" stroke="black" points="54.5,-112.5 54.5,-131.5 105.5,-131.5 105.5,-112.5 54.5,-112.5"/>
<text text-anchor="middle" x="80" y="-119.5" font-family="Helvetica,sans-Serif" font-size="10.00">noeud.h</text>
</a>
</g>
</g>
<!-- Node3&#45;&gt;Node5 -->
<g id="edge5" class="edge"><title>Node3&#45;&gt;Node5</title>
<path fill="none" stroke="midnightblue" d="M344.48,-224.368C293.763,-204.93 170.469,-157.674 111.904,-135.228"/>
<polygon fill="midnightblue" stroke="midnightblue" points="113.006,-131.902 102.416,-131.591 110.501,-138.439 113.006,-131.902"/>
</g>
<!-- Node8 -->
<g id="node8" class="node"><title>Node8</title>
<g id="a_node8"><a xlink:href="etat_8h.html" target="_top" xlink:title="etat.h">
<polygon fill="white" stroke="black" points="346.5,-112.5 346.5,-131.5 387.5,-131.5 387.5,-112.5 346.5,-112.5"/>
<text text-anchor="middle" x="367" y="-119.5" font-family="Helvetica,sans-Serif" font-size="10.00">etat.h</text>
</a>
</g>
</g>
<!-- Node3&#45;&gt;Node8 -->
<g id="edge9" class="edge"><title>Node3&#45;&gt;Node8</title>
<path fill="none" stroke="midnightblue" d="M367,-224.368C367,-206.617 367,-165.666 367,-141.597"/>
<polygon fill="midnightblue" stroke="midnightblue" points="370.5,-141.591 367,-131.591 363.5,-141.591 370.5,-141.591"/>
</g>
<!-- Node10 -->
<g id="node10" class="node"><title>Node10</title>
<g id="a_node10"><a xlink:href="pion_8h_source.html" target="_top" xlink:title="pion.h">
<polygon fill="white" stroke="black" points="394.5,-56.5 394.5,-75.5 437.5,-75.5 437.5,-56.5 394.5,-56.5"/>
<text text-anchor="middle" x="416" y="-63.5" font-family="Helvetica,sans-Serif" font-size="10.00">pion.h</text>
</a>
</g>
</g>
<!-- Node3&#45;&gt;Node10 -->
<g id="edge26" class="edge"><title>Node3&#45;&gt;Node10</title>
<path fill="none" stroke="midnightblue" d="M372.912,-224.321C384.004,-207.449 407.577,-168.659 416,-132 419.518,-116.689 419.21,-98.8072 418.196,-85.6793"/>
<polygon fill="midnightblue" stroke="midnightblue" points="421.662,-85.161 417.203,-75.5505 414.696,-85.8445 421.662,-85.161"/>
</g>
<!-- Node12 -->
<g id="node12" class="node"><title>Node12</title>
<g id="a_node12"><a xlink:href="ia_8h_source.html" target="_top" xlink:title="ia.h">
<polygon fill="white" stroke="black" points="275,-168.5 275,-187.5 307,-187.5 307,-168.5 275,-168.5"/>
<text text-anchor="middle" x="291" y="-175.5" font-family="Helvetica,sans-Serif" font-size="10.00">ia.h</text>
</a>
</g>
</g>
<!-- Node3&#45;&gt;Node12 -->
<g id="edge15" class="edge"><title>Node3&#45;&gt;Node12</title>
<path fill="none" stroke="midnightblue" d="M354.789,-224.324C343.224,-216.107 325.625,-203.602 311.839,-193.807"/>
<polygon fill="midnightblue" stroke="midnightblue" points="313.612,-190.773 303.433,-187.834 309.557,-196.479 313.612,-190.773"/>
</g>
<!-- Node5&#45;&gt;Node4 -->
<g id="edge7" class="edge"><title>Node5&#45;&gt;Node4</title>
<path fill="none" stroke="midnightblue" d="M71.083,-112.083C63.2195,-104.22 51.5688,-92.5688 42.0813,-83.0813"/>
<polygon fill="midnightblue" stroke="midnightblue" points="44.2971,-80.3473 34.7511,-75.7511 39.3473,-85.2971 44.2971,-80.3473"/>
</g>
<!-- Node6 -->
<g id="node6" class="node"><title>Node6</title>
<polygon fill="white" stroke="#bfbfbf" points="108.5,-56.5 108.5,-75.5 167.5,-75.5 167.5,-56.5 108.5,-56.5"/>
<text text-anchor="middle" x="138" y="-63.5" font-family="Helvetica,sans-Serif" font-size="10.00">functional</text>
</g>
<!-- Node5&#45;&gt;Node6 -->
<g id="edge6" class="edge"><title>Node5&#45;&gt;Node6</title>
<path fill="none" stroke="midnightblue" d="M89.3187,-112.324C97.8926,-104.341 110.812,-92.3128 121.188,-82.6529"/>
<polygon fill="midnightblue" stroke="midnightblue" points="123.578,-85.2098 128.512,-75.8339 118.808,-80.0865 123.578,-85.2098"/>
</g>
<!-- Node7 -->
<g id="node7" class="node"><title>Node7</title>
<polygon fill="white" stroke="#bfbfbf" points="288,-0.5 288,-19.5 332,-19.5 332,-0.5 288,-0.5"/>
<text text-anchor="middle" x="310" y="-7.5" font-family="Helvetica,sans-Serif" font-size="10.00">vector</text>
</g>
<!-- Node5&#45;&gt;Node7 -->
<g id="edge8" class="edge"><title>Node5&#45;&gt;Node7</title>
<path fill="none" stroke="midnightblue" d="M79.8901,-112.415C80.2056,-98.4496 82.9737,-70.8783 99,-56 124.617,-32.2183 225.036,-19.1943 277.569,-13.8827"/>
<polygon fill="midnightblue" stroke="midnightblue" points="278.092,-17.3484 287.705,-12.8937 277.412,-10.3814 278.092,-17.3484"/>
</g>
<!-- Node8&#45;&gt;Node7 -->
<g id="edge11" class="edge"><title>Node8&#45;&gt;Node7</title>
<path fill="none" stroke="midnightblue" d="M365.221,-112.185C362.387,-99.2964 356.114,-74.7981 346,-56 340.441,-45.6683 332.421,-35.3596 325.361,-27.2207"/>
<polygon fill="midnightblue" stroke="midnightblue" points="327.794,-24.6922 318.495,-19.6147 322.598,-29.3828 327.794,-24.6922"/>
</g>
<!-- Node9 -->
<g id="node9" class="node"><title>Node9</title>
<polygon fill="white" stroke="#bfbfbf" points="302.5,-56.5 302.5,-75.5 337.5,-75.5 337.5,-56.5 302.5,-56.5"/>
<text text-anchor="middle" x="320" y="-63.5" font-family="Helvetica,sans-Serif" font-size="10.00">map</text>
</g>
<!-- Node8&#45;&gt;Node9 -->
<g id="edge10" class="edge"><title>Node8&#45;&gt;Node9</title>
<path fill="none" stroke="midnightblue" d="M359.239,-112.083C352.463,-104.298 342.457,-92.8015 334.245,-83.3665"/>
<polygon fill="midnightblue" stroke="midnightblue" points="336.822,-80.9963 327.617,-75.7511 331.542,-85.592 336.822,-80.9963"/>
</g>
<!-- Node8&#45;&gt;Node10 -->
<g id="edge12" class="edge"><title>Node8&#45;&gt;Node10</title>
<path fill="none" stroke="midnightblue" d="M375.091,-112.083C382.155,-104.298 392.588,-92.8015 401.149,-83.3665"/>
<polygon fill="midnightblue" stroke="midnightblue" points="403.931,-85.5087 408.059,-75.7511 398.747,-80.8047 403.931,-85.5087"/>
</g>
<!-- Node10&#45;&gt;Node7 -->
<g id="edge14" class="edge"><title>Node10&#45;&gt;Node7</title>
<path fill="none" stroke="midnightblue" d="M398.969,-56.324C381.97,-47.6641 355.624,-34.2424 336.007,-24.249"/>
<polygon fill="midnightblue" stroke="midnightblue" points="337.488,-21.0752 326.988,-19.6545 334.31,-27.3125 337.488,-21.0752"/>
</g>
<!-- Node11 -->
<g id="node11" class="node"><title>Node11</title>
<polygon fill="white" stroke="#bfbfbf" points="391.5,-0.5 391.5,-19.5 440.5,-19.5 440.5,-0.5 391.5,-0.5"/>
<text text-anchor="middle" x="416" y="-7.5" font-family="Helvetica,sans-Serif" font-size="10.00">istream</text>
</g>
<!-- Node10&#45;&gt;Node11 -->
<g id="edge13" class="edge"><title>Node10&#45;&gt;Node11</title>
<path fill="none" stroke="midnightblue" d="M416,-56.083C416,-49.0059 416,-38.8611 416,-29.9865"/>
<polygon fill="midnightblue" stroke="midnightblue" points="419.5,-29.751 416,-19.7511 412.5,-29.7511 419.5,-29.751"/>
</g>
<!-- Node12&#45;&gt;Node2 -->
<g id="edge20" class="edge"><title>Node12&#45;&gt;Node2</title>
<path fill="none" stroke="midnightblue" d="M307.283,-172.852C342.634,-163.848 426.885,-142.388 472.466,-130.778"/>
<polygon fill="midnightblue" stroke="midnightblue" points="473.545,-134.114 482.372,-128.254 471.817,-127.331 473.545,-134.114"/>
</g>
<!-- Node12&#45;&gt;Node4 -->
<g id="edge16" class="edge"><title>Node12&#45;&gt;Node4</title>
<path fill="none" stroke="midnightblue" d="M274.726,-176.2C225.455,-173.454 79.1816,-162.816 45,-132 32.0573,-120.332 27.7326,-100.386 26.3852,-85.6586"/>
<polygon fill="midnightblue" stroke="midnightblue" points="29.8782,-85.4333 25.8418,-75.6376 22.8885,-85.8125 29.8782,-85.4333"/>
</g>
<!-- Node12&#45;&gt;Node5 -->
<g id="edge22" class="edge"><title>Node12&#45;&gt;Node5</title>
<path fill="none" stroke="midnightblue" d="M274.982,-172.912C245.564,-165.403 180.713,-148.843 115.633,-132.16"/>
<polygon fill="midnightblue" stroke="midnightblue" points="116.169,-128.684 105.613,-129.591 114.431,-135.465 116.169,-128.684"/>
</g>
<!-- Node12&#45;&gt;Node7 -->
<g id="edge18" class="edge"><title>Node12&#45;&gt;Node7</title>
<path fill="none" stroke="midnightblue" d="M289.983,-168.356C287.873,-148.316 283.939,-97.2461 293,-56 295.016,-46.8235 298.543,-37.0219 301.864,-28.9168"/>
<polygon fill="midnightblue" stroke="midnightblue" points="305.079,-30.3005 305.831,-19.7324 298.653,-27.525 305.079,-30.3005"/>
</g>
<!-- Node12&#45;&gt;Node8 -->
<g id="edge21" class="edge"><title>Node12&#45;&gt;Node8</title>
<path fill="none" stroke="midnightblue" d="M303.211,-168.324C314.776,-160.107 332.375,-147.602 346.161,-137.807"/>
<polygon fill="midnightblue" stroke="midnightblue" points="348.443,-140.479 354.567,-131.834 344.388,-134.773 348.443,-140.479"/>
</g>
<!-- Node12&#45;&gt;Node10 -->
<g id="edge23" class="edge"><title>Node12&#45;&gt;Node10</title>
<path fill="none" stroke="midnightblue" d="M307.342,-174.401C330.388,-169.883 372.268,-158.402 396,-132 407.46,-119.251 412.354,-100.056 414.444,-85.8272"/>
<polygon fill="midnightblue" stroke="midnightblue" points="417.943,-86.0289 415.59,-75.6986 410.987,-85.2414 417.943,-86.0289"/>
</g>
<!-- Node13 -->
<g id="node13" class="node"><title>Node13</title>
<polygon fill="white" stroke="#bfbfbf" points="298,-112.5 298,-131.5 328,-131.5 328,-112.5 298,-112.5"/>
<text text-anchor="middle" x="313" y="-119.5" font-family="Helvetica,sans-Serif" font-size="10.00">set</text>
</g>
<!-- Node12&#45;&gt;Node13 -->
<g id="edge17" class="edge"><title>Node12&#45;&gt;Node13</title>
<path fill="none" stroke="midnightblue" d="M294.633,-168.083C297.612,-160.77 301.926,-150.181 305.625,-141.103"/>
<polygon fill="midnightblue" stroke="midnightblue" points="308.903,-142.333 309.435,-131.751 302.42,-139.691 308.903,-142.333"/>
</g>
<!-- Node14 -->
<g id="node14" class="node"><title>Node14</title>
<polygon fill="white" stroke="#bfbfbf" points="124,-112.5 124,-131.5 164,-131.5 164,-112.5 124,-112.5"/>
<text text-anchor="middle" x="144" y="-119.5" font-family="Helvetica,sans-Serif" font-size="10.00">utility</text>
</g>
<!-- Node12&#45;&gt;Node14 -->
<g id="edge19" class="edge"><title>Node12&#45;&gt;Node14</title>
<path fill="none" stroke="midnightblue" d="M274.989,-171.118C250.787,-162.228 204.477,-145.216 173.912,-133.988"/>
<polygon fill="midnightblue" stroke="midnightblue" points="174.798,-130.585 164.205,-130.422 172.385,-137.156 174.798,-130.585"/>
</g>
<!-- Node15 -->
<g id="node15" class="node"><title>Node15</title>
<g id="a_node15"><a xlink:href="console_8h_source.html" target="_top" xlink:title="console.h">
<polygon fill="white" stroke="black" points="182.5,-112.5 182.5,-131.5 241.5,-131.5 241.5,-112.5 182.5,-112.5"/>
<text text-anchor="middle" x="212" y="-119.5" font-family="Helvetica,sans-Serif" font-size="10.00">console.h</text>
</a>
</g>
</g>
<!-- Node12&#45;&gt;Node15 -->
<g id="edge24" class="edge"><title>Node12&#45;&gt;Node15</title>
<path fill="none" stroke="midnightblue" d="M278.307,-168.324C266.099,-159.979 247.422,-147.212 232.997,-137.352"/>
<polygon fill="midnightblue" stroke="midnightblue" points="234.892,-134.408 224.661,-131.655 230.942,-140.187 234.892,-134.408"/>
</g>
<!-- Node16 -->
<g id="node16" class="node"><title>Node16</title>
<polygon fill="white" stroke="#bfbfbf" points="186,-56.5 186,-75.5 240,-75.5 240,-56.5 186,-56.5"/>
<text text-anchor="middle" x="213" y="-63.5" font-family="Helvetica,sans-Serif" font-size="10.00">iostream</text>
</g>
<!-- Node15&#45;&gt;Node16 -->
<g id="edge25" class="edge"><title>Node15&#45;&gt;Node16</title>
<path fill="none" stroke="midnightblue" d="M212.165,-112.083C212.296,-105.006 212.484,-94.8611 212.648,-85.9865"/>
<polygon fill="midnightblue" stroke="midnightblue" points="216.152,-85.8142 212.838,-75.7511 209.153,-85.6845 216.152,-85.8142"/>
</g>
</g>
</svg>
        <g id="navigator" transform="translate(0 0)" fill="#404254">
                <rect fill="#f2f5e9" fill-opacity="0.5" stroke="#606060" stroke-width=".5" x="0" y="0" width="60" height="60"/>
                <use id="zoomplus" xlink:href="#zoomPlus" x="17" y="9" onmousedown="handleZoom(evt,'in')"/>
                <use id="zoomminus" xlink:href="#zoomMin" x="42" y="9" onmousedown="handleZoom(evt,'out')"/>
                <use id="reset" xlink:href="#resetDef" x="30" y="36" onmousedown="handleReset()"/>
                <g id="arrowUp" xlink:href="#dirArrow" transform="translate(30 24)" onmousedown="handlePan(0,-1)">
                  <use xlink:href="#rim" fill="#404040">
                        <set attributeName="fill" to="#808080" begin="arrowUp.mouseover" end="arrowUp.mouseout"/>
                  </use>
                  <path fill="none" stroke="white" stroke-width="1.5" d="M0,-3.0v7 M-2.5,-0.5L0,-3.0L2.5,-0.5"/>
                </g>
                <g id="arrowRight" xlink:href="#dirArrow" transform="rotate(90) translate(36 -43)" onmousedown="handlePan(1,0)">
                  <use xlink:href="#rim" fill="#404040">
                        <set attributeName="fill" to="#808080" begin="arrowRight.mouseover" end="arrowRight.mouseout"/>
                  </use>
                  <path fill="none" stroke="white" stroke-width="1.5" d="M0,-3.0v7 M-2.5,-0.5L0,-3.0L2.5,-0.5"/>
                </g>
                <g id="arrowDown" xlink:href="#dirArrow" transform="rotate(180) translate(-30 -48)" onmousedown="handlePan(0,1)">
                  <use xlink:href="#rim" fill="#404040">
                        <set attributeName="fill" to="#808080" begin="arrowDown.mouseover" end="arrowDown.mouseout"/>
                  </use>
                  <path fill="none" stroke="white" stroke-width="1.5" d="M0,-3.0v7 M-2.5,-0.5L0,-3.0L2.5,-0.5"/>
                </g>
                <g id="arrowLeft" xlink:href="#dirArrow" transform="rotate(270) translate(-36 17)" onmousedown="handlePan(-1,0)">
                  <use xlink:href="#rim" fill="#404040">
                        <set attributeName="fill" to="#808080" begin="arrowLeft.mouseover" end="arrowLeft.mouseout"/>
                  </use>
                  <path fill="none" stroke="white" stroke-width="1.5" d="M0,-3.0v7 M-2.5,-0.5L0,-3.0L2.5,-0.5"/>
                </g>
        </g>
        <svg viewBox="0 0 15 15" width="100%" height="30px" preserveAspectRatio="xMaxYMin meet">
         <g id="arrow_out" transform="scale(0.3 0.3)">
          <a xlink:href="alphabetaia_8h__incl_org.svg" target="_base">
           <rect id="button" ry="5" rx="5" y="6" x="6" height="38" width="38"
                fill="#f2f5e9" fill-opacity="0.5" stroke="#606060" stroke-width="1.0"/>
           <path id="arrow"
             d="M 11.500037,31.436501 C 11.940474,20.09759 22.043105,11.32322 32.158766,21.979434 L 37.068811,17.246167 C 37.068811,17.246167 37.088388,32 37.088388,32 L 22.160133,31.978069 C 22.160133,31.978069 26.997745,27.140456 26.997745,27.140456 C 18.528582,18.264221 13.291696,25.230495 11.500037,31.436501 z"
             style="fill:#404040;"/>
          </a>
         </g>
        </svg>
</svg>
