<?xml version="1.0" encoding="UTF-8" standalone="no"?>
<!DOCTYPE svg PUBLIC "-//W3C//DTD SVG 1.1//EN"
 "http://www.w3.org/Graphics/SVG/1.1/DTD/svg11.dtd">
<!-- Generated by graphviz version 2.38.0 (20140413.2041)
 -->
<!-- Title: AlphaBetaIA Pages: 1 -->
<svg width="94pt" height="419pt"
 viewBox="0.00 0.00 94.00 419.00" xmlns="http://www.w3.org/2000/svg" xmlns:xlink="http://www.w3.org/1999/xlink">
<g id="graph0" class="graph" transform="scale(1 1) rotate(0) translate(4 415)">
<title>AlphaBetaIA</title>
<polygon fill="white" stroke="none" points="-4,4 -4,-415 90,-415 90,4 -4,4"/>
<!-- Node1 -->
<g id="node1" class="node"><title>Node1</title>
<polygon fill="#bfbfbf" stroke="black" points="0,-0.5 0,-90.5 86,-90.5 86,-0.5 0,-0.5"/>
<text text-anchor="middle" x="43" y="-78.5" font-family="Helvetica,sans-Serif" font-size="10.00">AlphaBetaIA</text>
<polyline fill="none" stroke="black" points="0,-71.5 86,-71.5 "/>
<text text-anchor="middle" x="43" y="-59.5" font-family="Helvetica,sans-Serif" font-size="10.00"> </text>
<polyline fill="none" stroke="black" points="0,-52.5 86,-52.5 "/>
<text text-anchor="start" x="8" y="-40.5" font-family="Helvetica,sans-Serif" font-size="10.00">+ AlphaBetaIA()</text>
<text text-anchor="start" x="8" y="-29.5" font-family="Helvetica,sans-Serif" font-size="10.00">+ id()</text>
<text text-anchor="start" x="8" y="-18.5" font-family="Helvetica,sans-Serif" font-size="10.00">+ jouer()</text>
<text text-anchor="start" x="8" y="-7.5" font-family="Helvetica,sans-Serif" font-size="10.00"># alphabeta()</text>
</g>
<!-- Node2 -->
<g id="node2" class="node"><title>Node2</title>
<g id="a_node2"><a xlink:href="classMinMaxIA.html" target="_top" xlink:title="{MinMaxIA\n|# m_prof\l# m_couleur\l|+ MinMaxIA()\l+ id()\l+ jouer()\l# heuristique()\l# minmax()\l}">
<polygon fill="white" stroke="black" points="4,-127.5 4,-239.5 82,-239.5 82,-127.5 4,-127.5"/>
<text text-anchor="middle" x="43" y="-227.5" font-family="Helvetica,sans-Serif" font-size="10.00">MinMaxIA</text>
<polyline fill="none" stroke="black" points="4,-220.5 82,-220.5 "/>
<text text-anchor="start" x="12" y="-208.5" font-family="Helvetica,sans-Serif" font-size="10.00"># m_prof</text>
<text text-anchor="start" x="12" y="-197.5" font-family="Helvetica,sans-Serif" font-size="10.00"># m_couleur</text>
<polyline fill="none" stroke="black" points="4,-190.5 82,-190.5 "/>
<text text-anchor="start" x="12" y="-178.5" font-family="Helvetica,sans-Serif" font-size="10.00">+ MinMaxIA()</text>
<text text-anchor="start" x="12" y="-167.5" font-family="Helvetica,sans-Serif" font-size="10.00">+ id()</text>
<text text-anchor="start" x="12" y="-156.5" font-family="Helvetica,sans-Serif" font-size="10.00">+ jouer()</text>
<text text-anchor="start" x="12" y="-145.5" font-family="Helvetica,sans-Serif" font-size="10.00"># heuristique()</text>
<text text-anchor="start" x="12" y="-134.5" font-family="Helvetica,sans-Serif" font-size="10.00"># minmax()</text>
</a>
</g>
</g>
<!-- Node2&#45;&gt;Node1 -->
<g id="edge1" class="edge"><title>Node2&#45;&gt;Node1</title>
<path fill="none" stroke="midnightblue" d="M43,-117.076C43,-108.072 43,-99.0069 43,-90.5144"/>
<polygon fill="none" stroke="midnightblue" points="39.5001,-117.184 43,-127.184 46.5001,-117.184 39.5001,-117.184"/>
</g>
<!-- Node3 -->
<g id="node3" class="node"><title>Node3</title>
<g id="a_node3"><a xlink:href="classIA.html" target="_top" xlink:title="Classe mère de la partie IA. ">
<polygon fill="white" stroke="black" points="4.5,-276.5 4.5,-410.5 81.5,-410.5 81.5,-276.5 4.5,-276.5"/>
<text text-anchor="middle" x="43" y="-398.5" font-family="Helvetica,sans-Serif" font-size="10.00">IA</text>
<polyline fill="none" stroke="black" points="4.5,-391.5 81.5,-391.5 "/>
<text text-anchor="start" x="12.5" y="-379.5" font-family="Helvetica,sans-Serif" font-size="10.00"># m_arbre</text>
<polyline fill="none" stroke="black" points="4.5,-372.5 81.5,-372.5 "/>
<text text-anchor="start" x="12.5" y="-360.5" font-family="Helvetica,sans-Serif" font-size="10.00">+ ~IA()</text>
<text text-anchor="start" x="12.5" y="-349.5" font-family="Helvetica,sans-Serif" font-size="10.00">+ id()</text>
<text text-anchor="start" x="12.5" y="-338.5" font-family="Helvetica,sans-Serif" font-size="10.00">+ jouer()</text>
<text text-anchor="start" x="12.5" y="-327.5" font-family="Helvetica,sans-Serif" font-size="10.00">+ get_coups()</text>
<text text-anchor="start" x="12.5" y="-316.5" font-family="Helvetica,sans-Serif" font-size="10.00">+ aff_arbre()</text>
<text text-anchor="start" x="12.5" y="-305.5" font-family="Helvetica,sans-Serif" font-size="10.00">+ gere_arbre()</text>
<text text-anchor="start" x="12.5" y="-294.5" font-family="Helvetica,sans-Serif" font-size="10.00">+ dess_plat()</text>
<text text-anchor="start" x="12.5" y="-283.5" font-family="Helvetica,sans-Serif" font-size="10.00">+ arbre()</text>
</a>
</g>
</g>
<!-- Node3&#45;&gt;Node2 -->
<g id="edge2" class="edge"><title>Node3&#45;&gt;Node2</title>
<path fill="none" stroke="midnightblue" d="M43,-266.35C43,-257.401 43,-248.403 43,-239.816"/>
<polygon fill="none" stroke="midnightblue" points="39.5001,-266.409 43,-276.409 46.5001,-266.409 39.5001,-266.409"/>
</g>
</g>
</svg>
