<?xml version="1.0" encoding="UTF-8" standalone="no"?>
<!DOCTYPE svg PUBLIC "-//W3C//DTD SVG 1.1//EN"
 "http://www.w3.org/Graphics/SVG/1.1/DTD/svg11.dtd">
<!-- Generated by graphviz version 2.38.0 (20140413.2041)
 -->
<!-- Title: IA Pages: 1 -->
<svg width="216pt" height="579pt"
 viewBox="0.00 0.00 216.00 579.00" xmlns="http://www.w3.org/2000/svg" xmlns:xlink="http://www.w3.org/1999/xlink">
<g id="graph0" class="graph" transform="scale(1 1) rotate(0) translate(4 575)">
<title>IA</title>
<polygon fill="white" stroke="none" points="-4,4 -4,-575 212,-575 212,4 -4,4"/>
<!-- Node1 -->
<g id="node1" class="node"><title>Node1</title>
<polygon fill="#bfbfbf" stroke="black" points="93,-436.5 93,-570.5 170,-570.5 170,-436.5 93,-436.5"/>
<text text-anchor="middle" x="131.5" y="-558.5" font-family="Helvetica,sans-Serif" font-size="10.00">IA</text>
<polyline fill="none" stroke="black" points="93,-551.5 170,-551.5 "/>
<text text-anchor="start" x="101" y="-539.5" font-family="Helvetica,sans-Serif" font-size="10.00"># m_arbre</text>
<polyline fill="none" stroke="black" points="93,-532.5 170,-532.5 "/>
<text text-anchor="start" x="101" y="-520.5" font-family="Helvetica,sans-Serif" font-size="10.00">+ ~IA()</text>
<text text-anchor="start" x="101" y="-509.5" font-family="Helvetica,sans-Serif" font-size="10.00">+ id()</text>
<text text-anchor="start" x="101" y="-498.5" font-family="Helvetica,sans-Serif" font-size="10.00">+ jouer()</text>
<text text-anchor="start" x="101" y="-487.5" font-family="Helvetica,sans-Serif" font-size="10.00">+ get_coups()</text>
<text text-anchor="start" x="101" y="-476.5" font-family="Helvetica,sans-Serif" font-size="10.00">+ aff_arbre()</text>
<text text-anchor="start" x="101" y="-465.5" font-family="Helvetica,sans-Serif" font-size="10.00">+ gere_arbre()</text>
<text text-anchor="start" x="101" y="-454.5" font-family="Helvetica,sans-Serif" font-size="10.00">+ dess_plat()</text>
<text text-anchor="start" x="101" y="-443.5" font-family="Helvetica,sans-Serif" font-size="10.00">+ arbre()</text>
</g>
<!-- Node2 -->
<g id="node2" class="node"><title>Node2</title>
<g id="a_node2"><a xlink:href="classMinMaxIA.html" target="_top" xlink:title="{MinMaxIA\n|# m_prof\l# m_couleur\l|+ MinMaxIA()\l+ id()\l+ jouer()\l# heuristique()\l# minmax()\l}">
<polygon fill="white" stroke="black" points="48.5,-287.5 48.5,-399.5 126.5,-399.5 126.5,-287.5 48.5,-287.5"/>
<text text-anchor="middle" x="87.5" y="-387.5" font-family="Helvetica,sans-Serif" font-size="10.00">MinMaxIA</text>
<polyline fill="none" stroke="black" points="48.5,-380.5 126.5,-380.5 "/>
<text text-anchor="start" x="56.5" y="-368.5" font-family="Helvetica,sans-Serif" font-size="10.00"># m_prof</text>
<text text-anchor="start" x="56.5" y="-357.5" font-family="Helvetica,sans-Serif" font-size="10.00"># m_couleur</text>
<polyline fill="none" stroke="black" points="48.5,-350.5 126.5,-350.5 "/>
<text text-anchor="start" x="56.5" y="-338.5" font-family="Helvetica,sans-Serif" font-size="10.00">+ MinMaxIA()</text>
<text text-anchor="start" x="56.5" y="-327.5" font-family="Helvetica,sans-Serif" font-size="10.00">+ id()</text>
<text text-anchor="start" x="56.5" y="-316.5" font-family="Helvetica,sans-Serif" font-size="10.00">+ jouer()</text>
<text text-anchor="start" x="56.5" y="-305.5" font-family="Helvetica,sans-Serif" font-size="10.00"># heuristique()</text>
<text text-anchor="start" x="56.5" y="-294.5" font-family="Helvetica,sans-Serif" font-size="10.00"># minmax()</text>
</a>
</g>
</g>
<!-- Node1&#45;&gt;Node2 -->
<g id="edge1" class="edge"><title>Node1&#45;&gt;Node2</title>
<path fill="none" stroke="midnightblue" d="M110.374,-426.639C107.855,-417.595 105.321,-408.495 102.905,-399.816"/>
<polygon fill="none" stroke="midnightblue" points="107.04,-427.715 113.095,-436.409 113.784,-425.837 107.04,-427.715"/>
</g>
<!-- Node6 -->
<g id="node6" class="node"><title>Node6</title>
<g id="a_node6"><a xlink:href="classRandomIA.html" target="_top" xlink:title="{RandomIA\n||+ id()\l+ jouer()\l}">
<polygon fill="white" stroke="black" points="145,-309.5 145,-377.5 208,-377.5 208,-309.5 145,-309.5"/>
<text text-anchor="middle" x="176.5" y="-365.5" font-family="Helvetica,sans-Serif" font-size="10.00">RandomIA</text>
<polyline fill="none" stroke="black" points="145,-358.5 208,-358.5 "/>
<text text-anchor="middle" x="176.5" y="-346.5" font-family="Helvetica,sans-Serif" font-size="10.00"> </text>
<polyline fill="none" stroke="black" points="145,-339.5 208,-339.5 "/>
<text text-anchor="start" x="153" y="-327.5" font-family="Helvetica,sans-Serif" font-size="10.00">+ id()</text>
<text text-anchor="start" x="153" y="-316.5" font-family="Helvetica,sans-Serif" font-size="10.00">+ jouer()</text>
</a>
</g>
</g>
<!-- Node1&#45;&gt;Node6 -->
<g id="edge5" class="edge"><title>Node1&#45;&gt;Node6</title>
<path fill="none" stroke="midnightblue" d="M153.188,-426.35C158.076,-409.19 163.014,-391.849 167.08,-377.574"/>
<polygon fill="none" stroke="midnightblue" points="149.696,-425.833 150.323,-436.409 156.429,-427.75 149.696,-425.833"/>
</g>
<!-- Node3 -->
<g id="node3" class="node"><title>Node3</title>
<g id="a_node3"><a xlink:href="classAlphaBetaIA.html" target="_top" xlink:title="{AlphaBetaIA\n||+ AlphaBetaIA()\l+ id()\l+ jouer()\l# alphabeta()\l}">
<polygon fill="white" stroke="black" points="44.5,-160.5 44.5,-250.5 130.5,-250.5 130.5,-160.5 44.5,-160.5"/>
<text text-anchor="middle" x="87.5" y="-238.5" font-family="Helvetica,sans-Serif" font-size="10.00">AlphaBetaIA</text>
<polyline fill="none" stroke="black" points="44.5,-231.5 130.5,-231.5 "/>
<text text-anchor="middle" x="87.5" y="-219.5" font-family="Helvetica,sans-Serif" font-size="10.00"> </text>
<polyline fill="none" stroke="black" points="44.5,-212.5 130.5,-212.5 "/>
<text text-anchor="start" x="52.5" y="-200.5" font-family="Helvetica,sans-Serif" font-size="10.00">+ AlphaBetaIA()</text>
<text text-anchor="start" x="52.5" y="-189.5" font-family="Helvetica,sans-Serif" font-size="10.00">+ id()</text>
<text text-anchor="start" x="52.5" y="-178.5" font-family="Helvetica,sans-Serif" font-size="10.00">+ jouer()</text>
<text text-anchor="start" x="52.5" y="-167.5" font-family="Helvetica,sans-Serif" font-size="10.00"># alphabeta()</text>
</a>
</g>
</g>
<!-- Node2&#45;&gt;Node3 -->
<g id="edge2" class="edge"><title>Node2&#45;&gt;Node3</title>
<path fill="none" stroke="midnightblue" d="M87.5,-277.076C87.5,-268.072 87.5,-259.007 87.5,-250.514"/>
<polygon fill="none" stroke="midnightblue" points="84.0001,-277.184 87.5,-287.184 91.0001,-277.184 84.0001,-277.184"/>
</g>
<!-- Node4 -->
<g id="node4" class="node"><title>Node4</title>
<g id="a_node4"><a xlink:href="classMemIA.html" target="_top" xlink:title="{MemIA\n||+ MemIA()\l+ id()\l+ jouer()\l+ gagne()\l+ perdu()\l+ set_prof()\l+ set_noeud()\l}">
<polygon fill="white" stroke="black" points="0,-0.5 0,-123.5 77,-123.5 77,-0.5 0,-0.5"/>
<text text-anchor="middle" x="38.5" y="-111.5" font-family="Helvetica,sans-Serif" font-size="10.00">MemIA</text>
<polyline fill="none" stroke="black" points="0,-104.5 77,-104.5 "/>
<text text-anchor="middle" x="38.5" y="-92.5" font-family="Helvetica,sans-Serif" font-size="10.00"> </text>
<polyline fill="none" stroke="black" points="0,-85.5 77,-85.5 "/>
<text text-anchor="start" x="8" y="-73.5" font-family="Helvetica,sans-Serif" font-size="10.00">+ MemIA()</text>
<text text-anchor="start" x="8" y="-62.5" font-family="Helvetica,sans-Serif" font-size="10.00">+ id()</text>
<text text-anchor="start" x="8" y="-51.5" font-family="Helvetica,sans-Serif" font-size="10.00">+ jouer()</text>
<text text-anchor="start" x="8" y="-40.5" font-family="Helvetica,sans-Serif" font-size="10.00">+ gagne()</text>
<text text-anchor="start" x="8" y="-29.5" font-family="Helvetica,sans-Serif" font-size="10.00">+ perdu()</text>
<text text-anchor="start" x="8" y="-18.5" font-family="Helvetica,sans-Serif" font-size="10.00">+ set_prof()</text>
<text text-anchor="start" x="8" y="-7.5" font-family="Helvetica,sans-Serif" font-size="10.00">+ set_noeud()</text>
</a>
</g>
</g>
<!-- Node3&#45;&gt;Node4 -->
<g id="edge3" class="edge"><title>Node3&#45;&gt;Node4</title>
<path fill="none" stroke="midnightblue" d="M68.7634,-150.393C65.7243,-141.617 62.5598,-132.479 59.4717,-123.561"/>
<polygon fill="none" stroke="midnightblue" points="65.5509,-151.813 72.1305,-160.117 72.1655,-149.522 65.5509,-151.813"/>
</g>
<!-- Node5 -->
<g id="node5" class="node"><title>Node5</title>
<g id="a_node5"><a xlink:href="classNegaMaxIA.html" target="_top" xlink:title="{NegaMaxIA\n||+ NegaMaxIA()\l+ id()\l# alphabeta()\l}">
<polygon fill="white" stroke="black" points="95,-22.5 95,-101.5 178,-101.5 178,-22.5 95,-22.5"/>
<text text-anchor="middle" x="136.5" y="-89.5" font-family="Helvetica,sans-Serif" font-size="10.00">NegaMaxIA</text>
<polyline fill="none" stroke="black" points="95,-82.5 178,-82.5 "/>
<text text-anchor="middle" x="136.5" y="-70.5" font-family="Helvetica,sans-Serif" font-size="10.00"> </text>
<polyline fill="none" stroke="black" points="95,-63.5 178,-63.5 "/>
<text text-anchor="start" x="103" y="-51.5" font-family="Helvetica,sans-Serif" font-size="10.00">+ NegaMaxIA()</text>
<text text-anchor="start" x="103" y="-40.5" font-family="Helvetica,sans-Serif" font-size="10.00">+ id()</text>
<text text-anchor="start" x="103" y="-29.5" font-family="Helvetica,sans-Serif" font-size="10.00"># alphabeta()</text>
</a>
</g>
</g>
<!-- Node3&#45;&gt;Node5 -->
<g id="edge4" class="edge"><title>Node3&#45;&gt;Node5</title>
<path fill="none" stroke="midnightblue" d="M106.274,-150.284C111.848,-134.19 117.839,-116.887 123.007,-101.965"/>
<polygon fill="none" stroke="midnightblue" points="102.834,-149.522 102.869,-160.117 109.449,-151.813 102.834,-149.522"/>
</g>
</g>
</svg>
