<?xml version="1.0" encoding="UTF-8" standalone="no"?>
<!DOCTYPE svg PUBLIC "-//W3C//DTD SVG 1.1//EN"
 "http://www.w3.org/Graphics/SVG/1.1/DTD/svg11.dtd">
<!-- Generated by graphviz version 2.38.0 (20140413.2041)
 -->
<!-- Title: NegaMaxIA Pages: 1 -->
<!--zoomable 535 -->
<svg id="main" version="1.1" xmlns="http://www.w3.org/2000/svg" xmlns:xlink="http://www.w3.org/1999/xlink" xml:space="preserve" onload="init(evt)">
<style type="text/css"><![CDATA[
.edge:hover path { stroke: red; }
.edge:hover polygon { stroke: red; fill: red; }
]]></style>
<script type="text/javascript"><![CDATA[
var edges = document.getElementsByTagName('g');
if (edges && edges.length) {
  for (var i=0;i<edges.length;i++) {
    if (edges[i].id.substr(0,4)=='edge') {
      edges[i].setAttribute('class','edge');
    }
  }
}
]]></script>
        <defs>
                <circle id="rim" cx="0" cy="0" r="7"/>
                <circle id="rim2" cx="0" cy="0" r="3.5"/>
                <g id="zoomPlus">
                        <use xlink:href="#rim" fill="#404040">
                                <set attributeName="fill" to="#808080" begin="zoomplus.mouseover" end="zoomplus.mouseout"/>
                        </use>
                        <path d="M-4,0h8M0,-4v8" fill="none" stroke="white" stroke-width="1.5" pointer-events="none"/>
                </g>
                <g id="zoomMin">
                        <use xlink:href="#rim" fill="#404040">
                                <set attributeName="fill" to="#808080" begin="zoomminus.mouseover" end="zoomminus.mouseout"/>
                        </use>
                        <path d="M-4,0h8" fill="none" stroke="white" stroke-width="1.5" pointer-events="none"/>
                </g>
                <g id="dirArrow">
                        <path fill="none" stroke="white" stroke-width="1.5" d="M0,-3.0v7 M-2.5,-0.5L0,-3.0L2.5,-0.5"/>
                </g>
               <g id="resetDef">
                       <use xlink:href="#rim2" fill="#404040">
                               <set attributeName="fill" to="#808080" begin="reset.mouseover" end="reset.mouseout"/>
                       </use>
               </g>
        </defs>

<script type="text/javascript">
var viewWidth = 94;
var viewHeight = 535;
var sectionId = 'dynsection-0';
</script>
<script xlink:href="svgpan.js"/>
<svg id="graph" class="graph">
<g id="viewport">
<title>NegaMaxIA</title>
<polygon fill="white" stroke="none" points="-4,4 -4,-531 90,-531 90,4 -4,4"/>
<!-- Node1 -->
<g id="node1" class="node"><title>Node1</title>
<polygon fill="#bfbfbf" stroke="black" points="1.5,-0.5 1.5,-79.5 84.5,-79.5 84.5,-0.5 1.5,-0.5"/>
<text text-anchor="middle" x="43" y="-67.5" font-family="Helvetica,sans-Serif" font-size="10.00">NegaMaxIA</text>
<polyline fill="none" stroke="black" points="1.5,-60.5 84.5,-60.5 "/>
<text text-anchor="middle" x="43" y="-48.5" font-family="Helvetica,sans-Serif" font-size="10.00"> </text>
<polyline fill="none" stroke="black" points="1.5,-41.5 84.5,-41.5 "/>
<text text-anchor="start" x="9.5" y="-29.5" font-family="Helvetica,sans-Serif" font-size="10.00">+ NegaMaxIA()</text>
<text text-anchor="start" x="9.5" y="-18.5" font-family="Helvetica,sans-Serif" font-size="10.00">+ id()</text>
<text text-anchor="start" x="9.5" y="-7.5" font-family="Helvetica,sans-Serif" font-size="10.00"># alphabeta()</text>
</g>
<!-- Node2 -->
<g id="node2" class="node"><title>Node2</title>
<g id="a_node2"><a xlink:href="classAlphaBetaIA.html" target="_top" xlink:title="{AlphaBetaIA\n||+ AlphaBetaIA()\l+ id()\l+ jouer()\l# alphabeta()\l}">
<polygon fill="white" stroke="black" points="0,-116.5 0,-206.5 86,-206.5 86,-116.5 0,-116.5"/>
<text text-anchor="middle" x="43" y="-194.5" font-family="Helvetica,sans-Serif" font-size="10.00">AlphaBetaIA</text>
<polyline fill="none" stroke="black" points="0,-187.5 86,-187.5 "/>
<text text-anchor="middle" x="43" y="-175.5" font-family="Helvetica,sans-Serif" font-size="10.00"> </text>
<polyline fill="none" stroke="black" points="0,-168.5 86,-168.5 "/>
<text text-anchor="start" x="8" y="-156.5" font-family="Helvetica,sans-Serif" font-size="10.00">+ AlphaBetaIA()</text>
<text text-anchor="start" x="8" y="-145.5" font-family="Helvetica,sans-Serif" font-size="10.00">+ id()</text>
<text text-anchor="start" x="8" y="-134.5" font-family="Helvetica,sans-Serif" font-size="10.00">+ jouer()</text>
<text text-anchor="start" x="8" y="-123.5" font-family="Helvetica,sans-Serif" font-size="10.00"># alphabeta()</text>
</a>
</g>
</g>
<!-- Node2&#45;&gt;Node1 -->
<g id="edge1" class="edge"><title>Node2&#45;&gt;Node1</title>
<path fill="none" stroke="midnightblue" d="M43,-106.079C43,-97.234 43,-88.2325 43,-79.8576"/>
<polygon fill="none" stroke="midnightblue" points="39.5001,-106.342 43,-116.342 46.5001,-106.342 39.5001,-106.342"/>
</g>
<!-- Node3 -->
<g id="node3" class="node"><title>Node3</title>
<g id="a_node3"><a xlink:href="classMinMaxIA.html" target="_top" xlink:title="{MinMaxIA\n|# m_prof\l# m_couleur\l|+ MinMaxIA()\l+ id()\l+ jouer()\l# heuristique()\l# minmax()\l}">
<polygon fill="white" stroke="black" points="4,-243.5 4,-355.5 82,-355.5 82,-243.5 4,-243.5"/>
<text text-anchor="middle" x="43" y="-343.5" font-family="Helvetica,sans-Serif" font-size="10.00">MinMaxIA</text>
<polyline fill="none" stroke="black" points="4,-336.5 82,-336.5 "/>
<text text-anchor="start" x="12" y="-324.5" font-family="Helvetica,sans-Serif" font-size="10.00"># m_prof</text>
<text text-anchor="start" x="12" y="-313.5" font-family="Helvetica,sans-Serif" font-size="10.00"># m_couleur</text>
<polyline fill="none" stroke="black" points="4,-306.5 82,-306.5 "/>
<text text-anchor="start" x="12" y="-294.5" font-family="Helvetica,sans-Serif" font-size="10.00">+ MinMaxIA()</text>
<text text-anchor="start" x="12" y="-283.5" font-family="Helvetica,sans-Serif" font-size="10.00">+ id()</text>
<text text-anchor="start" x="12" y="-272.5" font-family="Helvetica,sans-Serif" font-size="10.00">+ jouer()</text>
<text text-anchor="start" x="12" y="-261.5" font-family="Helvetica,sans-Serif" font-size="10.00"># heuristique()</text>
<text text-anchor="start" x="12" y="-250.5" font-family="Helvetica,sans-Serif" font-size="10.00"># minmax()</text>
</a>
</g>
</g>
<!-- Node3&#45;&gt;Node2 -->
<g id="edge2" class="edge"><title>Node3&#45;&gt;Node2</title>
<path fill="none" stroke="midnightblue" d="M43,-233.076C43,-224.072 43,-215.007 43,-206.514"/>
<polygon fill="none" stroke="midnightblue" points="39.5001,-233.184 43,-243.184 46.5001,-233.184 39.5001,-233.184"/>
</g>
<!-- Node4 -->
<g id="node4" class="node"><title>Node4</title>
<g id="a_node4"><a xlink:href="classIA.html" target="_top" xlink:title="{IA\n|# m_arbre\l|+ ~IA()\l+ id()\l+ jouer()\l+ get_coups()\l+ aff_arbre()\l+ gere_arbre()\l+ dess_plat()\l+ arbre()\l}">
<polygon fill="white" stroke="black" points="4.5,-392.5 4.5,-526.5 81.5,-526.5 81.5,-392.5 4.5,-392.5"/>
<text text-anchor="middle" x="43" y="-514.5" font-family="Helvetica,sans-Serif" font-size="10.00">IA</text>
<polyline fill="none" stroke="black" points="4.5,-507.5 81.5,-507.5 "/>
<text text-anchor="start" x="12.5" y="-495.5" font-family="Helvetica,sans-Serif" font-size="10.00"># m_arbre</text>
<polyline fill="none" stroke="black" points="4.5,-488.5 81.5,-488.5 "/>
<text text-anchor="start" x="12.5" y="-476.5" font-family="Helvetica,sans-Serif" font-size="10.00">+ ~IA()</text>
<text text-anchor="start" x="12.5" y="-465.5" font-family="Helvetica,sans-Serif" font-size="10.00">+ id()</text>
<text text-anchor="start" x="12.5" y="-454.5" font-family="Helvetica,sans-Serif" font-size="10.00">+ jouer()</text>
<text text-anchor="start" x="12.5" y="-443.5" font-family="Helvetica,sans-Serif" font-size="10.00">+ get_coups()</text>
<text text-anchor="start" x="12.5" y="-432.5" font-family="Helvetica,sans-Serif" font-size="10.00">+ aff_arbre()</text>
<text text-anchor="start" x="12.5" y="-421.5" font-family="Helvetica,sans-Serif" font-size="10.00">+ gere_arbre()</text>
<text text-anchor="start" x="12.5" y="-410.5" font-family="Helvetica,sans-Serif" font-size="10.00">+ dess_plat()</text>
<text text-anchor="start" x="12.5" y="-399.5" font-family="Helvetica,sans-Serif" font-size="10.00">+ arbre()</text>
</a>
</g>
</g>
<!-- Node4&#45;&gt;Node3 -->
<g id="edge3" class="edge"><title>Node4&#45;&gt;Node3</title>
<path fill="none" stroke="midnightblue" d="M43,-382.35C43,-373.401 43,-364.403 43,-355.816"/>
<polygon fill="none" stroke="midnightblue" points="39.5001,-382.409 43,-392.409 46.5001,-382.409 39.5001,-382.409"/>
</g>
</g>
</svg>
        <g id="navigator" transform="translate(0 0)" fill="#404254">
                <rect fill="#f2f5e9" fill-opacity="0.5" stroke="#606060" stroke-width=".5" x="0" y="0" width="60" height="60"/>
                <use id="zoomplus" xlink:href="#zoomPlus" x="17" y="9" onmousedown="handleZoom(evt,'in')"/>
                <use id="zoomminus" xlink:href="#zoomMin" x="42" y="9" onmousedown="handleZoom(evt,'out')"/>
                <use id="reset" xlink:href="#resetDef" x="30" y="36" onmousedown="handleReset()"/>
                <g id="arrowUp" xlink:href="#dirArrow" transform="translate(30 24)" onmousedown="handlePan(0,-1)">
                  <use xlink:href="#rim" fill="#404040">
                        <set attributeName="fill" to="#808080" begin="arrowUp.mouseover" end="arrowUp.mouseout"/>
                  </use>
                  <path fill="none" stroke="white" stroke-width="1.5" d="M0,-3.0v7 M-2.5,-0.5L0,-3.0L2.5,-0.5"/>
                </g>
                <g id="arrowRight" xlink:href="#dirArrow" transform="rotate(90) translate(36 -43)" onmousedown="handlePan(1,0)">
                  <use xlink:href="#rim" fill="#404040">
                        <set attributeName="fill" to="#808080" begin="arrowRight.mouseover" end="arrowRight.mouseout"/>
                  </use>
                  <path fill="none" stroke="white" stroke-width="1.5" d="M0,-3.0v7 M-2.5,-0.5L0,-3.0L2.5,-0.5"/>
                </g>
                <g id="arrowDown" xlink:href="#dirArrow" transform="rotate(180) translate(-30 -48)" onmousedown="handlePan(0,1)">
                  <use xlink:href="#rim" fill="#404040">
                        <set attributeName="fill" to="#808080" begin="arrowDown.mouseover" end="arrowDown.mouseout"/>
                  </use>
                  <path fill="none" stroke="white" stroke-width="1.5" d="M0,-3.0v7 M-2.5,-0.5L0,-3.0L2.5,-0.5"/>
                </g>
                <g id="arrowLeft" xlink:href="#dirArrow" transform="rotate(270) translate(-36 17)" onmousedown="handlePan(-1,0)">
                  <use xlink:href="#rim" fill="#404040">
                        <set attributeName="fill" to="#808080" begin="arrowLeft.mouseover" end="arrowLeft.mouseout"/>
                  </use>
                  <path fill="none" stroke="white" stroke-width="1.5" d="M0,-3.0v7 M-2.5,-0.5L0,-3.0L2.5,-0.5"/>
                </g>
        </g>
        <svg viewBox="0 0 15 15" width="100%" height="30px" preserveAspectRatio="xMaxYMin meet">
         <g id="arrow_out" transform="scale(0.3 0.3)">
          <a xlink:href="classNegaMaxIA__inherit__graph_org.svg" target="_base">
           <rect id="button" ry="5" rx="5" y="6" x="6" height="38" width="38"
                fill="#f2f5e9" fill-opacity="0.5" stroke="#606060" stroke-width="1.0"/>
           <path id="arrow"
             d="M 11.500037,31.436501 C 11.940474,20.09759 22.043105,11.32322 32.158766,21.979434 L 37.068811,17.246167 C 37.068811,17.246167 37.088388,32 37.088388,32 L 22.160133,31.978069 C 22.160133,31.978069 26.997745,27.140456 26.997745,27.140456 C 18.528582,18.264221 13.291696,25.230495 11.500037,31.436501 z"
             style="fill:#404040;"/>
          </a>
         </g>
        </svg>
</svg>
