<?xml version="1.0" encoding="UTF-8" standalone="no"?>
<!DOCTYPE svg PUBLIC "-//W3C//DTD SVG 1.1//EN"
 "http://www.w3.org/Graphics/SVG/1.1/DTD/svg11.dtd">
<!-- Generated by graphviz version 2.38.0 (20140413.2041)
 -->
<!-- Title: AlphaBetaIA Pages: 1 -->
<!--zoomable 579 -->
<svg id="main" version="1.1" xmlns="http://www.w3.org/2000/svg" xmlns:xlink="http://www.w3.org/1999/xlink" xml:space="preserve" onload="init(evt)">
<style type="text/css"><![CDATA[
.edge:hover path { stroke: red; }
.edge:hover polygon { stroke: red; fill: red; }
]]></style>
<script type="text/javascript"><![CDATA[
var edges = document.getElementsByTagName('g');
if (edges && edges.length) {
  for (var i=0;i<edges.length;i++) {
    if (edges[i].id.substr(0,4)=='edge') {
      edges[i].setAttribute('class','edge');
    }
  }
}
]]></script>
        <defs>
                <circle id="rim" cx="0" cy="0" r="7"/>
                <circle id="rim2" cx="0" cy="0" r="3.5"/>
                <g id="zoomPlus">
                        <use xlink:href="#rim" fill="#404040">
                                <set attributeName="fill" to="#808080" begin="zoomplus.mouseover" end="zoomplus.mouseout"/>
                        </use>
                        <path d="M-4,0h8M0,-4v8" fill="none" stroke="white" stroke-width="1.5" pointer-events="none"/>
                </g>
                <g id="zoomMin">
                        <use xlink:href="#rim" fill="#404040">
                                <set attributeName="fill" to="#808080" begin="zoomminus.mouseover" end="zoomminus.mouseout"/>
                        </use>
                        <path d="M-4,0h8" fill="none" stroke="white" stroke-width="1.5" pointer-events="none"/>
                </g>
                <g id="dirArrow">
                        <path fill="none" stroke="white" stroke-width="1.5" d="M0,-3.0v7 M-2.5,-0.5L0,-3.0L2.5,-0.5"/>
                </g>
               <g id="resetDef">
                       <use xlink:href="#rim2" fill="#404040">
                               <set attributeName="fill" to="#808080" begin="reset.mouseover" end="reset.mouseout"/>
                       </use>
               </g>
        </defs>

<script type="text/javascript">
var viewWidth = 186;
var viewHeight = 579;
var sectionId = 'dynsection-0';
</script>
<script xlink:href="svgpan.js"/>
<svg id="graph" class="graph">
<g id="viewport">
<title>AlphaBetaIA</title>
<polygon fill="white" stroke="none" points="-4,4 -4,-575 182,-575 182,4 -4,4"/>
<!-- Node1 -->
<g id="node1" class="node"><title>Node1</title>
<polygon fill="#bfbfbf" stroke="black" points="44.5,-160.5 44.5,-250.5 130.5,-250.5 130.5,-160.5 44.5,-160.5"/>
<text text-anchor="middle" x="87.5" y="-238.5" font-family="Helvetica,sans-Serif" font-size="10.00">AlphaBetaIA</text>
<polyline fill="none" stroke="black" points="44.5,-231.5 130.5,-231.5 "/>
<text text-anchor="middle" x="87.5" y="-219.5" font-family="Helvetica,sans-Serif" font-size="10.00"> </text>
<polyline fill="none" stroke="black" points="44.5,-212.5 130.5,-212.5 "/>
<text text-anchor="start" x="52.5" y="-200.5" font-family="Helvetica,sans-Serif" font-size="10.00">+ AlphaBetaIA()</text>
<text text-anchor="start" x="52.5" y="-189.5" font-family="Helvetica,sans-Serif" font-size="10.00">+ id()</text>
<text text-anchor="start" x="52.5" y="-178.5" font-family="Helvetica,sans-Serif" font-size="10.00">+ jouer()</text>
<text text-anchor="start" x="52.5" y="-167.5" font-family="Helvetica,sans-Serif" font-size="10.00"># alphabeta()</text>
</g>
<!-- Node4 -->
<g id="node4" class="node"><title>Node4</title>
<g id="a_node4"><a xlink:href="classMemIA.html" target="_top" xlink:title="{MemIA\n||+ MemIA()\l+ id()\l+ jouer()\l+ gagne()\l+ perdu()\l+ set_prof()\l+ set_noeud()\l}">
<polygon fill="white" stroke="black" points="0,-0.5 0,-123.5 77,-123.5 77,-0.5 0,-0.5"/>
<text text-anchor="middle" x="38.5" y="-111.5" font-family="Helvetica,sans-Serif" font-size="10.00">MemIA</text>
<polyline fill="none" stroke="black" points="0,-104.5 77,-104.5 "/>
<text text-anchor="middle" x="38.5" y="-92.5" font-family="Helvetica,sans-Serif" font-size="10.00"> </text>
<polyline fill="none" stroke="black" points="0,-85.5 77,-85.5 "/>
<text text-anchor="start" x="8" y="-73.5" font-family="Helvetica,sans-Serif" font-size="10.00">+ MemIA()</text>
<text text-anchor="start" x="8" y="-62.5" font-family="Helvetica,sans-Serif" font-size="10.00">+ id()</text>
<text text-anchor="start" x="8" y="-51.5" font-family="Helvetica,sans-Serif" font-size="10.00">+ jouer()</text>
<text text-anchor="start" x="8" y="-40.5" font-family="Helvetica,sans-Serif" font-size="10.00">+ gagne()</text>
<text text-anchor="start" x="8" y="-29.5" font-family="Helvetica,sans-Serif" font-size="10.00">+ perdu()</text>
<text text-anchor="start" x="8" y="-18.5" font-family="Helvetica,sans-Serif" font-size="10.00">+ set_prof()</text>
<text text-anchor="start" x="8" y="-7.5" font-family="Helvetica,sans-Serif" font-size="10.00">+ set_noeud()</text>
</a>
</g>
</g>
<!-- Node1&#45;&gt;Node4 -->
<g id="edge3" class="edge"><title>Node1&#45;&gt;Node4</title>
<path fill="none" stroke="midnightblue" d="M68.7634,-150.393C65.7243,-141.617 62.5598,-132.479 59.4717,-123.561"/>
<polygon fill="none" stroke="midnightblue" points="65.5509,-151.813 72.1305,-160.117 72.1655,-149.522 65.5509,-151.813"/>
</g>
<!-- Node5 -->
<g id="node5" class="node"><title>Node5</title>
<g id="a_node5"><a xlink:href="classNegaMaxIA.html" target="_top" xlink:title="{NegaMaxIA\n||+ NegaMaxIA()\l+ id()\l# alphabeta()\l}">
<polygon fill="white" stroke="black" points="95,-22.5 95,-101.5 178,-101.5 178,-22.5 95,-22.5"/>
<text text-anchor="middle" x="136.5" y="-89.5" font-family="Helvetica,sans-Serif" font-size="10.00">NegaMaxIA</text>
<polyline fill="none" stroke="black" points="95,-82.5 178,-82.5 "/>
<text text-anchor="middle" x="136.5" y="-70.5" font-family="Helvetica,sans-Serif" font-size="10.00"> </text>
<polyline fill="none" stroke="black" points="95,-63.5 178,-63.5 "/>
<text text-anchor="start" x="103" y="-51.5" font-family="Helvetica,sans-Serif" font-size="10.00">+ NegaMaxIA()</text>
<text text-anchor="start" x="103" y="-40.5" font-family="Helvetica,sans-Serif" font-size="10.00">+ id()</text>
<text text-anchor="start" x="103" y="-29.5" font-family="Helvetica,sans-Serif" font-size="10.00"># alphabeta()</text>
</a>
</g>
</g>
<!-- Node1&#45;&gt;Node5 -->
<g id="edge4" class="edge"><title>Node1&#45;&gt;Node5</title>
<path fill="none" stroke="midnightblue" d="M106.274,-150.284C111.848,-134.19 117.839,-116.887 123.007,-101.965"/>
<polygon fill="none" stroke="midnightblue" points="102.834,-149.522 102.869,-160.117 109.449,-151.813 102.834,-149.522"/>
</g>
<!-- Node2 -->
<g id="node2" class="node"><title>Node2</title>
<g id="a_node2"><a xlink:href="classMinMaxIA.html" target="_top" xlink:title="{MinMaxIA\n|# m_prof\l# m_couleur\l|+ MinMaxIA()\l+ id()\l+ jouer()\l# heuristique()\l# minmax()\l}">
<polygon fill="white" stroke="black" points="48.5,-287.5 48.5,-399.5 126.5,-399.5 126.5,-287.5 48.5,-287.5"/>
<text text-anchor="middle" x="87.5" y="-387.5" font-family="Helvetica,sans-Serif" font-size="10.00">MinMaxIA</text>
<polyline fill="none" stroke="black" points="48.5,-380.5 126.5,-380.5 "/>
<text text-anchor="start" x="56.5" y="-368.5" font-family="Helvetica,sans-Serif" font-size="10.00"># m_prof</text>
<text text-anchor="start" x="56.5" y="-357.5" font-family="Helvetica,sans-Serif" font-size="10.00"># m_couleur</text>
<polyline fill="none" stroke="black" points="48.5,-350.5 126.5,-350.5 "/>
<text text-anchor="start" x="56.5" y="-338.5" font-family="Helvetica,sans-Serif" font-size="10.00">+ MinMaxIA()</text>
<text text-anchor="start" x="56.5" y="-327.5" font-family="Helvetica,sans-Serif" font-size="10.00">+ id()</text>
<text text-anchor="start" x="56.5" y="-316.5" font-family="Helvetica,sans-Serif" font-size="10.00">+ jouer()</text>
<text text-anchor="start" x="56.5" y="-305.5" font-family="Helvetica,sans-Serif" font-size="10.00"># heuristique()</text>
<text text-anchor="start" x="56.5" y="-294.5" font-family="Helvetica,sans-Serif" font-size="10.00"># minmax()</text>
</a>
</g>
</g>
<!-- Node2&#45;&gt;Node1 -->
<g id="edge1" class="edge"><title>Node2&#45;&gt;Node1</title>
<path fill="none" stroke="midnightblue" d="M87.5,-277.076C87.5,-268.072 87.5,-259.007 87.5,-250.514"/>
<polygon fill="none" stroke="midnightblue" points="84.0001,-277.184 87.5,-287.184 91.0001,-277.184 84.0001,-277.184"/>
</g>
<!-- Node3 -->
<g id="node3" class="node"><title>Node3</title>
<g id="a_node3"><a xlink:href="classIA.html" target="_top" xlink:title="{IA\n|# m_arbre\l|+ ~IA()\l+ id()\l+ jouer()\l+ get_coups()\l+ aff_arbre()\l+ gere_arbre()\l+ dess_plat()\l+ arbre()\l}">
<polygon fill="white" stroke="black" points="49,-436.5 49,-570.5 126,-570.5 126,-436.5 49,-436.5"/>
<text text-anchor="middle" x="87.5" y="-558.5" font-family="Helvetica,sans-Serif" font-size="10.00">IA</text>
<polyline fill="none" stroke="black" points="49,-551.5 126,-551.5 "/>
<text text-anchor="start" x="57" y="-539.5" font-family="Helvetica,sans-Serif" font-size="10.00"># m_arbre</text>
<polyline fill="none" stroke="black" points="49,-532.5 126,-532.5 "/>
<text text-anchor="start" x="57" y="-520.5" font-family="Helvetica,sans-Serif" font-size="10.00">+ ~IA()</text>
<text text-anchor="start" x="57" y="-509.5" font-family="Helvetica,sans-Serif" font-size="10.00">+ id()</text>
<text text-anchor="start" x="57" y="-498.5" font-family="Helvetica,sans-Serif" font-size="10.00">+ jouer()</text>
<text text-anchor="start" x="57" y="-487.5" font-family="Helvetica,sans-Serif" font-size="10.00">+ get_coups()</text>
<text text-anchor="start" x="57" y="-476.5" font-family="Helvetica,sans-Serif" font-size="10.00">+ aff_arbre()</text>
<text text-anchor="start" x="57" y="-465.5" font-family="Helvetica,sans-Serif" font-size="10.00">+ gere_arbre()</text>
<text text-anchor="start" x="57" y="-454.5" font-family="Helvetica,sans-Serif" font-size="10.00">+ dess_plat()</text>
<text text-anchor="start" x="57" y="-443.5" font-family="Helvetica,sans-Serif" font-size="10.00">+ arbre()</text>
</a>
</g>
</g>
<!-- Node3&#45;&gt;Node2 -->
<g id="edge2" class="edge"><title>Node3&#45;&gt;Node2</title>
<path fill="none" stroke="midnightblue" d="M87.5,-426.35C87.5,-417.401 87.5,-408.403 87.5,-399.816"/>
<polygon fill="none" stroke="midnightblue" points="84.0001,-426.409 87.5,-436.409 91.0001,-426.409 84.0001,-426.409"/>
</g>
</g>
</svg>
        <g id="navigator" transform="translate(0 0)" fill="#404254">
                <rect fill="#f2f5e9" fill-opacity="0.5" stroke="#606060" stroke-width=".5" x="0" y="0" width="60" height="60"/>
                <use id="zoomplus" xlink:href="#zoomPlus" x="17" y="9" onmousedown="handleZoom(evt,'in')"/>
                <use id="zoomminus" xlink:href="#zoomMin" x="42" y="9" onmousedown="handleZoom(evt,'out')"/>
                <use id="reset" xlink:href="#resetDef" x="30" y="36" onmousedown="handleReset()"/>
                <g id="arrowUp" xlink:href="#dirArrow" transform="translate(30 24)" onmousedown="handlePan(0,-1)">
                  <use xlink:href="#rim" fill="#404040">
                        <set attributeName="fill" to="#808080" begin="arrowUp.mouseover" end="arrowUp.mouseout"/>
                  </use>
                  <path fill="none" stroke="white" stroke-width="1.5" d="M0,-3.0v7 M-2.5,-0.5L0,-3.0L2.5,-0.5"/>
                </g>
                <g id="arrowRight" xlink:href="#dirArrow" transform="rotate(90) translate(36 -43)" onmousedown="handlePan(1,0)">
                  <use xlink:href="#rim" fill="#404040">
                        <set attributeName="fill" to="#808080" begin="arrowRight.mouseover" end="arrowRight.mouseout"/>
                  </use>
                  <path fill="none" stroke="white" stroke-width="1.5" d="M0,-3.0v7 M-2.5,-0.5L0,-3.0L2.5,-0.5"/>
                </g>
                <g id="arrowDown" xlink:href="#dirArrow" transform="rotate(180) translate(-30 -48)" onmousedown="handlePan(0,1)">
                  <use xlink:href="#rim" fill="#404040">
                        <set attributeName="fill" to="#808080" begin="arrowDown.mouseover" end="arrowDown.mouseout"/>
                  </use>
                  <path fill="none" stroke="white" stroke-width="1.5" d="M0,-3.0v7 M-2.5,-0.5L0,-3.0L2.5,-0.5"/>
                </g>
                <g id="arrowLeft" xlink:href="#dirArrow" transform="rotate(270) translate(-36 17)" onmousedown="handlePan(-1,0)">
                  <use xlink:href="#rim" fill="#404040">
                        <set attributeName="fill" to="#808080" begin="arrowLeft.mouseover" end="arrowLeft.mouseout"/>
                  </use>
                  <path fill="none" stroke="white" stroke-width="1.5" d="M0,-3.0v7 M-2.5,-0.5L0,-3.0L2.5,-0.5"/>
                </g>
        </g>
        <svg viewBox="0 0 15 15" width="100%" height="30px" preserveAspectRatio="xMaxYMin meet">
         <g id="arrow_out" transform="scale(0.3 0.3)">
          <a xlink:href="classAlphaBetaIA__inherit__graph_org.svg" target="_base">
           <rect id="button" ry="5" rx="5" y="6" x="6" height="38" width="38"
                fill="#f2f5e9" fill-opacity="0.5" stroke="#606060" stroke-width="1.0"/>
           <path id="arrow"
             d="M 11.500037,31.436501 C 11.940474,20.09759 22.043105,11.32322 32.158766,21.979434 L 37.068811,17.246167 C 37.068811,17.246167 37.088388,32 37.088388,32 L 22.160133,31.978069 C 22.160133,31.978069 26.997745,27.140456 26.997745,27.140456 C 18.528582,18.264221 13.291696,25.230495 11.500037,31.436501 z"
             style="fill:#404040;"/>
          </a>
         </g>
        </svg>
</svg>
