<?xml version="1.0" encoding="UTF-8" standalone="no"?>
<!DOCTYPE svg PUBLIC "-//W3C//DTD SVG 1.1//EN"
 "http://www.w3.org/Graphics/SVG/1.1/DTD/svg11.dtd">
<!-- Generated by graphviz version 2.38.0 (20140413.2041)
 -->
<!-- Title: MemArbre::Noeud Pages: 1 -->
<svg width="117pt" height="314pt"
 viewBox="0.00 0.00 117.00 314.00" xmlns="http://www.w3.org/2000/svg" xmlns:xlink="http://www.w3.org/1999/xlink">
<g id="graph0" class="graph" transform="scale(1 1) rotate(0) translate(4 310)">
<title>MemArbre::Noeud</title>
<polygon fill="white" stroke="none" points="-4,4 -4,-310 113,-310 113,4 -4,4"/>
<!-- Node1 -->
<g id="node1" class="node"><title>Node1</title>
<polygon fill="#bfbfbf" stroke="black" points="4,-0.5 4,-200.5 105,-200.5 105,-0.5 4,-0.5"/>
<text text-anchor="middle" x="54.5" y="-188.5" font-family="Helvetica,sans-Serif" font-size="10.00">MemArbre::Noeud</text>
<polyline fill="none" stroke="black" points="4,-181.5 105,-181.5 "/>
<text text-anchor="middle" x="54.5" y="-169.5" font-family="Helvetica,sans-Serif" font-size="10.00"> </text>
<polyline fill="none" stroke="black" points="4,-162.5 105,-162.5 "/>
<text text-anchor="start" x="12" y="-150.5" font-family="Helvetica,sans-Serif" font-size="10.00">+ Noeud()</text>
<text text-anchor="start" x="12" y="-139.5" font-family="Helvetica,sans-Serif" font-size="10.00">+ Noeud()</text>
<text text-anchor="start" x="12" y="-128.5" font-family="Helvetica,sans-Serif" font-size="10.00">+ weak_from_this()</text>
<text text-anchor="start" x="12" y="-117.5" font-family="Helvetica,sans-Serif" font-size="10.00">+ afficher()</text>
<text text-anchor="start" x="12" y="-106.5" font-family="Helvetica,sans-Serif" font-size="10.00">+ add_fils()</text>
<text text-anchor="start" x="12" y="-95.5" font-family="Helvetica,sans-Serif" font-size="10.00">+ save()</text>
<text text-anchor="start" x="12" y="-84.5" font-family="Helvetica,sans-Serif" font-size="10.00">+ est_racine()</text>
<text text-anchor="start" x="12" y="-73.5" font-family="Helvetica,sans-Serif" font-size="10.00">+ val()</text>
<text text-anchor="start" x="12" y="-62.5" font-family="Helvetica,sans-Serif" font-size="10.00">+ val()</text>
<text text-anchor="start" x="12" y="-51.5" font-family="Helvetica,sans-Serif" font-size="10.00">+ pos()</text>
<text text-anchor="start" x="12" y="-40.5" font-family="Helvetica,sans-Serif" font-size="10.00">+ coords()</text>
<text text-anchor="start" x="12" y="-29.5" font-family="Helvetica,sans-Serif" font-size="10.00">+ pere()</text>
<text text-anchor="start" x="12" y="-18.5" font-family="Helvetica,sans-Serif" font-size="10.00">+ arbre()</text>
<text text-anchor="start" x="12" y="-7.5" font-family="Helvetica,sans-Serif" font-size="10.00">+ fils()</text>
</g>
<!-- Node2 -->
<g id="node2" class="node"><title>Node2</title>
<polygon fill="white" stroke="#bfbfbf" points="0,-237.5 0,-305.5 109,-305.5 109,-237.5 0,-237.5"/>
<text text-anchor="start" x="8" y="-293.5" font-family="Helvetica,sans-Serif" font-size="10.00">std::enable_shared</text>
<text text-anchor="middle" x="54.5" y="-282.5" font-family="Helvetica,sans-Serif" font-size="10.00">_from_this&lt; Noeud &gt;</text>
<polyline fill="none" stroke="#bfbfbf" points="0,-275.5 109,-275.5 "/>
<text text-anchor="middle" x="54.5" y="-263.5" font-family="Helvetica,sans-Serif" font-size="10.00"> </text>
<polyline fill="none" stroke="#bfbfbf" points="0,-256.5 109,-256.5 "/>
<text text-anchor="middle" x="54.5" y="-244.5" font-family="Helvetica,sans-Serif" font-size="10.00"> </text>
</g>
<!-- Node2&#45;&gt;Node1 -->
<g id="edge1" class="edge"><title>Node2&#45;&gt;Node1</title>
<path fill="none" stroke="midnightblue" d="M54.5,-227.08C54.5,-218.843 54.5,-209.919 54.5,-200.755"/>
<polygon fill="none" stroke="midnightblue" points="51.0001,-227.111 54.5,-237.111 58.0001,-227.111 51.0001,-227.111"/>
</g>
</g>
</svg>
