<?xml version="1.0" encoding="UTF-8" standalone="no"?>
<!DOCTYPE svg PUBLIC "-//W3C//DTD SVG 1.1//EN"
 "http://www.w3.org/Graphics/SVG/1.1/DTD/svg11.dtd">
<!-- Generated by graphviz version 2.38.0 (20140413.2041)
 -->
<!-- Title: ThreadIA Pages: 1 -->
<svg width="81pt" height="204pt"
 viewBox="0.00 0.00 81.00 204.00" xmlns="http://www.w3.org/2000/svg" xmlns:xlink="http://www.w3.org/1999/xlink">
<g id="graph0" class="graph" transform="scale(1 1) rotate(0) translate(4 200)">
<title>ThreadIA</title>
<polygon fill="white" stroke="none" points="-4,4 -4,-200 77,-200 77,4 -4,4"/>
<!-- Node1 -->
<g id="node1" class="node"><title>Node1</title>
<polygon fill="#bfbfbf" stroke="black" points="0,-0.5 0,-101.5 73,-101.5 73,-0.5 0,-0.5"/>
<text text-anchor="middle" x="36.5" y="-89.5" font-family="Helvetica,sans-Serif" font-size="10.00">ThreadIA</text>
<polyline fill="none" stroke="black" points="0,-82.5 73,-82.5 "/>
<text text-anchor="middle" x="36.5" y="-70.5" font-family="Helvetica,sans-Serif" font-size="10.00"> </text>
<polyline fill="none" stroke="black" points="0,-63.5 73,-63.5 "/>
<text text-anchor="start" x="8" y="-51.5" font-family="Helvetica,sans-Serif" font-size="10.00">+ ThreadIA()</text>
<text text-anchor="start" x="8" y="-40.5" font-family="Helvetica,sans-Serif" font-size="10.00">+ ThreadIA()</text>
<text text-anchor="start" x="8" y="-29.5" font-family="Helvetica,sans-Serif" font-size="10.00">+ operator=()</text>
<text text-anchor="start" x="8" y="-18.5" font-family="Helvetica,sans-Serif" font-size="10.00">+ ok()</text>
<text text-anchor="start" x="8" y="-7.5" font-family="Helvetica,sans-Serif" font-size="10.00">+ lancer()</text>
</g>
<!-- Node2 -->
<g id="node2" class="node"><title>Node2</title>
<polygon fill="white" stroke="#bfbfbf" points="10,-138.5 10,-195.5 63,-195.5 63,-138.5 10,-138.5"/>
<text text-anchor="middle" x="36.5" y="-183.5" font-family="Helvetica,sans-Serif" font-size="10.00">QObject</text>
<polyline fill="none" stroke="#bfbfbf" points="10,-176.5 63,-176.5 "/>
<text text-anchor="middle" x="36.5" y="-164.5" font-family="Helvetica,sans-Serif" font-size="10.00"> </text>
<polyline fill="none" stroke="#bfbfbf" points="10,-157.5 63,-157.5 "/>
<text text-anchor="middle" x="36.5" y="-145.5" font-family="Helvetica,sans-Serif" font-size="10.00"> </text>
</g>
<!-- Node2&#45;&gt;Node1 -->
<g id="edge1" class="edge"><title>Node2&#45;&gt;Node1</title>
<path fill="none" stroke="midnightblue" d="M36.5,-128.354C36.5,-119.796 36.5,-110.578 36.5,-101.608"/>
<polygon fill="none" stroke="midnightblue" points="33.0001,-128.404 36.5,-138.404 40.0001,-128.404 33.0001,-128.404"/>
</g>
</g>
</svg>
