<?xml version="1.0" encoding="UTF-8" standalone="no"?>
<!DOCTYPE svg PUBLIC "-//W3C//DTD SVG 1.1//EN"
 "http://www.w3.org/Graphics/SVG/1.1/DTD/svg11.dtd">
<!-- Generated by graphviz version 2.38.0 (20140413.2041)
 -->
<!-- Title: Tableau Pages: 1 -->
<svg width="104pt" height="325pt"
 viewBox="0.00 0.00 103.50 325.00" xmlns="http://www.w3.org/2000/svg" xmlns:xlink="http://www.w3.org/1999/xlink">
<g id="graph0" class="graph" transform="scale(1 1) rotate(0) translate(4 321)">
<title>Tableau</title>
<polygon fill="white" stroke="none" points="-4,4 -4,-321 99.5,-321 99.5,4 -4,4"/>
<!-- Node1 -->
<g id="node1" class="node"><title>Node1</title>
<polygon fill="#bfbfbf" stroke="black" points="0,-0.5 0,-145.5 85,-145.5 85,-0.5 0,-0.5"/>
<text text-anchor="middle" x="42.5" y="-133.5" font-family="Helvetica,sans-Serif" font-size="10.00">Tableau</text>
<polyline fill="none" stroke="black" points="0,-126.5 85,-126.5 "/>
<text text-anchor="middle" x="42.5" y="-114.5" font-family="Helvetica,sans-Serif" font-size="10.00"> </text>
<polyline fill="none" stroke="black" points="0,-107.5 85,-107.5 "/>
<text text-anchor="start" x="8" y="-95.5" font-family="Helvetica,sans-Serif" font-size="10.00">+ Tableau()</text>
<text text-anchor="start" x="8" y="-84.5" font-family="Helvetica,sans-Serif" font-size="10.00">+ Tableau()</text>
<text text-anchor="start" x="8" y="-73.5" font-family="Helvetica,sans-Serif" font-size="10.00">+ CreationTab()</text>
<text text-anchor="start" x="8" y="-62.5" font-family="Helvetica,sans-Serif" font-size="10.00">+ Jouer()</text>
<text text-anchor="start" x="8" y="-51.5" font-family="Helvetica,sans-Serif" font-size="10.00">+ AfficherTab()</text>
<text text-anchor="start" x="8" y="-40.5" font-family="Helvetica,sans-Serif" font-size="10.00">+ BoucleJeu()</text>
<text text-anchor="start" x="8" y="-29.5" font-family="Helvetica,sans-Serif" font-size="10.00">+ sauvegarder()</text>
<text text-anchor="start" x="8" y="-18.5" font-family="Helvetica,sans-Serif" font-size="10.00">+ scores()</text>
<text text-anchor="start" x="8" y="-7.5" font-family="Helvetica,sans-Serif" font-size="10.00">+ get_pions()</text>
</g>
<!-- Node2 -->
<g id="node2" class="node"><title>Node2</title>
<g id="a_node2"><a xlink:href="classConsole.html" target="_top" xlink:title="Gestion de la console. ">
<polygon fill="white" stroke="black" points="3.5,-193.5 3.5,-316.5 81.5,-316.5 81.5,-193.5 3.5,-193.5"/>
<text text-anchor="middle" x="42.5" y="-304.5" font-family="Helvetica,sans-Serif" font-size="10.00">Console</text>
<polyline fill="none" stroke="black" points="3.5,-297.5 81.5,-297.5 "/>
<text text-anchor="middle" x="42.5" y="-285.5" font-family="Helvetica,sans-Serif" font-size="10.00"> </text>
<polyline fill="none" stroke="black" points="3.5,-278.5 81.5,-278.5 "/>
<text text-anchor="start" x="11.5" y="-266.5" font-family="Helvetica,sans-Serif" font-size="10.00">+ Console()</text>
<text text-anchor="start" x="11.5" y="-255.5" font-family="Helvetica,sans-Serif" font-size="10.00">+ ~Console()</text>
<text text-anchor="start" x="11.5" y="-244.5" font-family="Helvetica,sans-Serif" font-size="10.00">+ gotoLigCol()</text>
<text text-anchor="start" x="11.5" y="-233.5" font-family="Helvetica,sans-Serif" font-size="10.00">+ clear()</text>
<text text-anchor="start" x="11.5" y="-222.5" font-family="Helvetica,sans-Serif" font-size="10.00">+ kbhit()</text>
<text text-anchor="start" x="11.5" y="-211.5" font-family="Helvetica,sans-Serif" font-size="10.00">+ getch()</text>
<text text-anchor="start" x="11.5" y="-200.5" font-family="Helvetica,sans-Serif" font-size="10.00">+ setColor()</text>
</a>
</g>
</g>
<!-- Node2&#45;&gt;Node1 -->
<g id="edge1" class="edge"><title>Node2&#45;&gt;Node1</title>
<path fill="none" stroke="#404040" d="M42.5,-193.311C42.5,-181.949 42.5,-169.887 42.5,-157.966"/>
<polygon fill="none" stroke="#404040" points="42.5001,-157.631 38.5,-151.631 42.5,-145.631 46.5,-151.631 42.5001,-157.631"/>
<text text-anchor="middle" x="69" y="-167" font-family="Helvetica,sans-Serif" font-size="10.00"> #s_console</text>
</g>
</g>
</svg>
