<?xml version="1.0" encoding="UTF-8" standalone="no"?>
<!DOCTYPE svg PUBLIC "-//W3C//DTD SVG 1.1//EN"
 "http://www.w3.org/Graphics/SVG/1.1/DTD/svg11.dtd">
<!-- Generated by graphviz version 2.38.0 (20140413.2041)
 -->
<!-- Title: NegaMaxIA Pages: 1 -->
<svg width="94pt" height="535pt"
 viewBox="0.00 0.00 94.00 535.00" xmlns="http://www.w3.org/2000/svg" xmlns:xlink="http://www.w3.org/1999/xlink">
<g id="graph0" class="graph" transform="scale(1 1) rotate(0) translate(4 531)">
<title>NegaMaxIA</title>
<polygon fill="white" stroke="none" points="-4,4 -4,-531 90,-531 90,4 -4,4"/>
<!-- Node1 -->
<g id="node1" class="node"><title>Node1</title>
<polygon fill="#bfbfbf" stroke="black" points="1.5,-0.5 1.5,-79.5 84.5,-79.5 84.5,-0.5 1.5,-0.5"/>
<text text-anchor="middle" x="43" y="-67.5" font-family="Helvetica,sans-Serif" font-size="10.00">NegaMaxIA</text>
<polyline fill="none" stroke="black" points="1.5,-60.5 84.5,-60.5 "/>
<text text-anchor="middle" x="43" y="-48.5" font-family="Helvetica,sans-Serif" font-size="10.00"> </text>
<polyline fill="none" stroke="black" points="1.5,-41.5 84.5,-41.5 "/>
<text text-anchor="start" x="9.5" y="-29.5" font-family="Helvetica,sans-Serif" font-size="10.00">+ NegaMaxIA()</text>
<text text-anchor="start" x="9.5" y="-18.5" font-family="Helvetica,sans-Serif" font-size="10.00">+ id()</text>
<text text-anchor="start" x="9.5" y="-7.5" font-family="Helvetica,sans-Serif" font-size="10.00"># alphabeta()</text>
</g>
<!-- Node2 -->
<g id="node2" class="node"><title>Node2</title>
<g id="a_node2"><a xlink:href="classAlphaBetaIA.html" target="_top" xlink:title="{AlphaBetaIA\n||+ AlphaBetaIA()\l+ id()\l+ jouer()\l# alphabeta()\l}">
<polygon fill="white" stroke="black" points="0,-116.5 0,-206.5 86,-206.5 86,-116.5 0,-116.5"/>
<text text-anchor="middle" x="43" y="-194.5" font-family="Helvetica,sans-Serif" font-size="10.00">AlphaBetaIA</text>
<polyline fill="none" stroke="black" points="0,-187.5 86,-187.5 "/>
<text text-anchor="middle" x="43" y="-175.5" font-family="Helvetica,sans-Serif" font-size="10.00"> </text>
<polyline fill="none" stroke="black" points="0,-168.5 86,-168.5 "/>
<text text-anchor="start" x="8" y="-156.5" font-family="Helvetica,sans-Serif" font-size="10.00">+ AlphaBetaIA()</text>
<text text-anchor="start" x="8" y="-145.5" font-family="Helvetica,sans-Serif" font-size="10.00">+ id()</text>
<text text-anchor="start" x="8" y="-134.5" font-family="Helvetica,sans-Serif" font-size="10.00">+ jouer()</text>
<text text-anchor="start" x="8" y="-123.5" font-family="Helvetica,sans-Serif" font-size="10.00"># alphabeta()</text>
</a>
</g>
</g>
<!-- Node2&#45;&gt;Node1 -->
<g id="edge1" class="edge"><title>Node2&#45;&gt;Node1</title>
<path fill="none" stroke="midnightblue" d="M43,-106.079C43,-97.234 43,-88.2325 43,-79.8576"/>
<polygon fill="none" stroke="midnightblue" points="39.5001,-106.342 43,-116.342 46.5001,-106.342 39.5001,-106.342"/>
</g>
<!-- Node3 -->
<g id="node3" class="node"><title>Node3</title>
<g id="a_node3"><a xlink:href="classMinMaxIA.html" target="_top" xlink:title="{MinMaxIA\n|# m_prof\l# m_couleur\l|+ MinMaxIA()\l+ id()\l+ jouer()\l# heuristique()\l# minmax()\l}">
<polygon fill="white" stroke="black" points="4,-243.5 4,-355.5 82,-355.5 82,-243.5 4,-243.5"/>
<text text-anchor="middle" x="43" y="-343.5" font-family="Helvetica,sans-Serif" font-size="10.00">MinMaxIA</text>
<polyline fill="none" stroke="black" points="4,-336.5 82,-336.5 "/>
<text text-anchor="start" x="12" y="-324.5" font-family="Helvetica,sans-Serif" font-size="10.00"># m_prof</text>
<text text-anchor="start" x="12" y="-313.5" font-family="Helvetica,sans-Serif" font-size="10.00"># m_couleur</text>
<polyline fill="none" stroke="black" points="4,-306.5 82,-306.5 "/>
<text text-anchor="start" x="12" y="-294.5" font-family="Helvetica,sans-Serif" font-size="10.00">+ MinMaxIA()</text>
<text text-anchor="start" x="12" y="-283.5" font-family="Helvetica,sans-Serif" font-size="10.00">+ id()</text>
<text text-anchor="start" x="12" y="-272.5" font-family="Helvetica,sans-Serif" font-size="10.00">+ jouer()</text>
<text text-anchor="start" x="12" y="-261.5" font-family="Helvetica,sans-Serif" font-size="10.00"># heuristique()</text>
<text text-anchor="start" x="12" y="-250.5" font-family="Helvetica,sans-Serif" font-size="10.00"># minmax()</text>
</a>
</g>
</g>
<!-- Node3&#45;&gt;Node2 -->
<g id="edge2" class="edge"><title>Node3&#45;&gt;Node2</title>
<path fill="none" stroke="midnightblue" d="M43,-233.076C43,-224.072 43,-215.007 43,-206.514"/>
<polygon fill="none" stroke="midnightblue" points="39.5001,-233.184 43,-243.184 46.5001,-233.184 39.5001,-233.184"/>
</g>
<!-- Node4 -->
<g id="node4" class="node"><title>Node4</title>
<g id="a_node4"><a xlink:href="classIA.html" target="_top" xlink:title="{IA\n|# m_arbre\l|+ ~IA()\l+ id()\l+ jouer()\l+ get_coups()\l+ aff_arbre()\l+ gere_arbre()\l+ dess_plat()\l+ arbre()\l}">
<polygon fill="white" stroke="black" points="4.5,-392.5 4.5,-526.5 81.5,-526.5 81.5,-392.5 4.5,-392.5"/>
<text text-anchor="middle" x="43" y="-514.5" font-family="Helvetica,sans-Serif" font-size="10.00">IA</text>
<polyline fill="none" stroke="black" points="4.5,-507.5 81.5,-507.5 "/>
<text text-anchor="start" x="12.5" y="-495.5" font-family="Helvetica,sans-Serif" font-size="10.00"># m_arbre</text>
<polyline fill="none" stroke="black" points="4.5,-488.5 81.5,-488.5 "/>
<text text-anchor="start" x="12.5" y="-476.5" font-family="Helvetica,sans-Serif" font-size="10.00">+ ~IA()</text>
<text text-anchor="start" x="12.5" y="-465.5" font-family="Helvetica,sans-Serif" font-size="10.00">+ id()</text>
<text text-anchor="start" x="12.5" y="-454.5" font-family="Helvetica,sans-Serif" font-size="10.00">+ jouer()</text>
<text text-anchor="start" x="12.5" y="-443.5" font-family="Helvetica,sans-Serif" font-size="10.00">+ get_coups()</text>
<text text-anchor="start" x="12.5" y="-432.5" font-family="Helvetica,sans-Serif" font-size="10.00">+ aff_arbre()</text>
<text text-anchor="start" x="12.5" y="-421.5" font-family="Helvetica,sans-Serif" font-size="10.00">+ gere_arbre()</text>
<text text-anchor="start" x="12.5" y="-410.5" font-family="Helvetica,sans-Serif" font-size="10.00">+ dess_plat()</text>
<text text-anchor="start" x="12.5" y="-399.5" font-family="Helvetica,sans-Serif" font-size="10.00">+ arbre()</text>
</a>
</g>
</g>
<!-- Node4&#45;&gt;Node3 -->
<g id="edge3" class="edge"><title>Node4&#45;&gt;Node3</title>
<path fill="none" stroke="midnightblue" d="M43,-382.35C43,-373.401 43,-364.403 43,-355.816"/>
<polygon fill="none" stroke="midnightblue" points="39.5001,-382.409 43,-392.409 46.5001,-382.409 39.5001,-382.409"/>
</g>
</g>
</svg>
