<?xml version="1.0" encoding="UTF-8" standalone="no"?>
<!DOCTYPE svg PUBLIC "-//W3C//DTD SVG 1.1//EN"
 "http://www.w3.org/Graphics/SVG/1.1/DTD/svg11.dtd">
<!-- Generated by graphviz version 2.38.0 (20140413.2041)
 -->
<!-- Title: Jeu Pages: 1 -->
<svg width="88pt" height="193pt"
 viewBox="0.00 0.00 88.00 193.00" xmlns="http://www.w3.org/2000/svg" xmlns:xlink="http://www.w3.org/1999/xlink">
<g id="graph0" class="graph" transform="scale(1 1) rotate(0) translate(4 189)">
<title>Jeu</title>
<polygon fill="white" stroke="none" points="-4,4 -4,-189 84,-189 84,4 -4,4"/>
<!-- Node1 -->
<g id="node1" class="node"><title>Node1</title>
<polygon fill="#bfbfbf" stroke="black" points="0.5,-0.5 0.5,-90.5 79.5,-90.5 79.5,-0.5 0.5,-0.5"/>
<text text-anchor="middle" x="40" y="-78.5" font-family="Helvetica,sans-Serif" font-size="10.00">Jeu</text>
<polyline fill="none" stroke="black" points="0.5,-71.5 79.5,-71.5 "/>
<text text-anchor="middle" x="40" y="-59.5" font-family="Helvetica,sans-Serif" font-size="10.00"> </text>
<polyline fill="none" stroke="black" points="0.5,-52.5 79.5,-52.5 "/>
<text text-anchor="start" x="8.5" y="-40.5" font-family="Helvetica,sans-Serif" font-size="10.00">+ Jeu()</text>
<text text-anchor="start" x="8.5" y="-29.5" font-family="Helvetica,sans-Serif" font-size="10.00">+ fin_jeu()</text>
<text text-anchor="start" x="8.5" y="-18.5" font-family="Helvetica,sans-Serif" font-size="10.00">+ chg_joueur()</text>
<text text-anchor="start" x="8.5" y="-7.5" font-family="Helvetica,sans-Serif" font-size="10.00">+ chg_score()</text>
</g>
<!-- Node2 -->
<g id="node2" class="node"><title>Node2</title>
<polygon fill="white" stroke="#bfbfbf" points="0,-127.5 0,-184.5 80,-184.5 80,-127.5 0,-127.5"/>
<text text-anchor="middle" x="40" y="-172.5" font-family="Helvetica,sans-Serif" font-size="10.00">QMainWindow</text>
<polyline fill="none" stroke="#bfbfbf" points="0,-165.5 80,-165.5 "/>
<text text-anchor="middle" x="40" y="-153.5" font-family="Helvetica,sans-Serif" font-size="10.00"> </text>
<polyline fill="none" stroke="#bfbfbf" points="0,-146.5 80,-146.5 "/>
<text text-anchor="middle" x="40" y="-134.5" font-family="Helvetica,sans-Serif" font-size="10.00"> </text>
</g>
<!-- Node2&#45;&gt;Node1 -->
<g id="edge1" class="edge"><title>Node2&#45;&gt;Node1</title>
<path fill="none" stroke="midnightblue" d="M40,-117.214C40,-108.609 40,-99.3943 40,-90.5541"/>
<polygon fill="none" stroke="midnightblue" points="36.5001,-117.34 40,-127.34 43.5001,-117.34 36.5001,-117.34"/>
</g>
</g>
</svg>
