<?xml version="1.0" encoding="UTF-8" standalone="no"?>
<!DOCTYPE svg PUBLIC "-//W3C//DTD SVG 1.1//EN"
 "http://www.w3.org/Graphics/SVG/1.1/DTD/svg11.dtd">
<!-- Generated by graphviz version 2.38.0 (20140413.2041)
 -->
<!-- Title: MemArbre Pages: 1 -->
<svg width="133pt" height="248pt"
 viewBox="0.00 0.00 133.00 248.00" xmlns="http://www.w3.org/2000/svg" xmlns:xlink="http://www.w3.org/1999/xlink">
<g id="graph0" class="graph" transform="scale(1 1) rotate(0) translate(4 244)">
<title>MemArbre</title>
<polygon fill="white" stroke="none" points="-4,4 -4,-244 129,-244 129,4 -4,4"/>
<!-- Node1 -->
<g id="node1" class="node"><title>Node1</title>
<polygon fill="#bfbfbf" stroke="black" points="21,-0.5 21,-134.5 104,-134.5 104,-0.5 21,-0.5"/>
<text text-anchor="middle" x="62.5" y="-122.5" font-family="Helvetica,sans-Serif" font-size="10.00">MemArbre</text>
<polyline fill="none" stroke="black" points="21,-115.5 104,-115.5 "/>
<text text-anchor="middle" x="62.5" y="-103.5" font-family="Helvetica,sans-Serif" font-size="10.00"> </text>
<polyline fill="none" stroke="black" points="21,-96.5 104,-96.5 "/>
<text text-anchor="start" x="29" y="-84.5" font-family="Helvetica,sans-Serif" font-size="10.00">+ MemArbre()</text>
<text text-anchor="start" x="29" y="-73.5" font-family="Helvetica,sans-Serif" font-size="10.00">+ ~MemArbre()</text>
<text text-anchor="start" x="29" y="-62.5" font-family="Helvetica,sans-Serif" font-size="10.00">+ charger()</text>
<text text-anchor="start" x="29" y="-51.5" font-family="Helvetica,sans-Serif" font-size="10.00">+ add_racine()</text>
<text text-anchor="start" x="29" y="-40.5" font-family="Helvetica,sans-Serif" font-size="10.00">+ racines()</text>
<text text-anchor="start" x="29" y="-29.5" font-family="Helvetica,sans-Serif" font-size="10.00">+ begin()</text>
<text text-anchor="start" x="29" y="-18.5" font-family="Helvetica,sans-Serif" font-size="10.00">+ end()</text>
<text text-anchor="start" x="29" y="-7.5" font-family="Helvetica,sans-Serif" font-size="10.00">+ noeud()</text>
</g>
<!-- Node2 -->
<g id="node2" class="node"><title>Node2</title>
<polygon fill="white" stroke="#bfbfbf" points="-7.10543e-15,-171.5 -7.10543e-15,-239.5 125,-239.5 125,-171.5 -7.10543e-15,-171.5"/>
<text text-anchor="start" x="8" y="-227.5" font-family="Helvetica,sans-Serif" font-size="10.00">std::enable_shared</text>
<text text-anchor="middle" x="62.5" y="-216.5" font-family="Helvetica,sans-Serif" font-size="10.00">_from_this&lt; MemArbre &gt;</text>
<polyline fill="none" stroke="#bfbfbf" points="-7.10543e-15,-209.5 125,-209.5 "/>
<text text-anchor="middle" x="62.5" y="-197.5" font-family="Helvetica,sans-Serif" font-size="10.00"> </text>
<polyline fill="none" stroke="#bfbfbf" points="-7.10543e-15,-190.5 125,-190.5 "/>
<text text-anchor="middle" x="62.5" y="-178.5" font-family="Helvetica,sans-Serif" font-size="10.00"> </text>
</g>
<!-- Node2&#45;&gt;Node1 -->
<g id="edge1" class="edge"><title>Node2&#45;&gt;Node1</title>
<path fill="none" stroke="midnightblue" d="M62.5,-160.956C62.5,-152.567 62.5,-143.604 62.5,-134.683"/>
<polygon fill="none" stroke="midnightblue" points="59.0001,-161.231 62.5,-171.231 66.0001,-161.231 59.0001,-161.231"/>
</g>
</g>
</svg>
