<?xml version="1.0" encoding="UTF-8" standalone="no"?>
<!DOCTYPE svg PUBLIC "-//W3C//DTD SVG 1.1//EN"
 "http://www.w3.org/Graphics/SVG/1.1/DTD/svg11.dtd">
<!-- Generated by graphviz version 2.38.0 (20140413.2041)
 -->
<!-- Title: etat.h Pages: 1 -->
<svg width="161pt" height="140pt"
 viewBox="0.00 0.00 161.00 140.00" xmlns="http://www.w3.org/2000/svg" xmlns:xlink="http://www.w3.org/1999/xlink">
<g id="graph0" class="graph" transform="scale(1 1) rotate(0) translate(4 136)">
<title>etat.h</title>
<polygon fill="white" stroke="none" points="-4,4 -4,-136 157,-136 157,4 -4,4"/>
<!-- Node1 -->
<g id="node1" class="node"><title>Node1</title>
<polygon fill="#bfbfbf" stroke="black" points="43,-112.5 43,-131.5 84,-131.5 84,-112.5 43,-112.5"/>
<text text-anchor="middle" x="63.5" y="-119.5" font-family="Helvetica,sans-Serif" font-size="10.00">etat.h</text>
</g>
<!-- Node2 -->
<g id="node2" class="node"><title>Node2</title>
<polygon fill="white" stroke="#bfbfbf" points="0,-56.5 0,-75.5 35,-75.5 35,-56.5 0,-56.5"/>
<text text-anchor="middle" x="17.5" y="-63.5" font-family="Helvetica,sans-Serif" font-size="10.00">map</text>
</g>
<!-- Node1&#45;&gt;Node2 -->
<g id="edge1" class="edge"><title>Node1&#45;&gt;Node2</title>
<path fill="none" stroke="midnightblue" d="M55.904,-112.083C49.2725,-104.298 39.479,-92.8015 31.4419,-83.3665"/>
<polygon fill="midnightblue" stroke="midnightblue" points="34.1037,-81.0939 24.9546,-75.7511 28.775,-85.6332 34.1037,-81.0939"/>
</g>
<!-- Node3 -->
<g id="node3" class="node"><title>Node3</title>
<polygon fill="white" stroke="#bfbfbf" points="41.5,-0.5 41.5,-19.5 85.5,-19.5 85.5,-0.5 41.5,-0.5"/>
<text text-anchor="middle" x="63.5" y="-7.5" font-family="Helvetica,sans-Serif" font-size="10.00">vector</text>
</g>
<!-- Node1&#45;&gt;Node3 -->
<g id="edge2" class="edge"><title>Node1&#45;&gt;Node3</title>
<path fill="none" stroke="midnightblue" d="M63.5,-112.368C63.5,-94.617 63.5,-53.6664 63.5,-29.5974"/>
<polygon fill="midnightblue" stroke="midnightblue" points="67.0001,-29.5914 63.5,-19.5914 60.0001,-29.5915 67.0001,-29.5914"/>
</g>
<!-- Node4 -->
<g id="node4" class="node"><title>Node4</title>
<g id="a_node4"><a xlink:href="pion_8h_source.html" target="_top" xlink:title="pion.h">
<polygon fill="white" stroke="black" points="92,-56.5 92,-75.5 135,-75.5 135,-56.5 92,-56.5"/>
<text text-anchor="middle" x="113.5" y="-63.5" font-family="Helvetica,sans-Serif" font-size="10.00">pion.h</text>
</a>
</g>
</g>
<!-- Node1&#45;&gt;Node4 -->
<g id="edge3" class="edge"><title>Node1&#45;&gt;Node4</title>
<path fill="none" stroke="midnightblue" d="M71.7565,-112.083C78.9647,-104.298 89.6098,-92.8015 98.3458,-83.3665"/>
<polygon fill="midnightblue" stroke="midnightblue" points="101.171,-85.4666 105.397,-75.7511 96.0349,-80.7108 101.171,-85.4666"/>
</g>
<!-- Node4&#45;&gt;Node3 -->
<g id="edge5" class="edge"><title>Node4&#45;&gt;Node3</title>
<path fill="none" stroke="midnightblue" d="M105.244,-56.083C98.0353,-48.2982 87.3902,-36.8015 78.6542,-27.3665"/>
<polygon fill="midnightblue" stroke="midnightblue" points="80.9651,-24.7108 71.6028,-19.7511 75.8288,-29.4666 80.9651,-24.7108"/>
</g>
<!-- Node5 -->
<g id="node5" class="node"><title>Node5</title>
<polygon fill="white" stroke="#bfbfbf" points="104,-0.5 104,-19.5 153,-19.5 153,-0.5 104,-0.5"/>
<text text-anchor="middle" x="128.5" y="-7.5" font-family="Helvetica,sans-Serif" font-size="10.00">istream</text>
</g>
<!-- Node4&#45;&gt;Node5 -->
<g id="edge4" class="edge"><title>Node4&#45;&gt;Node5</title>
<path fill="none" stroke="midnightblue" d="M115.977,-56.083C117.986,-48.8486 120.886,-38.4087 123.39,-29.3968"/>
<polygon fill="midnightblue" stroke="midnightblue" points="126.765,-30.323 126.069,-19.7511 120.02,-28.4495 126.765,-30.323"/>
</g>
</g>
</svg>
