<?xml version="1.0" encoding="UTF-8" standalone="no"?>
<!DOCTYPE svg PUBLIC "-//W3C//DTD SVG 1.1//EN"
 "http://www.w3.org/Graphics/SVG/1.1/DTD/svg11.dtd">
<!-- Generated by graphviz version 2.38.0 (20140413.2041)
 -->
<!-- Title: etat.h Pages: 1 -->
<svg width="236pt" height="420pt"
 viewBox="0.00 0.00 235.57 420.00" xmlns="http://www.w3.org/2000/svg" xmlns:xlink="http://www.w3.org/1999/xlink">
<g id="graph0" class="graph" transform="scale(1 1) rotate(0) translate(4 416)">
<title>etat.h</title>
<polygon fill="white" stroke="none" points="-4,4 -4,-416 231.567,-416 231.567,4 -4,4"/>
<!-- Node1 -->
<g id="node1" class="node"><title>Node1</title>
<polygon fill="#bfbfbf" stroke="black" points="105.567,-392.5 105.567,-411.5 146.567,-411.5 146.567,-392.5 105.567,-392.5"/>
<text text-anchor="middle" x="126.067" y="-399.5" font-family="Helvetica,sans-Serif" font-size="10.00">etat.h</text>
</g>
<!-- Node2 -->
<g id="node2" class="node"><title>Node2</title>
<g id="a_node2"><a xlink:href="minmaxia_8h_source.html" target="_top" xlink:title="minmaxia.h">
<polygon fill="white" stroke="black" points="2.56699,-280.5 2.56699,-299.5 69.567,-299.5 69.567,-280.5 2.56699,-280.5"/>
<text text-anchor="middle" x="36.067" y="-287.5" font-family="Helvetica,sans-Serif" font-size="10.00">minmaxia.h</text>
</a>
</g>
</g>
<!-- Node1&#45;&gt;Node2 -->
<g id="edge1" class="edge"><title>Node1&#45;&gt;Node2</title>
<path fill="none" stroke="midnightblue" d="M108.223,-385.656C99.0264,-377.33 87.9159,-366.596 79.067,-356 63.4557,-337.306 48.5392,-312.766 41.0585,-299.842"/>
<polygon fill="midnightblue" stroke="midnightblue" points="105.902,-388.275 115.707,-392.288 110.545,-383.036 105.902,-388.275"/>
</g>
<!-- Node8 -->
<g id="node8" class="node"><title>Node8</title>
<g id="a_node8"><a xlink:href="ia_8h_source.html" target="_top" xlink:title="ia.h">
<polygon fill="white" stroke="black" points="88.067,-336.5 88.067,-355.5 120.067,-355.5 120.067,-336.5 88.067,-336.5"/>
<text text-anchor="middle" x="104.067" y="-343.5" font-family="Helvetica,sans-Serif" font-size="10.00">ia.h</text>
</a>
</g>
</g>
<!-- Node1&#45;&gt;Node8 -->
<g id="edge8" class="edge"><title>Node1&#45;&gt;Node8</title>
<path fill="none" stroke="midnightblue" d="M118.607,-382.69C114.9,-373.589 110.591,-363.014 107.632,-355.751"/>
<polygon fill="midnightblue" stroke="midnightblue" points="115.42,-384.143 122.434,-392.083 121.902,-381.502 115.42,-384.143"/>
</g>
<!-- Node9 -->
<g id="node9" class="node"><title>Node9</title>
<g id="a_node9"><a xlink:href="plateau_8h_source.html" target="_top" xlink:title="plateau.h">
<polygon fill="white" stroke="black" points="88.067,-280.5 88.067,-299.5 144.067,-299.5 144.067,-280.5 88.067,-280.5"/>
<text text-anchor="middle" x="116.067" y="-287.5" font-family="Helvetica,sans-Serif" font-size="10.00">plateau.h</text>
</a>
</g>
</g>
<!-- Node1&#45;&gt;Node9 -->
<g id="edge13" class="edge"><title>Node1&#45;&gt;Node9</title>
<path fill="none" stroke="midnightblue" d="M128.794,-382.046C130.214,-369.034 131.247,-351.399 129.067,-336 127.243,-323.117 122.621,-308.76 119.411,-299.803"/>
<polygon fill="midnightblue" stroke="midnightblue" points="125.303,-381.759 127.518,-392.119 132.247,-382.639 125.303,-381.759"/>
</g>
<!-- Node10 -->
<g id="node10" class="node"><title>Node10</title>
<g id="a_node10"><a xlink:href="randomia_8h.html" target="_top" xlink:title=": ">
<polygon fill="white" stroke="black" points="162.567,-280.5 162.567,-299.5 227.567,-299.5 227.567,-280.5 162.567,-280.5"/>
<text text-anchor="middle" x="195.067" y="-287.5" font-family="Helvetica,sans-Serif" font-size="10.00">randomia.h</text>
</a>
</g>
</g>
<!-- Node1&#45;&gt;Node10 -->
<g id="edge14" class="edge"><title>Node1&#45;&gt;Node10</title>
<path fill="none" stroke="midnightblue" d="M136.957,-383.64C151.946,-359.744 178.364,-317.629 189.678,-299.591"/>
<polygon fill="midnightblue" stroke="midnightblue" points="133.83,-382.037 131.481,-392.368 139.76,-385.757 133.83,-382.037"/>
</g>
<!-- Node3 -->
<g id="node3" class="node"><title>Node3</title>
<g id="a_node3"><a xlink:href="alphabetaia_8h.html" target="_top" xlink:title=": Défini AlphaBetaIA une IA basée sur l&#39;algorithme AlphaBeta ">
<polygon fill="white" stroke="black" points="14.067,-224.5 14.067,-243.5 88.067,-243.5 88.067,-224.5 14.067,-224.5"/>
<text text-anchor="middle" x="51.067" y="-231.5" font-family="Helvetica,sans-Serif" font-size="10.00">alphabetaia.h</text>
</a>
</g>
</g>
<!-- Node2&#45;&gt;Node3 -->
<g id="edge2" class="edge"><title>Node2&#45;&gt;Node3</title>
<path fill="none" stroke="midnightblue" d="M41.2349,-270.396C43.7442,-261.362 46.6403,-250.936 48.6361,-243.751"/>
<polygon fill="midnightblue" stroke="midnightblue" points="37.8481,-269.511 38.5439,-280.083 44.5928,-271.385 37.8481,-269.511"/>
</g>
<!-- Node5 -->
<g id="node5" class="node"><title>Node5</title>
<g id="a_node5"><a xlink:href="memia_8h_source.html" target="_top" xlink:title="memia.h">
<polygon fill="white" stroke="black" points="24.067,-112.5 24.067,-131.5 78.067,-131.5 78.067,-112.5 24.067,-112.5"/>
<text text-anchor="middle" x="51.067" y="-119.5" font-family="Helvetica,sans-Serif" font-size="10.00">memia.h</text>
</a>
</g>
</g>
<!-- Node2&#45;&gt;Node5 -->
<g id="edge7" class="edge"><title>Node2&#45;&gt;Node5</title>
<path fill="none" stroke="midnightblue" d="M21.0917,-272.473C14.8427,-264.479 8.29558,-254.378 5.06699,-244 0.940844,-230.737 -3.99603,-191.694 6.06699,-168 12.632,-152.543 27.2653,-139.577 38.0714,-131.593"/>
<polygon fill="midnightblue" stroke="midnightblue" points="18.4832,-274.81 27.5843,-280.234 23.8521,-270.318 18.4832,-274.81"/>
</g>
<!-- Node4 -->
<g id="node4" class="node"><title>Node4</title>
<g id="a_node4"><a xlink:href="negamaxia_8h_source.html" target="_top" xlink:title="negamaxia.h">
<polygon fill="white" stroke="black" points="15.067,-168.5 15.067,-187.5 87.067,-187.5 87.067,-168.5 15.067,-168.5"/>
<text text-anchor="middle" x="51.067" y="-175.5" font-family="Helvetica,sans-Serif" font-size="10.00">negamaxia.h</text>
</a>
</g>
</g>
<!-- Node3&#45;&gt;Node4 -->
<g id="edge3" class="edge"><title>Node3&#45;&gt;Node4</title>
<path fill="none" stroke="midnightblue" d="M51.067,-213.805C51.067,-204.91 51.067,-194.78 51.067,-187.751"/>
<polygon fill="midnightblue" stroke="midnightblue" points="47.5671,-214.083 51.067,-224.083 54.5671,-214.083 47.5671,-214.083"/>
</g>
<!-- Node4&#45;&gt;Node5 -->
<g id="edge4" class="edge"><title>Node4&#45;&gt;Node5</title>
<path fill="none" stroke="midnightblue" d="M51.067,-157.805C51.067,-148.91 51.067,-138.78 51.067,-131.751"/>
<polygon fill="midnightblue" stroke="midnightblue" points="47.5671,-158.083 51.067,-168.083 54.5671,-158.083 47.5671,-158.083"/>
</g>
<!-- Node6 -->
<g id="node6" class="node"><title>Node6</title>
<g id="a_node6"><a xlink:href="menu_8h_source.html" target="_top" xlink:title="menu.h">
<polygon fill="white" stroke="black" points="58.567,-56.5 58.567,-75.5 107.567,-75.5 107.567,-56.5 58.567,-56.5"/>
<text text-anchor="middle" x="83.067" y="-63.5" font-family="Helvetica,sans-Serif" font-size="10.00">menu.h</text>
</a>
</g>
</g>
<!-- Node5&#45;&gt;Node6 -->
<g id="edge5" class="edge"><title>Node5&#45;&gt;Node6</title>
<path fill="none" stroke="midnightblue" d="M61.5709,-103.275C67.0401,-94.0454 73.4846,-83.1703 77.8812,-75.7511"/>
<polygon fill="midnightblue" stroke="midnightblue" points="58.4382,-101.696 56.3511,-112.083 64.4602,-105.264 58.4382,-101.696"/>
</g>
<!-- Node7 -->
<g id="node7" class="node"><title>Node7</title>
<g id="a_node7"><a xlink:href="main_8cpp.html" target="_top" xlink:title="main.cpp">
<polygon fill="white" stroke="black" points="55.067,-0.5 55.067,-19.5 111.067,-19.5 111.067,-0.5 55.067,-0.5"/>
<text text-anchor="middle" x="83.067" y="-7.5" font-family="Helvetica,sans-Serif" font-size="10.00">main.cpp</text>
</a>
</g>
</g>
<!-- Node6&#45;&gt;Node7 -->
<g id="edge6" class="edge"><title>Node6&#45;&gt;Node7</title>
<path fill="none" stroke="midnightblue" d="M83.067,-45.8045C83.067,-36.9102 83.067,-26.7798 83.067,-19.7511"/>
<polygon fill="midnightblue" stroke="midnightblue" points="79.5671,-46.083 83.067,-56.083 86.5671,-46.083 79.5671,-46.083"/>
</g>
<!-- Node8&#45;&gt;Node2 -->
<g id="edge9" class="edge"><title>Node8&#45;&gt;Node2</title>
<path fill="none" stroke="midnightblue" d="M85.305,-330.101C73.0671,-320.382 57.5083,-308.027 47.1912,-299.834"/>
<polygon fill="midnightblue" stroke="midnightblue" points="83.1339,-332.846 93.1416,-336.324 87.4871,-327.364 83.1339,-332.846"/>
</g>
<!-- Node8&#45;&gt;Node9 -->
<g id="edge10" class="edge"><title>Node8&#45;&gt;Node9</title>
<path fill="none" stroke="midnightblue" d="M108.267,-326.101C110.259,-317.136 112.543,-306.858 114.122,-299.751"/>
<polygon fill="midnightblue" stroke="midnightblue" points="104.801,-325.562 106.049,-336.083 111.635,-327.08 104.801,-325.562"/>
</g>
<!-- Node8&#45;&gt;Node10 -->
<g id="edge12" class="edge"><title>Node8&#45;&gt;Node10</title>
<path fill="none" stroke="midnightblue" d="M127.361,-331.177C144.106,-321.241 166.167,-308.149 180.483,-299.655"/>
<polygon fill="midnightblue" stroke="midnightblue" points="125.501,-328.211 118.688,-336.324 129.074,-334.231 125.501,-328.211"/>
</g>
<!-- Node9&#45;&gt;Node6 -->
<g id="edge11" class="edge"><title>Node9&#45;&gt;Node6</title>
<path fill="none" stroke="midnightblue" d="M113.287,-270.295C106.501,-224.644 89.2885,-108.854 84.3875,-75.8837"/>
<polygon fill="midnightblue" stroke="midnightblue" points="109.841,-270.921 114.773,-280.297 116.765,-269.891 109.841,-270.921"/>
</g>
</g>
</svg>
