<?xml version="1.0" encoding="UTF-8" standalone="no"?>
<!DOCTYPE svg PUBLIC "-//W3C//DTD SVG 1.1//EN"
 "http://www.w3.org/Graphics/SVG/1.1/DTD/svg11.dtd">
<!-- Generated by graphviz version 2.38.0 (20140413.2041)
 -->
<!-- Title: Graphe hiérarchique des classes Pages: 1 -->
<svg width="265pt" height="104pt"
 viewBox="0.00 0.00 265.00 104.00" xmlns="http://www.w3.org/2000/svg" xmlns:xlink="http://www.w3.org/1999/xlink">
<g id="graph0" class="graph" transform="scale(1 1) rotate(0) translate(4 100)">
<title>Graphe hiérarchique des classes</title>
<polygon fill="white" stroke="none" points="-4,4 -4,-100 261,-100 261,4 -4,4"/>
<!-- Node1 -->
<g id="node1" class="node"><title>Node1</title>
<polygon fill="white" stroke="#bfbfbf" points="0,-38.5 0,-57.5 125,-57.5 125,-38.5 0,-38.5"/>
<text text-anchor="middle" x="62.5" y="-45.5" font-family="Helvetica,sans-Serif" font-size="10.00">enable_shared_from_this</text>
</g>
<!-- Node2 -->
<g id="node2" class="node"><title>Node2</title>
<g id="a_node2"><a xlink:href="classMemArbre.html" target="_top" xlink:title="MemArbre">
<polygon fill="white" stroke="black" points="178,-76.5 178,-95.5 240,-95.5 240,-76.5 178,-76.5"/>
<text text-anchor="middle" x="209" y="-83.5" font-family="Helvetica,sans-Serif" font-size="10.00">MemArbre</text>
</a>
</g>
</g>
<!-- Node1&#45;&gt;Node2 -->
<g id="edge1" class="edge"><title>Node1&#45;&gt;Node2</title>
<path fill="none" stroke="midnightblue" d="M109.896,-60.2011C132.173,-66.0593 158.227,-72.9108 177.884,-78.0802"/>
<polygon fill="midnightblue" stroke="midnightblue" points="110.525,-56.7474 99.9635,-57.589 108.744,-63.5173 110.525,-56.7474"/>
</g>
<!-- Node3 -->
<g id="node3" class="node"><title>Node3</title>
<g id="a_node3"><a xlink:href="classMemArbre_1_1Noeud.html" target="_top" xlink:title="MemArbre::Noeud">
<polygon fill="white" stroke="black" points="161,-38.5 161,-57.5 257,-57.5 257,-38.5 161,-38.5"/>
<text text-anchor="middle" x="209" y="-45.5" font-family="Helvetica,sans-Serif" font-size="10.00">MemArbre::Noeud</text>
</a>
</g>
</g>
<!-- Node1&#45;&gt;Node3 -->
<g id="edge2" class="edge"><title>Node1&#45;&gt;Node3</title>
<path fill="none" stroke="midnightblue" d="M135.36,-48C144.044,-48 152.735,-48 160.932,-48"/>
<polygon fill="midnightblue" stroke="midnightblue" points="135.2,-44.5001 125.2,-48 135.2,-51.5001 135.2,-44.5001"/>
</g>
<!-- Node4 -->
<g id="node4" class="node"><title>Node4</title>
<g id="a_node4"><a xlink:href="classNoeud.html" target="_top" xlink:title="Noeud\&lt; T \&gt;">
<polygon fill="white" stroke="black" points="174.5,-0.5 174.5,-19.5 243.5,-19.5 243.5,-0.5 174.5,-0.5"/>
<text text-anchor="middle" x="209" y="-7.5" font-family="Helvetica,sans-Serif" font-size="10.00">Noeud&lt; T &gt;</text>
</a>
</g>
</g>
<!-- Node1&#45;&gt;Node4 -->
<g id="edge3" class="edge"><title>Node1&#45;&gt;Node4</title>
<path fill="none" stroke="midnightblue" d="M109.896,-35.7989C130.746,-30.316 154.904,-23.963 174.03,-18.9333"/>
<polygon fill="midnightblue" stroke="midnightblue" points="108.744,-32.4827 99.9635,-38.411 110.525,-39.2526 108.744,-32.4827"/>
</g>
</g>
</svg>
