<?xml version="1.0" encoding="UTF-8" standalone="no"?>
<!DOCTYPE svg PUBLIC "-//W3C//DTD SVG 1.1//EN"
 "http://www.w3.org/Graphics/SVG/1.1/DTD/svg11.dtd">
<!-- Generated by graphviz version 2.38.0 (20140413.2041)
 -->
<!-- Title: Graphe hiérarchique des classes Pages: 1 -->
<svg width="347pt" height="85pt"
 viewBox="0.00 0.00 347.00 85.00" xmlns="http://www.w3.org/2000/svg" xmlns:xlink="http://www.w3.org/1999/xlink">
<g id="graph0" class="graph" transform="scale(1 1) rotate(0) translate(4 81)">
<title>Graphe hiérarchique des classes</title>
<polygon fill="white" stroke="none" points="-4,4 -4,-81 343,-81 343,4 -4,4"/>
<!-- Node1 -->
<g id="node1" class="node"><title>Node1</title>
<g id="a_node1"><a xlink:href="classIA.html" target="_top" xlink:title="Classe mère de la partie IA. ">
<polygon fill="white" stroke="black" points="0,-19.5 0,-38.5 29,-38.5 29,-19.5 0,-19.5"/>
<text text-anchor="middle" x="14.5" y="-26.5" font-family="Helvetica,sans-Serif" font-size="10.00">IA</text>
</a>
</g>
</g>
<!-- Node2 -->
<g id="node2" class="node"><title>Node2</title>
<g id="a_node2"><a xlink:href="classMinMaxIA.html" target="_top" xlink:title="MinMaxIA">
<polygon fill="white" stroke="black" points="66,-38.5 66,-57.5 127,-57.5 127,-38.5 66,-38.5"/>
<text text-anchor="middle" x="96.5" y="-45.5" font-family="Helvetica,sans-Serif" font-size="10.00">MinMaxIA</text>
</a>
</g>
</g>
<!-- Node1&#45;&gt;Node2 -->
<g id="edge1" class="edge"><title>Node1&#45;&gt;Node2</title>
<path fill="none" stroke="midnightblue" d="M38.9694,-34.574C47.4005,-36.5764 57.0204,-38.8611 65.9045,-40.9711"/>
<polygon fill="midnightblue" stroke="midnightblue" points="39.6091,-31.1286 29.0709,-32.2231 37.9915,-37.9392 39.6091,-31.1286"/>
</g>
<!-- Node6 -->
<g id="node6" class="node"><title>Node6</title>
<g id="a_node6"><a xlink:href="classRandomIA.html" target="_top" xlink:title="RandomIA">
<polygon fill="white" stroke="black" points="65,-0.5 65,-19.5 128,-19.5 128,-0.5 65,-0.5"/>
<text text-anchor="middle" x="96.5" y="-7.5" font-family="Helvetica,sans-Serif" font-size="10.00">RandomIA</text>
</a>
</g>
</g>
<!-- Node1&#45;&gt;Node6 -->
<g id="edge5" class="edge"><title>Node1&#45;&gt;Node6</title>
<path fill="none" stroke="midnightblue" d="M38.9595,-23.4284C47.0746,-21.501 56.2921,-19.3119 64.8951,-17.2687"/>
<polygon fill="midnightblue" stroke="midnightblue" points="37.9915,-20.0608 29.0709,-25.7769 39.6091,-26.8714 37.9915,-20.0608"/>
</g>
<!-- Node3 -->
<g id="node3" class="node"><title>Node3</title>
<g id="a_node3"><a xlink:href="classAlphaBetaIA.html" target="_top" xlink:title="AlphaBetaIA">
<polygon fill="white" stroke="black" points="164,-38.5 164,-57.5 235,-57.5 235,-38.5 164,-38.5"/>
<text text-anchor="middle" x="199.5" y="-45.5" font-family="Helvetica,sans-Serif" font-size="10.00">AlphaBetaIA</text>
</a>
</g>
</g>
<!-- Node2&#45;&gt;Node3 -->
<g id="edge2" class="edge"><title>Node2&#45;&gt;Node3</title>
<path fill="none" stroke="midnightblue" d="M137.324,-48C146.135,-48 155.4,-48 163.98,-48"/>
<polygon fill="midnightblue" stroke="midnightblue" points="137.257,-44.5001 127.257,-48 137.257,-51.5001 137.257,-44.5001"/>
</g>
<!-- Node4 -->
<g id="node4" class="node"><title>Node4</title>
<g id="a_node4"><a xlink:href="classMemIA.html" target="_top" xlink:title="Hérite de la classe AlphaBetaIA. ">
<polygon fill="white" stroke="black" points="281,-57.5 281,-76.5 329,-76.5 329,-57.5 281,-57.5"/>
<text text-anchor="middle" x="305" y="-64.5" font-family="Helvetica,sans-Serif" font-size="10.00">MemIA</text>
</a>
</g>
</g>
<!-- Node3&#45;&gt;Node4 -->
<g id="edge3" class="edge"><title>Node3&#45;&gt;Node4</title>
<path fill="none" stroke="midnightblue" d="M245.365,-56.2361C257.625,-58.4868 270.41,-60.8338 280.901,-62.7597"/>
<polygon fill="midnightblue" stroke="midnightblue" points="245.72,-52.7428 235.252,-54.3796 244.456,-59.6277 245.72,-52.7428"/>
</g>
<!-- Node5 -->
<g id="node5" class="node"><title>Node5</title>
<g id="a_node5"><a xlink:href="classNegaMaxIA.html" target="_top" xlink:title="NegaMaxIA">
<polygon fill="white" stroke="black" points="271,-19.5 271,-38.5 339,-38.5 339,-19.5 271,-19.5"/>
<text text-anchor="middle" x="305" y="-26.5" font-family="Helvetica,sans-Serif" font-size="10.00">NegaMaxIA</text>
</a>
</g>
</g>
<!-- Node3&#45;&gt;Node5 -->
<g id="edge4" class="edge"><title>Node3&#45;&gt;Node5</title>
<path fill="none" stroke="midnightblue" d="M245.204,-39.7934C253.837,-38.2087 262.736,-36.5751 270.916,-35.0734"/>
<polygon fill="midnightblue" stroke="midnightblue" points="244.456,-36.3723 235.252,-41.6204 245.72,-43.2572 244.456,-36.3723"/>
</g>
</g>
</svg>
