<?xml version="1.0" encoding="UTF-8" standalone="no"?>
<!DOCTYPE svg PUBLIC "-//W3C//DTD SVG 1.1//EN"
 "http://www.w3.org/Graphics/SVG/1.1/DTD/svg11.dtd">
<!-- Generated by graphviz version 2.38.0 (20140413.2041)
 -->
<!-- Title: main.cpp Pages: 1 -->
<!--zoomable 532 -->
<svg id="main" version="1.1" xmlns="http://www.w3.org/2000/svg" xmlns:xlink="http://www.w3.org/1999/xlink" xml:space="preserve" onload="init(evt)">
<style type="text/css"><![CDATA[
.edge:hover path { stroke: red; }
.edge:hover polygon { stroke: red; fill: red; }
]]></style>
<script type="text/javascript"><![CDATA[
var edges = document.getElementsByTagName('g');
if (edges && edges.length) {
  for (var i=0;i<edges.length;i++) {
    if (edges[i].id.substr(0,4)=='edge') {
      edges[i].setAttribute('class','edge');
    }
  }
}
]]></script>
        <defs>
                <circle id="rim" cx="0" cy="0" r="7"/>
                <circle id="rim2" cx="0" cy="0" r="3.5"/>
                <g id="zoomPlus">
                        <use xlink:href="#rim" fill="#404040">
                                <set attributeName="fill" to="#808080" begin="zoomplus.mouseover" end="zoomplus.mouseout"/>
                        </use>
                        <path d="M-4,0h8M0,-4v8" fill="none" stroke="white" stroke-width="1.5" pointer-events="none"/>
                </g>
                <g id="zoomMin">
                        <use xlink:href="#rim" fill="#404040">
                                <set attributeName="fill" to="#808080" begin="zoomminus.mouseover" end="zoomminus.mouseout"/>
                        </use>
                        <path d="M-4,0h8" fill="none" stroke="white" stroke-width="1.5" pointer-events="none"/>
                </g>
                <g id="dirArrow">
                        <path fill="none" stroke="white" stroke-width="1.5" d="M0,-3.0v7 M-2.5,-0.5L0,-3.0L2.5,-0.5"/>
                </g>
               <g id="resetDef">
                       <use xlink:href="#rim2" fill="#404040">
                               <set attributeName="fill" to="#808080" begin="reset.mouseover" end="reset.mouseout"/>
                       </use>
               </g>
        </defs>

<script type="text/javascript">
var viewWidth = 1046;
var viewHeight = 532;
var sectionId = 'dynsection-0';
</script>
<script xlink:href="svgpan.js"/>
<svg id="graph" class="graph">
<g id="viewport">
<title>main.cpp</title>
<polygon fill="white" stroke="none" points="-4,4 -4,-528 1041.5,-528 1041.5,4 -4,4"/>
<!-- Node1 -->
<g id="node1" class="node"><title>Node1</title>
<polygon fill="#bfbfbf" stroke="black" points="441,-504.5 441,-523.5 497,-523.5 497,-504.5 441,-504.5"/>
<text text-anchor="middle" x="469" y="-511.5" font-family="Helvetica,sans-Serif" font-size="10.00">main.cpp</text>
</g>
<!-- Node2 -->
<g id="node2" class="node"><title>Node2</title>
<g id="a_node2"><a xlink:href="menu_8h_source.html" target="_top" xlink:title="menu.h">
<polygon fill="white" stroke="black" points="444.5,-448.5 444.5,-467.5 493.5,-467.5 493.5,-448.5 444.5,-448.5"/>
<text text-anchor="middle" x="469" y="-455.5" font-family="Helvetica,sans-Serif" font-size="10.00">menu.h</text>
</a>
</g>
</g>
<!-- Node1&#45;&gt;Node2 -->
<g id="edge1" class="edge"><title>Node1&#45;&gt;Node2</title>
<path fill="none" stroke="midnightblue" d="M469,-504.083C469,-497.006 469,-486.861 469,-477.986"/>
<polygon fill="midnightblue" stroke="midnightblue" points="472.5,-477.751 469,-467.751 465.5,-477.751 472.5,-477.751"/>
</g>
<!-- Node3 -->
<g id="node3" class="node"><title>Node3</title>
<polygon fill="white" stroke="#bfbfbf" points="272,-56.5 272,-75.5 324,-75.5 324,-56.5 272,-56.5"/>
<text text-anchor="middle" x="298" y="-63.5" font-family="Helvetica,sans-Serif" font-size="10.00">memory</text>
</g>
<!-- Node2&#45;&gt;Node3 -->
<g id="edge2" class="edge"><title>Node2&#45;&gt;Node3</title>
<path fill="none" stroke="midnightblue" d="M444.445,-456.56C347.945,-454.18 0,-439.206 0,-347 0,-347 0,-347 0,-177 0,-143.537 10.5062,-131.076 38,-112 73.6684,-87.2522 199.04,-74.4828 261.736,-69.5203"/>
<polygon fill="midnightblue" stroke="midnightblue" points="262.255,-72.9909 271.958,-68.7367 261.72,-66.0114 262.255,-72.9909"/>
</g>
<!-- Node4 -->
<g id="node4" class="node"><title>Node4</title>
<polygon fill="white" stroke="#bfbfbf" points="228.5,-112.5 228.5,-131.5 269.5,-131.5 269.5,-112.5 228.5,-112.5"/>
<text text-anchor="middle" x="249" y="-119.5" font-family="Helvetica,sans-Serif" font-size="10.00">string</text>
</g>
<!-- Node2&#45;&gt;Node4 -->
<g id="edge3" class="edge"><title>Node2&#45;&gt;Node4</title>
<path fill="none" stroke="midnightblue" d="M463.341,-448.408C434.102,-404.018 299.981,-200.399 260.171,-139.96"/>
<polygon fill="midnightblue" stroke="midnightblue" points="263.046,-137.961 254.622,-131.535 257.2,-141.812 263.046,-137.961"/>
</g>
<!-- Node5 -->
<g id="node5" class="node"><title>Node5</title>
<g id="a_node5"><a xlink:href="console_8h_source.html" target="_top" xlink:title="console.h">
<polygon fill="white" stroke="black" points="904.5,-112.5 904.5,-131.5 963.5,-131.5 963.5,-112.5 904.5,-112.5"/>
<text text-anchor="middle" x="934" y="-119.5" font-family="Helvetica,sans-Serif" font-size="10.00">console.h</text>
</a>
</g>
</g>
<!-- Node2&#45;&gt;Node5 -->
<g id="edge4" class="edge"><title>Node2&#45;&gt;Node5</title>
<path fill="none" stroke="midnightblue" d="M493.616,-456.723C592.042,-454.963 952,-442.031 952,-347 952,-347 952,-347 952,-233 952,-200.537 944.27,-163.384 938.942,-141.628"/>
<polygon fill="midnightblue" stroke="midnightblue" points="942.288,-140.587 936.428,-131.76 935.505,-142.315 942.288,-140.587"/>
</g>
<!-- Node7 -->
<g id="node7" class="node"><title>Node7</title>
<g id="a_node7"><a xlink:href="macros_8h_source.html" target="_top" xlink:title="macros.h">
<polygon fill="white" stroke="black" points="980.5,-392.5 980.5,-411.5 1037.5,-411.5 1037.5,-392.5 980.5,-392.5"/>
<text text-anchor="middle" x="1009" y="-399.5" font-family="Helvetica,sans-Serif" font-size="10.00">macros.h</text>
</a>
</g>
</g>
<!-- Node2&#45;&gt;Node7 -->
<g id="edge6" class="edge"><title>Node2&#45;&gt;Node7</title>
<path fill="none" stroke="midnightblue" d="M493.684,-455.781C566.374,-451.974 785.844,-438.917 966,-412 967.462,-411.782 968.948,-411.545 970.448,-411.293"/>
<polygon fill="midnightblue" stroke="midnightblue" points="971.198,-414.714 980.402,-409.468 969.935,-407.829 971.198,-414.714"/>
</g>
<!-- Node8 -->
<g id="node8" class="node"><title>Node8</title>
<g id="a_node8"><a xlink:href="memia_8h_source.html" target="_top" xlink:title="memia.h">
<polygon fill="white" stroke="black" points="178,-392.5 178,-411.5 232,-411.5 232,-392.5 178,-392.5"/>
<text text-anchor="middle" x="205" y="-399.5" font-family="Helvetica,sans-Serif" font-size="10.00">memia.h</text>
</a>
</g>
</g>
<!-- Node2&#45;&gt;Node8 -->
<g id="edge7" class="edge"><title>Node2&#45;&gt;Node8</title>
<path fill="none" stroke="midnightblue" d="M444.164,-451.92C397.617,-442.399 297.033,-421.825 242.305,-410.631"/>
<polygon fill="midnightblue" stroke="midnightblue" points="242.821,-407.164 232.322,-408.589 241.418,-414.022 242.821,-407.164"/>
</g>
<!-- Node25 -->
<g id="node25" class="node"><title>Node25</title>
<g id="a_node25"><a xlink:href="plateau_8h_source.html" target="_top" xlink:title="plateau.h">
<polygon fill="white" stroke="black" points="674,-224.5 674,-243.5 730,-243.5 730,-224.5 674,-224.5"/>
<text text-anchor="middle" x="702" y="-231.5" font-family="Helvetica,sans-Serif" font-size="10.00">plateau.h</text>
</a>
</g>
</g>
<!-- Node2&#45;&gt;Node25 -->
<g id="edge46" class="edge"><title>Node2&#45;&gt;Node25</title>
<path fill="none" stroke="midnightblue" d="M478.134,-448.297C513.296,-414.796 640.203,-293.88 685.66,-250.569"/>
<polygon fill="midnightblue" stroke="midnightblue" points="688.104,-253.075 692.929,-243.643 683.275,-248.007 688.104,-253.075"/>
</g>
<!-- Node6 -->
<g id="node6" class="node"><title>Node6</title>
<polygon fill="white" stroke="#bfbfbf" points="907,-56.5 907,-75.5 961,-75.5 961,-56.5 907,-56.5"/>
<text text-anchor="middle" x="934" y="-63.5" font-family="Helvetica,sans-Serif" font-size="10.00">iostream</text>
</g>
<!-- Node5&#45;&gt;Node6 -->
<g id="edge5" class="edge"><title>Node5&#45;&gt;Node6</title>
<path fill="none" stroke="midnightblue" d="M934,-112.083C934,-105.006 934,-94.8611 934,-85.9865"/>
<polygon fill="midnightblue" stroke="midnightblue" points="937.5,-85.751 934,-75.7511 930.5,-85.7511 937.5,-85.751"/>
</g>
<!-- Node8&#45;&gt;Node3 -->
<g id="edge8" class="edge"><title>Node8&#45;&gt;Node3</title>
<path fill="none" stroke="midnightblue" d="M177.797,-396.071C130.475,-385.755 38,-357.137 38,-291 38,-291 38,-291 38,-177 38,-146.902 34.6827,-132.194 57,-112 86.5496,-85.2612 201.817,-73.5625 261.592,-69.2077"/>
<polygon fill="midnightblue" stroke="midnightblue" points="261.995,-72.6881 271.728,-68.501 261.508,-65.705 261.995,-72.6881"/>
</g>
<!-- Node8&#45;&gt;Node4 -->
<g id="edge9" class="edge"><title>Node8&#45;&gt;Node4</title>
<path fill="none" stroke="midnightblue" d="M200.684,-392.408C191.95,-374.2 173,-330.181 173,-291 173,-291 173,-291 173,-233 173,-193.276 206.964,-157.504 229.482,-138.154"/>
<polygon fill="midnightblue" stroke="midnightblue" points="231.976,-140.634 237.457,-131.567 227.518,-135.236 231.976,-140.634"/>
</g>
<!-- Node9 -->
<g id="node9" class="node"><title>Node9</title>
<g id="a_node9"><a xlink:href="minmaxia_8h_source.html" target="_top" xlink:title="minmaxia.h">
<polygon fill="white" stroke="black" points="386.5,-224.5 386.5,-243.5 453.5,-243.5 453.5,-224.5 386.5,-224.5"/>
<text text-anchor="middle" x="420" y="-231.5" font-family="Helvetica,sans-Serif" font-size="10.00">minmaxia.h</text>
</a>
</g>
</g>
<!-- Node8&#45;&gt;Node9 -->
<g id="edge10" class="edge"><title>Node8&#45;&gt;Node9</title>
<path fill="none" stroke="midnightblue" d="M221.791,-392.391C237.785,-383.916 262.277,-370.211 282,-356 329.15,-322.028 379.161,-275.046 404.025,-250.835"/>
<polygon fill="midnightblue" stroke="midnightblue" points="406.765,-253.051 411.452,-243.549 401.863,-248.053 406.765,-253.051"/>
</g>
<!-- Node20 -->
<g id="node20" class="node"><title>Node20</title>
<g id="a_node20"><a xlink:href="memarbre_8h_source.html" target="_top" xlink:title="memarbre.h">
<polygon fill="white" stroke="black" points="77,-168.5 77,-187.5 145,-187.5 145,-168.5 77,-168.5"/>
<text text-anchor="middle" x="111" y="-175.5" font-family="Helvetica,sans-Serif" font-size="10.00">memarbre.h</text>
</a>
</g>
</g>
<!-- Node8&#45;&gt;Node20 -->
<g id="edge34" class="edge"><title>Node8&#45;&gt;Node20</title>
<path fill="none" stroke="midnightblue" d="M193.058,-392.328C182.584,-384.109 167.707,-370.839 159,-356 128.445,-303.922 116.819,-231.871 112.844,-198.016"/>
<polygon fill="midnightblue" stroke="midnightblue" points="116.288,-197.298 111.739,-187.729 109.328,-198.046 116.288,-197.298"/>
</g>
<!-- Node23 -->
<g id="node23" class="node"><title>Node23</title>
<g id="a_node23"><a xlink:href="negamaxia_8h_source.html" target="_top" xlink:title="negamaxia.h">
<polygon fill="white" stroke="black" points="201,-336.5 201,-355.5 273,-355.5 273,-336.5 201,-336.5"/>
<text text-anchor="middle" x="237" y="-343.5" font-family="Helvetica,sans-Serif" font-size="10.00">negamaxia.h</text>
</a>
</g>
</g>
<!-- Node8&#45;&gt;Node23 -->
<g id="edge41" class="edge"><title>Node8&#45;&gt;Node23</title>
<path fill="none" stroke="midnightblue" d="M210.284,-392.083C214.711,-384.613 221.163,-373.724 226.618,-364.52"/>
<polygon fill="midnightblue" stroke="midnightblue" points="229.727,-366.138 231.814,-355.751 223.705,-362.57 229.727,-366.138"/>
</g>
<!-- Node9&#45;&gt;Node3 -->
<g id="edge11" class="edge"><title>Node9&#45;&gt;Node3</title>
<path fill="none" stroke="midnightblue" d="M409.064,-224.41C389.18,-208.275 346.868,-171.488 322,-132 312.885,-117.527 306.492,-99.0789 302.608,-85.5366"/>
<polygon fill="midnightblue" stroke="midnightblue" points="305.893,-84.269 299.932,-75.5098 299.129,-86.0742 305.893,-84.269"/>
</g>
<!-- Node9&#45;&gt;Node4 -->
<g id="edge12" class="edge"><title>Node9&#45;&gt;Node4</title>
<path fill="none" stroke="midnightblue" d="M406.359,-224.419C392.043,-215.399 368.896,-200.771 349,-188 321.951,-170.638 290.938,-150.433 270.713,-137.216"/>
<polygon fill="midnightblue" stroke="midnightblue" points="272.518,-134.214 262.233,-131.67 268.687,-140.073 272.518,-134.214"/>
</g>
<!-- Node10 -->
<g id="node10" class="node"><title>Node10</title>
<g id="a_node10"><a xlink:href="noeud_8h_source.html" target="_top" xlink:title="noeud.h">
<polygon fill="white" stroke="black" points="450.5,-112.5 450.5,-131.5 501.5,-131.5 501.5,-112.5 450.5,-112.5"/>
<text text-anchor="middle" x="476" y="-119.5" font-family="Helvetica,sans-Serif" font-size="10.00">noeud.h</text>
</a>
</g>
</g>
<!-- Node9&#45;&gt;Node10 -->
<g id="edge13" class="edge"><title>Node9&#45;&gt;Node10</title>
<path fill="none" stroke="midnightblue" d="M424.394,-224.368C433.554,-206.376 454.847,-164.55 467.026,-140.627"/>
<polygon fill="midnightblue" stroke="midnightblue" points="470.208,-142.091 471.626,-131.591 463.97,-138.915 470.208,-142.091"/>
</g>
<!-- Node13 -->
<g id="node13" class="node"><title>Node13</title>
<g id="a_node13"><a xlink:href="etat_8h.html" target="_top" xlink:title="etat.h">
<polygon fill="white" stroke="black" points="730.5,-112.5 730.5,-131.5 771.5,-131.5 771.5,-112.5 730.5,-112.5"/>
<text text-anchor="middle" x="751" y="-119.5" font-family="Helvetica,sans-Serif" font-size="10.00">etat.h</text>
</a>
</g>
</g>
<!-- Node9&#45;&gt;Node13 -->
<g id="edge17" class="edge"><title>Node9&#45;&gt;Node13</title>
<path fill="none" stroke="midnightblue" d="M445.698,-224.46C505.965,-204.431 656.172,-154.514 720.728,-133.06"/>
<polygon fill="midnightblue" stroke="midnightblue" points="721.941,-136.345 730.327,-129.87 719.733,-129.703 721.941,-136.345"/>
</g>
<!-- Node15 -->
<g id="node15" class="node"><title>Node15</title>
<g id="a_node15"><a xlink:href="pion_8h_source.html" target="_top" xlink:title="pion.h">
<polygon fill="white" stroke="black" points="777.5,-56.5 777.5,-75.5 820.5,-75.5 820.5,-56.5 777.5,-56.5"/>
<text text-anchor="middle" x="799" y="-63.5" font-family="Helvetica,sans-Serif" font-size="10.00">pion.h</text>
</a>
</g>
</g>
<!-- Node9&#45;&gt;Node15 -->
<g id="edge33" class="edge"><title>Node9&#45;&gt;Node15</title>
<path fill="none" stroke="midnightblue" d="M453.727,-233.911C524.659,-233.901 690.131,-223.431 780,-132 791.966,-119.826 796.47,-100.554 798.128,-86.1505"/>
<polygon fill="midnightblue" stroke="midnightblue" points="801.641,-86.1149 798.935,-75.8715 794.663,-85.5668 801.641,-86.1149"/>
</g>
<!-- Node17 -->
<g id="node17" class="node"><title>Node17</title>
<g id="a_node17"><a xlink:href="ia_8h_source.html" target="_top" xlink:title="ia.h">
<polygon fill="white" stroke="black" points="514,-168.5 514,-187.5 546,-187.5 546,-168.5 514,-168.5"/>
<text text-anchor="middle" x="530" y="-175.5" font-family="Helvetica,sans-Serif" font-size="10.00">ia.h</text>
</a>
</g>
</g>
<!-- Node9&#45;&gt;Node17 -->
<g id="edge23" class="edge"><title>Node9&#45;&gt;Node17</title>
<path fill="none" stroke="midnightblue" d="M437.673,-224.324C455.814,-215.419 484.211,-201.478 504.724,-191.408"/>
<polygon fill="midnightblue" stroke="midnightblue" points="506.37,-194.499 513.804,-186.951 503.285,-188.216 506.37,-194.499"/>
</g>
<!-- Node10&#45;&gt;Node3 -->
<g id="edge15" class="edge"><title>Node10&#45;&gt;Node3</title>
<path fill="none" stroke="midnightblue" d="M450.497,-113.263C419.874,-103.973 368.325,-88.3345 333.743,-77.8434"/>
<polygon fill="midnightblue" stroke="midnightblue" points="334.62,-74.452 324.035,-74.8981 332.588,-81.1505 334.62,-74.452"/>
</g>
<!-- Node11 -->
<g id="node11" class="node"><title>Node11</title>
<polygon fill="white" stroke="#bfbfbf" points="404.5,-56.5 404.5,-75.5 463.5,-75.5 463.5,-56.5 404.5,-56.5"/>
<text text-anchor="middle" x="434" y="-63.5" font-family="Helvetica,sans-Serif" font-size="10.00">functional</text>
</g>
<!-- Node10&#45;&gt;Node11 -->
<g id="edge14" class="edge"><title>Node10&#45;&gt;Node11</title>
<path fill="none" stroke="midnightblue" d="M469.065,-112.083C463.071,-104.377 454.248,-93.0333 446.952,-83.6531"/>
<polygon fill="midnightblue" stroke="midnightblue" points="449.709,-81.4958 440.806,-75.7511 444.183,-85.7934 449.709,-81.4958"/>
</g>
<!-- Node12 -->
<g id="node12" class="node"><title>Node12</title>
<polygon fill="white" stroke="#bfbfbf" points="719,-0.5 719,-19.5 763,-19.5 763,-0.5 719,-0.5"/>
<text text-anchor="middle" x="741" y="-7.5" font-family="Helvetica,sans-Serif" font-size="10.00">vector</text>
</g>
<!-- Node10&#45;&gt;Node12 -->
<g id="edge16" class="edge"><title>Node10&#45;&gt;Node12</title>
<path fill="none" stroke="midnightblue" d="M478.8,-112.237C483.824,-98.015 495.775,-70.0836 516,-56 546.801,-34.5518 654.167,-20.2971 708.693,-14.2669"/>
<polygon fill="midnightblue" stroke="midnightblue" points="709.288,-17.7231 718.855,-13.1708 708.538,-10.7634 709.288,-17.7231"/>
</g>
<!-- Node13&#45;&gt;Node12 -->
<g id="edge19" class="edge"><title>Node13&#45;&gt;Node12</title>
<path fill="none" stroke="midnightblue" d="M750.215,-112.368C748.602,-94.617 744.879,-53.6664 742.691,-29.5974"/>
<polygon fill="midnightblue" stroke="midnightblue" points="746.172,-29.2334 741.781,-19.5914 739.201,-29.8673 746.172,-29.2334"/>
</g>
<!-- Node14 -->
<g id="node14" class="node"><title>Node14</title>
<polygon fill="white" stroke="#bfbfbf" points="684.5,-56.5 684.5,-75.5 719.5,-75.5 719.5,-56.5 684.5,-56.5"/>
<text text-anchor="middle" x="702" y="-63.5" font-family="Helvetica,sans-Serif" font-size="10.00">map</text>
</g>
<!-- Node13&#45;&gt;Node14 -->
<g id="edge18" class="edge"><title>Node13&#45;&gt;Node14</title>
<path fill="none" stroke="midnightblue" d="M742.909,-112.083C735.845,-104.298 725.412,-92.8015 716.851,-83.3665"/>
<polygon fill="midnightblue" stroke="midnightblue" points="719.253,-80.8047 709.941,-75.7511 714.069,-85.5087 719.253,-80.8047"/>
</g>
<!-- Node13&#45;&gt;Node15 -->
<g id="edge20" class="edge"><title>Node13&#45;&gt;Node15</title>
<path fill="none" stroke="midnightblue" d="M758.926,-112.083C765.846,-104.298 776.065,-92.8015 784.452,-83.3665"/>
<polygon fill="midnightblue" stroke="midnightblue" points="787.194,-85.5505 791.221,-75.7511 781.962,-80.8999 787.194,-85.5505"/>
</g>
<!-- Node15&#45;&gt;Node12 -->
<g id="edge22" class="edge"><title>Node15&#45;&gt;Node12</title>
<path fill="none" stroke="midnightblue" d="M789.681,-56.324C781.107,-48.3414 768.188,-36.3128 757.812,-26.6529"/>
<polygon fill="midnightblue" stroke="midnightblue" points="760.192,-24.0865 750.488,-19.8339 755.422,-29.2098 760.192,-24.0865"/>
</g>
<!-- Node16 -->
<g id="node16" class="node"><title>Node16</title>
<polygon fill="white" stroke="#bfbfbf" points="781.5,-0.5 781.5,-19.5 830.5,-19.5 830.5,-0.5 781.5,-0.5"/>
<text text-anchor="middle" x="806" y="-7.5" font-family="Helvetica,sans-Serif" font-size="10.00">istream</text>
</g>
<!-- Node15&#45;&gt;Node16 -->
<g id="edge21" class="edge"><title>Node15&#45;&gt;Node16</title>
<path fill="none" stroke="midnightblue" d="M800.156,-56.083C801.084,-48.9272 802.418,-38.6353 803.577,-29.6911"/>
<polygon fill="midnightblue" stroke="midnightblue" points="807.051,-30.1181 804.866,-19.7511 800.109,-29.2181 807.051,-30.1181"/>
</g>
<!-- Node17&#45;&gt;Node3 -->
<g id="edge24" class="edge"><title>Node17&#45;&gt;Node3</title>
<path fill="none" stroke="midnightblue" d="M513.882,-168.949C496.022,-160.006 466.389,-145.099 441,-132 424.039,-123.249 420.229,-120.21 403,-112 378.425,-100.289 350.017,-88.1999 328.951,-79.5044"/>
<polygon fill="midnightblue" stroke="midnightblue" points="330.12,-76.2007 319.54,-75.6434 327.463,-82.6769 330.12,-76.2007"/>
</g>
<!-- Node17&#45;&gt;Node4 -->
<g id="edge28" class="edge"><title>Node17&#45;&gt;Node4</title>
<path fill="none" stroke="midnightblue" d="M513.678,-173.863C468.152,-165.115 339.225,-140.339 279.751,-128.91"/>
<polygon fill="midnightblue" stroke="midnightblue" points="280.304,-125.452 269.823,-127.002 278.983,-132.326 280.304,-125.452"/>
</g>
<!-- Node17&#45;&gt;Node5 -->
<g id="edge32" class="edge"><title>Node17&#45;&gt;Node5</title>
<path fill="none" stroke="midnightblue" d="M546.087,-174.85C604.682,-167.018 807.789,-139.87 894.387,-128.295"/>
<polygon fill="midnightblue" stroke="midnightblue" points="894.905,-131.757 904.353,-126.963 893.977,-124.819 894.905,-131.757"/>
</g>
<!-- Node17&#45;&gt;Node10 -->
<g id="edge30" class="edge"><title>Node17&#45;&gt;Node10</title>
<path fill="none" stroke="midnightblue" d="M521.083,-168.083C513.22,-160.22 501.569,-148.569 492.081,-139.081"/>
<polygon fill="midnightblue" stroke="midnightblue" points="494.297,-136.347 484.751,-131.751 489.347,-141.297 494.297,-136.347"/>
</g>
<!-- Node17&#45;&gt;Node12 -->
<g id="edge26" class="edge"><title>Node17&#45;&gt;Node12</title>
<path fill="none" stroke="midnightblue" d="M536.367,-168.339C546.273,-155.215 566.386,-129.923 587,-112 628.546,-75.8777 683.874,-42.6551 715.648,-24.7734"/>
<polygon fill="midnightblue" stroke="midnightblue" points="717.675,-27.6509 724.711,-19.7301 714.271,-21.534 717.675,-27.6509"/>
</g>
<!-- Node17&#45;&gt;Node13 -->
<g id="edge29" class="edge"><title>Node17&#45;&gt;Node13</title>
<path fill="none" stroke="midnightblue" d="M546.251,-173.029C583.026,-164.043 673.112,-142.031 720.587,-130.431"/>
<polygon fill="midnightblue" stroke="midnightblue" points="721.428,-133.829 730.311,-128.055 719.766,-127.029 721.428,-133.829"/>
</g>
<!-- Node17&#45;&gt;Node15 -->
<g id="edge31" class="edge"><title>Node17&#45;&gt;Node15</title>
<path fill="none" stroke="midnightblue" d="M546.052,-170.872C568.329,-162.334 609.847,-146.293 645,-132 688.663,-114.246 738.913,-92.8554 769.814,-79.5893"/>
<polygon fill="midnightblue" stroke="midnightblue" points="771.33,-82.7476 779.135,-75.5826 768.565,-76.3166 771.33,-82.7476"/>
</g>
<!-- Node18 -->
<g id="node18" class="node"><title>Node18</title>
<polygon fill="white" stroke="#bfbfbf" points="364,-112.5 364,-131.5 394,-131.5 394,-112.5 364,-112.5"/>
<text text-anchor="middle" x="379" y="-119.5" font-family="Helvetica,sans-Serif" font-size="10.00">set</text>
</g>
<!-- Node17&#45;&gt;Node18 -->
<g id="edge25" class="edge"><title>Node17&#45;&gt;Node18</title>
<path fill="none" stroke="midnightblue" d="M513.84,-171.221C487.455,-161.785 434.951,-143.009 403.815,-131.874"/>
<polygon fill="midnightblue" stroke="midnightblue" points="404.738,-128.487 394.144,-128.416 402.381,-135.079 404.738,-128.487"/>
</g>
<!-- Node19 -->
<g id="node19" class="node"><title>Node19</title>
<polygon fill="white" stroke="#bfbfbf" points="596,-112.5 596,-131.5 636,-131.5 636,-112.5 596,-112.5"/>
<text text-anchor="middle" x="616" y="-119.5" font-family="Helvetica,sans-Serif" font-size="10.00">utility</text>
</g>
<!-- Node17&#45;&gt;Node19 -->
<g id="edge27" class="edge"><title>Node17&#45;&gt;Node19</title>
<path fill="none" stroke="midnightblue" d="M543.817,-168.324C557.233,-159.9 577.824,-146.971 593.586,-137.074"/>
<polygon fill="midnightblue" stroke="midnightblue" points="595.609,-139.936 602.217,-131.655 591.887,-134.008 595.609,-139.936"/>
</g>
<!-- Node20&#45;&gt;Node3 -->
<g id="edge37" class="edge"><title>Node20&#45;&gt;Node3</title>
<path fill="none" stroke="midnightblue" d="M124.917,-168.478C145.424,-155.954 185.009,-131.906 219,-112 237.273,-101.299 258.089,-89.4555 273.766,-80.6057"/>
<polygon fill="midnightblue" stroke="midnightblue" points="275.799,-83.4774 282.793,-75.5193 272.363,-77.3788 275.799,-83.4774"/>
</g>
<!-- Node20&#45;&gt;Node4 -->
<g id="edge39" class="edge"><title>Node20&#45;&gt;Node4</title>
<path fill="none" stroke="midnightblue" d="M132.867,-168.444C156.049,-159.372 192.829,-144.98 218.776,-134.827"/>
<polygon fill="midnightblue" stroke="midnightblue" points="220.102,-138.066 228.139,-131.163 217.551,-131.548 220.102,-138.066"/>
</g>
<!-- Node20&#45;&gt;Node14 -->
<g id="edge36" class="edge"><title>Node20&#45;&gt;Node14</title>
<path fill="none" stroke="midnightblue" d="M145.033,-175.617C214.434,-172.261 376.983,-161.657 510,-132 570.281,-118.56 638.146,-92.9991 674.867,-78.2527"/>
<polygon fill="midnightblue" stroke="midnightblue" points="676.415,-81.4018 684.365,-74.3993 673.783,-74.9152 676.415,-81.4018"/>
</g>
<!-- Node20&#45;&gt;Node18 -->
<g id="edge38" class="edge"><title>Node20&#45;&gt;Node18</title>
<path fill="none" stroke="midnightblue" d="M145.215,-170.106C199.921,-159.083 305.818,-137.746 354.019,-128.033"/>
<polygon fill="midnightblue" stroke="midnightblue" points="354.807,-131.445 363.918,-126.039 353.424,-124.583 354.807,-131.445"/>
</g>
<!-- Node21 -->
<g id="node21" class="node"><title>Node21</title>
<polygon fill="white" stroke="#bfbfbf" points="122,-112.5 122,-131.5 172,-131.5 172,-112.5 122,-112.5"/>
<text text-anchor="middle" x="147" y="-119.5" font-family="Helvetica,sans-Serif" font-size="10.00">fstream</text>
</g>
<!-- Node20&#45;&gt;Node21 -->
<g id="edge35" class="edge"><title>Node20&#45;&gt;Node21</title>
<path fill="none" stroke="midnightblue" d="M116.945,-168.083C121.977,-160.534 129.337,-149.495 135.513,-140.23"/>
<polygon fill="midnightblue" stroke="midnightblue" points="138.531,-142.013 141.166,-131.751 132.707,-138.13 138.531,-142.013"/>
</g>
<!-- Node22 -->
<g id="node22" class="node"><title>Node22</title>
<polygon fill="white" stroke="#bfbfbf" points="66,-112.5 66,-131.5 104,-131.5 104,-112.5 66,-112.5"/>
<text text-anchor="middle" x="85" y="-119.5" font-family="Helvetica,sans-Serif" font-size="10.00">tuple</text>
</g>
<!-- Node20&#45;&gt;Node22 -->
<g id="edge40" class="edge"><title>Node20&#45;&gt;Node22</title>
<path fill="none" stroke="midnightblue" d="M106.707,-168.083C103.148,-160.691 97.9775,-149.953 93.5757,-140.811"/>
<polygon fill="midnightblue" stroke="midnightblue" points="96.7052,-139.243 89.2135,-131.751 90.3982,-142.279 96.7052,-139.243"/>
</g>
<!-- Node23&#45;&gt;Node4 -->
<g id="edge45" class="edge"><title>Node23&#45;&gt;Node4</title>
<path fill="none" stroke="midnightblue" d="M235.261,-336.419C233.528,-327.399 230.987,-312.77 230,-300 225.525,-242.116 237.848,-173.875 244.726,-141.645"/>
<polygon fill="midnightblue" stroke="midnightblue" points="248.156,-142.343 246.895,-131.823 241.321,-140.833 248.156,-142.343"/>
</g>
<!-- Node24 -->
<g id="node24" class="node"><title>Node24</title>
<g id="a_node24"><a xlink:href="alphabetaia_8h.html" target="_top" xlink:title=": Défini AlphaBetaIA une IA basée sur l&#39;algorithme AlphaBeta ">
<polygon fill="white" stroke="black" points="239,-280.5 239,-299.5 313,-299.5 313,-280.5 239,-280.5"/>
<text text-anchor="middle" x="276" y="-287.5" font-family="Helvetica,sans-Serif" font-size="10.00">alphabetaia.h</text>
</a>
</g>
</g>
<!-- Node23&#45;&gt;Node24 -->
<g id="edge42" class="edge"><title>Node23&#45;&gt;Node24</title>
<path fill="none" stroke="midnightblue" d="M243.44,-336.083C248.949,-328.455 257.031,-317.264 263.765,-307.941"/>
<polygon fill="midnightblue" stroke="midnightblue" points="266.662,-309.907 269.68,-299.751 260.987,-305.809 266.662,-309.907"/>
</g>
<!-- Node24&#45;&gt;Node4 -->
<g id="edge43" class="edge"><title>Node24&#45;&gt;Node4</title>
<path fill="none" stroke="midnightblue" d="M274.548,-280.075C270.298,-253.945 257.817,-177.211 252.022,-141.577"/>
<polygon fill="midnightblue" stroke="midnightblue" points="255.454,-140.876 250.394,-131.568 248.544,-142 255.454,-140.876"/>
</g>
<!-- Node24&#45;&gt;Node9 -->
<g id="edge44" class="edge"><title>Node24&#45;&gt;Node9</title>
<path fill="none" stroke="midnightblue" d="M298.817,-280.444C322.832,-271.438 360.829,-257.189 387.869,-247.049"/>
<polygon fill="midnightblue" stroke="midnightblue" points="389.155,-250.305 397.29,-243.516 386.697,-243.751 389.155,-250.305"/>
</g>
<!-- Node25&#45;&gt;Node3 -->
<g id="edge49" class="edge"><title>Node25&#45;&gt;Node3</title>
<path fill="none" stroke="midnightblue" d="M673.544,-231.836C609.742,-227.841 453.171,-210.162 355,-132 337.47,-118.043 321,-98.2576 310.316,-84.1893"/>
<polygon fill="midnightblue" stroke="midnightblue" points="312.938,-81.8479 304.178,-75.8886 307.31,-86.01 312.938,-81.8479"/>
</g>
<!-- Node25&#45;&gt;Node5 -->
<g id="edge51" class="edge"><title>Node25&#45;&gt;Node5</title>
<path fill="none" stroke="midnightblue" d="M730.042,-232.48C769.175,-230.47 840.876,-221.993 890,-188 906.935,-176.281 919.209,-155.746 926.423,-140.888"/>
<polygon fill="midnightblue" stroke="midnightblue" points="929.654,-142.239 930.605,-131.687 923.281,-139.343 929.654,-142.239"/>
</g>
<!-- Node25&#45;&gt;Node12 -->
<g id="edge47" class="edge"><title>Node25&#45;&gt;Node12</title>
<path fill="none" stroke="midnightblue" d="M730.098,-232.14C760.916,-229.528 809.159,-220.168 833,-188 867.948,-140.845 862.258,-104.362 829,-56 822.012,-45.8391 795.132,-32.9028 772.898,-23.5105"/>
<polygon fill="midnightblue" stroke="midnightblue" points="773.991,-20.1754 763.412,-19.5941 771.32,-26.6456 773.991,-20.1754"/>
</g>
<!-- Node25&#45;&gt;Node13 -->
<g id="edge52" class="edge"><title>Node25&#45;&gt;Node13</title>
<path fill="none" stroke="midnightblue" d="M705.845,-224.368C713.824,-206.456 732.325,-164.923 743.005,-140.948"/>
<polygon fill="midnightblue" stroke="midnightblue" points="746.301,-142.15 747.173,-131.591 739.907,-139.302 746.301,-142.15"/>
</g>
<!-- Node25&#45;&gt;Node14 -->
<g id="edge48" class="edge"><title>Node25&#45;&gt;Node14</title>
<path fill="none" stroke="midnightblue" d="M702,-224.075C702,-197.945 702,-121.211 702,-85.577"/>
<polygon fill="midnightblue" stroke="midnightblue" points="705.5,-85.5681 702,-75.5681 698.5,-85.5681 705.5,-85.5681"/>
</g>
<!-- Node25&#45;&gt;Node15 -->
<g id="edge54" class="edge"><title>Node25&#45;&gt;Node15</title>
<path fill="none" stroke="midnightblue" d="M730.018,-230.404C756.656,-226.278 795.342,-215.605 814,-188 835.253,-156.556 819.378,-109.803 807.957,-84.6098"/>
<polygon fill="midnightblue" stroke="midnightblue" points="811.078,-83.0244 803.598,-75.5207 804.766,-86.051 811.078,-83.0244"/>
</g>
<!-- Node25&#45;&gt;Node17 -->
<g id="edge53" class="edge"><title>Node25&#45;&gt;Node17</title>
<path fill="none" stroke="midnightblue" d="M674.746,-224.444C642.095,-214.193 587.802,-197.147 555.807,-187.102"/>
<polygon fill="midnightblue" stroke="midnightblue" points="556.847,-183.76 546.258,-184.104 554.75,-190.439 556.847,-183.76"/>
</g>
<!-- Node25&#45;&gt;Node18 -->
<g id="edge50" class="edge"><title>Node25&#45;&gt;Node18</title>
<path fill="none" stroke="midnightblue" d="M673.96,-228.879C635.17,-222.668 563.322,-209.317 505,-188 467.076,-174.139 426.017,-151.352 401.413,-136.77"/>
<polygon fill="midnightblue" stroke="midnightblue" points="403.206,-133.764 392.83,-131.619 399.604,-139.766 403.206,-133.764"/>
</g>
</g>
</svg>
        <g id="navigator" transform="translate(0 0)" fill="#404254">
                <rect fill="#f2f5e9" fill-opacity="0.5" stroke="#606060" stroke-width=".5" x="0" y="0" width="60" height="60"/>
                <use id="zoomplus" xlink:href="#zoomPlus" x="17" y="9" onmousedown="handleZoom(evt,'in')"/>
                <use id="zoomminus" xlink:href="#zoomMin" x="42" y="9" onmousedown="handleZoom(evt,'out')"/>
                <use id="reset" xlink:href="#resetDef" x="30" y="36" onmousedown="handleReset()"/>
                <g id="arrowUp" xlink:href="#dirArrow" transform="translate(30 24)" onmousedown="handlePan(0,-1)">
                  <use xlink:href="#rim" fill="#404040">
                        <set attributeName="fill" to="#808080" begin="arrowUp.mouseover" end="arrowUp.mouseout"/>
                  </use>
                  <path fill="none" stroke="white" stroke-width="1.5" d="M0,-3.0v7 M-2.5,-0.5L0,-3.0L2.5,-0.5"/>
                </g>
                <g id="arrowRight" xlink:href="#dirArrow" transform="rotate(90) translate(36 -43)" onmousedown="handlePan(1,0)">
                  <use xlink:href="#rim" fill="#404040">
                        <set attributeName="fill" to="#808080" begin="arrowRight.mouseover" end="arrowRight.mouseout"/>
                  </use>
                  <path fill="none" stroke="white" stroke-width="1.5" d="M0,-3.0v7 M-2.5,-0.5L0,-3.0L2.5,-0.5"/>
                </g>
                <g id="arrowDown" xlink:href="#dirArrow" transform="rotate(180) translate(-30 -48)" onmousedown="handlePan(0,1)">
                  <use xlink:href="#rim" fill="#404040">
                        <set attributeName="fill" to="#808080" begin="arrowDown.mouseover" end="arrowDown.mouseout"/>
                  </use>
                  <path fill="none" stroke="white" stroke-width="1.5" d="M0,-3.0v7 M-2.5,-0.5L0,-3.0L2.5,-0.5"/>
                </g>
                <g id="arrowLeft" xlink:href="#dirArrow" transform="rotate(270) translate(-36 17)" onmousedown="handlePan(-1,0)">
                  <use xlink:href="#rim" fill="#404040">
                        <set attributeName="fill" to="#808080" begin="arrowLeft.mouseover" end="arrowLeft.mouseout"/>
                  </use>
                  <path fill="none" stroke="white" stroke-width="1.5" d="M0,-3.0v7 M-2.5,-0.5L0,-3.0L2.5,-0.5"/>
                </g>
        </g>
        <svg viewBox="0 0 15 15" width="100%" height="30px" preserveAspectRatio="xMaxYMin meet">
         <g id="arrow_out" transform="scale(0.3 0.3)">
          <a xlink:href="main_8cpp__incl_org.svg" target="_base">
           <rect id="button" ry="5" rx="5" y="6" x="6" height="38" width="38"
                fill="#f2f5e9" fill-opacity="0.5" stroke="#606060" stroke-width="1.0"/>
           <path id="arrow"
             d="M 11.500037,31.436501 C 11.940474,20.09759 22.043105,11.32322 32.158766,21.979434 L 37.068811,17.246167 C 37.068811,17.246167 37.088388,32 37.088388,32 L 22.160133,31.978069 C 22.160133,31.978069 26.997745,27.140456 26.997745,27.140456 C 18.528582,18.264221 13.291696,25.230495 11.500037,31.436501 z"
             style="fill:#404040;"/>
          </a>
         </g>
        </svg>
</svg>
