<?xml version="1.0" encoding="UTF-8" standalone="no"?>
<!DOCTYPE svg PUBLIC "-//W3C//DTD SVG 1.1//EN"
 "http://www.w3.org/Graphics/SVG/1.1/DTD/svg11.dtd">
<!-- Generated by graphviz version 2.38.0 (20140413.2041)
 -->
<!-- Title: randomia.h Pages: 1 -->
<svg width="495pt" height="252pt"
 viewBox="0.00 0.00 495.14 252.00" xmlns="http://www.w3.org/2000/svg" xmlns:xlink="http://www.w3.org/1999/xlink">
<g id="graph0" class="graph" transform="scale(1 1) rotate(0) translate(4 248)">
<title>randomia.h</title>
<polygon fill="white" stroke="none" points="-4,4 -4,-248 491.141,-248 491.141,4 -4,4"/>
<!-- Node1 -->
<g id="node1" class="node"><title>Node1</title>
<polygon fill="#bfbfbf" stroke="black" points="40.6413,-224.5 40.6413,-243.5 105.641,-243.5 105.641,-224.5 40.6413,-224.5"/>
<text text-anchor="middle" x="73.1413" y="-231.5" font-family="Helvetica,sans-Serif" font-size="10.00">randomia.h</text>
</g>
<!-- Node2 -->
<g id="node2" class="node"><title>Node2</title>
<polygon fill="white" stroke="#bfbfbf" points="11.6413,-112.5 11.6413,-131.5 52.6413,-131.5 52.6413,-112.5 11.6413,-112.5"/>
<text text-anchor="middle" x="32.1413" y="-119.5" font-family="Helvetica,sans-Serif" font-size="10.00">string</text>
</g>
<!-- Node1&#45;&gt;Node2 -->
<g id="edge1" class="edge"><title>Node1&#45;&gt;Node2</title>
<path fill="none" stroke="midnightblue" d="M69.9241,-224.368C63.2777,-206.537 47.906,-165.295 38.9517,-141.272"/>
<polygon fill="midnightblue" stroke="midnightblue" points="42.1158,-139.739 35.3436,-131.591 35.5566,-142.184 42.1158,-139.739"/>
</g>
<!-- Node3 -->
<g id="node3" class="node"><title>Node3</title>
<g id="a_node3"><a xlink:href="etat_8h.html" target="_top" xlink:title="etat.h">
<polygon fill="white" stroke="black" points="109.641,-112.5 109.641,-131.5 150.641,-131.5 150.641,-112.5 109.641,-112.5"/>
<text text-anchor="middle" x="130.141" y="-119.5" font-family="Helvetica,sans-Serif" font-size="10.00">etat.h</text>
</a>
</g>
</g>
<!-- Node1&#45;&gt;Node3 -->
<g id="edge2" class="edge"><title>Node1&#45;&gt;Node3</title>
<path fill="none" stroke="midnightblue" d="M77.614,-224.368C86.9374,-206.376 108.611,-164.55 121.008,-140.627"/>
<polygon fill="midnightblue" stroke="midnightblue" points="124.196,-142.081 125.689,-131.591 117.981,-138.86 124.196,-142.081"/>
</g>
<!-- Node6 -->
<g id="node6" class="node"><title>Node6</title>
<g id="a_node6"><a xlink:href="pion_8h_source.html" target="_top" xlink:title="pion.h">
<polygon fill="white" stroke="black" points="16.6413,-56.5 16.6413,-75.5 59.6413,-75.5 59.6413,-56.5 16.6413,-56.5"/>
<text text-anchor="middle" x="38.1413" y="-63.5" font-family="Helvetica,sans-Serif" font-size="10.00">pion.h</text>
</a>
</g>
</g>
<!-- Node1&#45;&gt;Node6 -->
<g id="edge22" class="edge"><title>Node1&#45;&gt;Node6</title>
<path fill="none" stroke="midnightblue" d="M64.1219,-224.322C47.9337,-208.043 14.4879,-171.032 2.14134,-132 -0.539448,-123.525 -0.800945,-120.388 2.14134,-112 5.92649,-101.209 13.5079,-91.084 20.7411,-83.1808"/>
<polygon fill="midnightblue" stroke="midnightblue" points="23.4669,-85.4005 27.9792,-75.8145 18.4739,-80.4943 23.4669,-85.4005"/>
</g>
<!-- Node8 -->
<g id="node8" class="node"><title>Node8</title>
<g id="a_node8"><a xlink:href="ia_8h_source.html" target="_top" xlink:title="ia.h">
<polygon fill="white" stroke="black" points="184.141,-168.5 184.141,-187.5 216.141,-187.5 216.141,-168.5 184.141,-168.5"/>
<text text-anchor="middle" x="200.141" y="-175.5" font-family="Helvetica,sans-Serif" font-size="10.00">ia.h</text>
</a>
</g>
</g>
<!-- Node1&#45;&gt;Node8 -->
<g id="edge8" class="edge"><title>Node1&#45;&gt;Node8</title>
<path fill="none" stroke="midnightblue" d="M93.2649,-224.444C115.297,-215.076 150.673,-200.034 174.635,-189.845"/>
<polygon fill="midnightblue" stroke="midnightblue" points="176.3,-192.941 184.133,-185.807 173.561,-186.499 176.3,-192.941"/>
</g>
<!-- Node4 -->
<g id="node4" class="node"><title>Node4</title>
<polygon fill="white" stroke="#bfbfbf" points="77.6413,-56.5 77.6413,-75.5 112.641,-75.5 112.641,-56.5 77.6413,-56.5"/>
<text text-anchor="middle" x="95.1413" y="-63.5" font-family="Helvetica,sans-Serif" font-size="10.00">map</text>
</g>
<!-- Node3&#45;&gt;Node4 -->
<g id="edge3" class="edge"><title>Node3&#45;&gt;Node4</title>
<path fill="none" stroke="midnightblue" d="M124.362,-112.083C119.469,-104.534 112.314,-93.4948 106.309,-84.2298"/>
<polygon fill="midnightblue" stroke="midnightblue" points="109.189,-82.239 100.813,-75.7511 103.315,-86.0463 109.189,-82.239"/>
</g>
<!-- Node5 -->
<g id="node5" class="node"><title>Node5</title>
<polygon fill="white" stroke="#bfbfbf" points="138.141,-0.5 138.141,-19.5 182.141,-19.5 182.141,-0.5 138.141,-0.5"/>
<text text-anchor="middle" x="160.141" y="-7.5" font-family="Helvetica,sans-Serif" font-size="10.00">vector</text>
</g>
<!-- Node3&#45;&gt;Node5 -->
<g id="edge4" class="edge"><title>Node3&#45;&gt;Node5</title>
<path fill="none" stroke="midnightblue" d="M132.495,-112.368C137.359,-94.5366 148.606,-53.2953 155.158,-29.2717"/>
<polygon fill="midnightblue" stroke="midnightblue" points="158.544,-30.16 157.798,-19.5914 151.79,-28.3181 158.544,-30.16"/>
</g>
<!-- Node3&#45;&gt;Node6 -->
<g id="edge5" class="edge"><title>Node3&#45;&gt;Node6</title>
<path fill="none" stroke="midnightblue" d="M115.36,-112.324C100.874,-103.822 78.5683,-90.7288 61.6481,-80.7975"/>
<polygon fill="midnightblue" stroke="midnightblue" points="63.2819,-77.6981 52.886,-75.6545 59.7385,-83.735 63.2819,-77.6981"/>
</g>
<!-- Node6&#45;&gt;Node5 -->
<g id="edge7" class="edge"><title>Node6&#45;&gt;Node5</title>
<path fill="none" stroke="midnightblue" d="M57.4726,-56.4435C77.4613,-47.5961 108.884,-33.6875 131.705,-23.5865"/>
<polygon fill="midnightblue" stroke="midnightblue" points="133.173,-26.7645 140.901,-19.5164 130.34,-20.3635 133.173,-26.7645"/>
</g>
<!-- Node7 -->
<g id="node7" class="node"><title>Node7</title>
<polygon fill="white" stroke="#bfbfbf" points="13.6413,-0.5 13.6413,-19.5 62.6413,-19.5 62.6413,-0.5 13.6413,-0.5"/>
<text text-anchor="middle" x="38.1413" y="-7.5" font-family="Helvetica,sans-Serif" font-size="10.00">istream</text>
</g>
<!-- Node6&#45;&gt;Node7 -->
<g id="edge6" class="edge"><title>Node6&#45;&gt;Node7</title>
<path fill="none" stroke="midnightblue" d="M38.1413,-56.083C38.1413,-49.0059 38.1413,-38.8611 38.1413,-29.9865"/>
<polygon fill="midnightblue" stroke="midnightblue" points="41.6414,-29.751 38.1413,-19.7511 34.6414,-29.7511 41.6414,-29.751"/>
</g>
<!-- Node8&#45;&gt;Node2 -->
<g id="edge13" class="edge"><title>Node8&#45;&gt;Node2</title>
<path fill="none" stroke="midnightblue" d="M184.033,-171.822C156.152,-162.86 98.4649,-144.318 62.7566,-132.841"/>
<polygon fill="midnightblue" stroke="midnightblue" points="63.4657,-129.392 52.8743,-129.664 61.3236,-136.056 63.4657,-129.392"/>
</g>
<!-- Node8&#45;&gt;Node3 -->
<g id="edge14" class="edge"><title>Node8&#45;&gt;Node3</title>
<path fill="none" stroke="midnightblue" d="M188.895,-168.324C178.344,-160.185 162.341,-147.839 149.699,-138.087"/>
<polygon fill="midnightblue" stroke="midnightblue" points="151.648,-135.171 141.593,-131.834 147.373,-140.713 151.648,-135.171"/>
</g>
<!-- Node8&#45;&gt;Node5 -->
<g id="edge11" class="edge"><title>Node8&#45;&gt;Node5</title>
<path fill="none" stroke="midnightblue" d="M197.991,-168.075C191.694,-141.945 173.204,-65.2106 164.618,-29.577"/>
<polygon fill="midnightblue" stroke="midnightblue" points="167.951,-28.4699 162.206,-19.5681 161.146,-30.1098 167.951,-28.4699"/>
</g>
<!-- Node8&#45;&gt;Node6 -->
<g id="edge19" class="edge"><title>Node8&#45;&gt;Node6</title>
<path fill="none" stroke="midnightblue" d="M183.9,-171.877C163.241,-164.889 127.025,-151.028 100.141,-132 80.7452,-118.272 62.4734,-97.8576 50.8592,-83.5805"/>
<polygon fill="midnightblue" stroke="midnightblue" points="53.4899,-81.2648 44.5375,-75.5987 48.0025,-85.6109 53.4899,-81.2648"/>
</g>
<!-- Node9 -->
<g id="node9" class="node"><title>Node9</title>
<polygon fill="white" stroke="#bfbfbf" points="363.141,-56.5 363.141,-75.5 415.141,-75.5 415.141,-56.5 363.141,-56.5"/>
<text text-anchor="middle" x="389.141" y="-63.5" font-family="Helvetica,sans-Serif" font-size="10.00">memory</text>
</g>
<!-- Node8&#45;&gt;Node9 -->
<g id="edge9" class="edge"><title>Node8&#45;&gt;Node9</title>
<path fill="none" stroke="midnightblue" d="M216.369,-177.858C250.496,-178.721 330.086,-175.624 373.141,-132 384.994,-119.991 388.549,-100.696 389.405,-86.2429"/>
<polygon fill="midnightblue" stroke="midnightblue" points="392.911,-85.9919 389.621,-75.921 385.913,-85.8457 392.911,-85.9919"/>
</g>
<!-- Node10 -->
<g id="node10" class="node"><title>Node10</title>
<polygon fill="white" stroke="#bfbfbf" points="207.141,-112.5 207.141,-131.5 237.141,-131.5 237.141,-112.5 207.141,-112.5"/>
<text text-anchor="middle" x="222.141" y="-119.5" font-family="Helvetica,sans-Serif" font-size="10.00">set</text>
</g>
<!-- Node8&#45;&gt;Node10 -->
<g id="edge10" class="edge"><title>Node8&#45;&gt;Node10</title>
<path fill="none" stroke="midnightblue" d="M203.774,-168.083C206.754,-160.77 211.067,-150.181 214.766,-141.103"/>
<polygon fill="midnightblue" stroke="midnightblue" points="218.044,-142.333 218.576,-131.751 211.562,-139.691 218.044,-142.333"/>
</g>
<!-- Node11 -->
<g id="node11" class="node"><title>Node11</title>
<polygon fill="white" stroke="#bfbfbf" points="255.141,-112.5 255.141,-131.5 295.141,-131.5 295.141,-112.5 255.141,-112.5"/>
<text text-anchor="middle" x="275.141" y="-119.5" font-family="Helvetica,sans-Serif" font-size="10.00">utility</text>
</g>
<!-- Node8&#45;&gt;Node11 -->
<g id="edge12" class="edge"><title>Node8&#45;&gt;Node11</title>
<path fill="none" stroke="midnightblue" d="M212.191,-168.324C223.604,-160.107 240.972,-147.602 254.576,-137.807"/>
<polygon fill="midnightblue" stroke="midnightblue" points="256.802,-140.517 262.872,-131.834 252.712,-134.837 256.802,-140.517"/>
</g>
<!-- Node12 -->
<g id="node12" class="node"><title>Node12</title>
<g id="a_node12"><a xlink:href="noeud_8h_source.html" target="_top" xlink:title="noeud.h">
<polygon fill="white" stroke="black" points="313.641,-112.5 313.641,-131.5 364.641,-131.5 364.641,-112.5 313.641,-112.5"/>
<text text-anchor="middle" x="339.141" y="-119.5" font-family="Helvetica,sans-Serif" font-size="10.00">noeud.h</text>
</a>
</g>
</g>
<!-- Node8&#45;&gt;Node12 -->
<g id="edge15" class="edge"><title>Node8&#45;&gt;Node12</title>
<path fill="none" stroke="midnightblue" d="M216.358,-170.7C238.652,-162.039 279.225,-146.277 307.609,-135.25"/>
<polygon fill="midnightblue" stroke="midnightblue" points="309.036,-138.45 317.09,-131.567 306.501,-131.926 309.036,-138.45"/>
</g>
<!-- Node14 -->
<g id="node14" class="node"><title>Node14</title>
<g id="a_node14"><a xlink:href="console_8h_source.html" target="_top" xlink:title="console.h">
<polygon fill="white" stroke="black" points="424.641,-112.5 424.641,-131.5 483.641,-131.5 483.641,-112.5 424.641,-112.5"/>
<text text-anchor="middle" x="454.141" y="-119.5" font-family="Helvetica,sans-Serif" font-size="10.00">console.h</text>
</a>
</g>
</g>
<!-- Node8&#45;&gt;Node14 -->
<g id="edge20" class="edge"><title>Node8&#45;&gt;Node14</title>
<path fill="none" stroke="midnightblue" d="M216.417,-173.54C255.895,-165.147 357.663,-143.511 414.412,-131.446"/>
<polygon fill="midnightblue" stroke="midnightblue" points="415.406,-134.813 424.459,-129.31 413.95,-127.966 415.406,-134.813"/>
</g>
<!-- Node12&#45;&gt;Node5 -->
<g id="edge18" class="edge"><title>Node12&#45;&gt;Node5</title>
<path fill="none" stroke="midnightblue" d="M338.412,-112.498C336.765,-98.6521 331.515,-71.2486 315.141,-56 281.319,-24.5027 226.738,-14.9123 192.187,-12.0748"/>
<polygon fill="midnightblue" stroke="midnightblue" points="192.367,-8.57898 182.153,-11.3942 191.893,-15.5629 192.367,-8.57898"/>
</g>
<!-- Node12&#45;&gt;Node9 -->
<g id="edge17" class="edge"><title>Node12&#45;&gt;Node9</title>
<path fill="none" stroke="midnightblue" d="M347.398,-112.083C354.606,-104.298 365.251,-92.8015 373.987,-83.3665"/>
<polygon fill="midnightblue" stroke="midnightblue" points="376.813,-85.4666 381.038,-75.7511 371.676,-80.7108 376.813,-85.4666"/>
</g>
<!-- Node13 -->
<g id="node13" class="node"><title>Node13</title>
<polygon fill="white" stroke="#bfbfbf" points="247.641,-56.5 247.641,-75.5 306.641,-75.5 306.641,-56.5 247.641,-56.5"/>
<text text-anchor="middle" x="277.141" y="-63.5" font-family="Helvetica,sans-Serif" font-size="10.00">functional</text>
</g>
<!-- Node12&#45;&gt;Node13 -->
<g id="edge16" class="edge"><title>Node12&#45;&gt;Node13</title>
<path fill="none" stroke="midnightblue" d="M329.18,-112.324C320.015,-104.341 306.204,-92.3128 295.113,-82.6529"/>
<polygon fill="midnightblue" stroke="midnightblue" points="297.124,-79.7624 287.284,-75.8339 292.526,-85.041 297.124,-79.7624"/>
</g>
<!-- Node15 -->
<g id="node15" class="node"><title>Node15</title>
<polygon fill="white" stroke="#bfbfbf" points="433.141,-56.5 433.141,-75.5 487.141,-75.5 487.141,-56.5 433.141,-56.5"/>
<text text-anchor="middle" x="460.141" y="-63.5" font-family="Helvetica,sans-Serif" font-size="10.00">iostream</text>
</g>
<!-- Node14&#45;&gt;Node15 -->
<g id="edge21" class="edge"><title>Node14&#45;&gt;Node15</title>
<path fill="none" stroke="midnightblue" d="M455.132,-112.083C455.927,-104.927 457.071,-94.6353 458.065,-85.6911"/>
<polygon fill="midnightblue" stroke="midnightblue" points="461.543,-86.0765 459.169,-75.7511 454.586,-85.3034 461.543,-86.0765"/>
</g>
</g>
</svg>
