<?xml version="1.0" encoding="UTF-8" standalone="no"?>
<!DOCTYPE svg PUBLIC "-//W3C//DTD SVG 1.1//EN"
 "http://www.w3.org/Graphics/SVG/1.1/DTD/svg11.dtd">
<!-- Generated by graphviz version 2.38.0 (20140413.2041)
 -->
<!-- Title: Etat Pages: 1 -->
<svg width="329pt" height="425pt"
 viewBox="0.00 0.00 328.50 425.00" xmlns="http://www.w3.org/2000/svg" xmlns:xlink="http://www.w3.org/1999/xlink">
<g id="graph0" class="graph" transform="scale(1 1) rotate(0) translate(4 421)">
<title>Etat</title>
<polygon fill="white" stroke="none" points="-4,4 -4,-421 324.5,-421 324.5,4 -4,4"/>
<!-- Node1 -->
<g id="node1" class="node"><title>Node1</title>
<polygon fill="#bfbfbf" stroke="black" points="91,-0.5 91,-79.5 188,-79.5 188,-0.5 91,-0.5"/>
<text text-anchor="middle" x="139.5" y="-67.5" font-family="Helvetica,sans-Serif" font-size="10.00">Etat</text>
<polyline fill="none" stroke="black" points="91,-60.5 188,-60.5 "/>
<text text-anchor="start" x="99" y="-48.5" font-family="Helvetica,sans-Serif" font-size="10.00">+ joueur</text>
<polyline fill="none" stroke="black" points="91,-41.5 188,-41.5 "/>
<text text-anchor="start" x="99" y="-29.5" font-family="Helvetica,sans-Serif" font-size="10.00">+ pions()</text>
<text text-anchor="start" x="99" y="-18.5" font-family="Helvetica,sans-Serif" font-size="10.00">+ appliquer_coup()</text>
<text text-anchor="start" x="99" y="-7.5" font-family="Helvetica,sans-Serif" font-size="10.00">+ coups_restant()</text>
</g>
<!-- Node2 -->
<g id="node2" class="node"><title>Node2</title>
<polygon fill="white" stroke="#bfbfbf" points="0,-133 0,-201 119,-201 119,-133 0,-133"/>
<text text-anchor="start" x="8" y="-189" font-family="Helvetica,sans-Serif" font-size="10.00">std::vector&lt; std::vector</text>
<text text-anchor="middle" x="59.5" y="-178" font-family="Helvetica,sans-Serif" font-size="10.00">&lt; COULEUR &gt; &gt;</text>
<polyline fill="none" stroke="#bfbfbf" points="0,-171 119,-171 "/>
<text text-anchor="start" x="8" y="-159" font-family="Helvetica,sans-Serif" font-size="10.00">+ elements</text>
<polyline fill="none" stroke="#bfbfbf" points="0,-152 119,-152 "/>
<text text-anchor="middle" x="59.5" y="-140" font-family="Helvetica,sans-Serif" font-size="10.00"> </text>
</g>
<!-- Node2&#45;&gt;Node1 -->
<g id="edge1" class="edge"><title>Node2&#45;&gt;Node1</title>
<path fill="none" stroke="#404040" d="M80.7285,-132.83C89.1467,-119.677 98.9995,-104.282 108.206,-89.8973"/>
<polygon fill="none" stroke="#404040" points="108.297,-89.7553 108.162,-82.5455 114.765,-79.6481 114.9,-86.8579 108.297,-89.7553"/>
<text text-anchor="middle" x="124" y="-101" font-family="Helvetica,sans-Serif" font-size="10.00"> +othellier</text>
</g>
<!-- Node3 -->
<g id="node3" class="node"><title>Node3</title>
<g id="a_node3"><a xlink:title="STL class. ">
<polygon fill="white" stroke="#bfbfbf" points="6,-254.5 6,-311.5 93,-311.5 93,-254.5 6,-254.5"/>
<text text-anchor="middle" x="49.5" y="-299.5" font-family="Helvetica,sans-Serif" font-size="10.00">std::vector&lt; T &gt;</text>
<polyline fill="none" stroke="#bfbfbf" points="6,-292.5 93,-292.5 "/>
<text text-anchor="middle" x="49.5" y="-280.5" font-family="Helvetica,sans-Serif" font-size="10.00"> </text>
<polyline fill="none" stroke="#bfbfbf" points="6,-273.5 93,-273.5 "/>
<text text-anchor="middle" x="49.5" y="-261.5" font-family="Helvetica,sans-Serif" font-size="10.00"> </text>
</a>
</g>
</g>
<!-- Node3&#45;&gt;Node2 -->
<g id="edge2" class="edge"><title>Node3&#45;&gt;Node2</title>
<path fill="none" stroke="orange" d="M52.8212,-244.139C54.0448,-230.189 55.4202,-214.51 56.6034,-201.021"/>
<polygon fill="orange" stroke="orange" points="49.308,-244.136 51.9207,-254.404 56.2813,-244.748 49.308,-244.136"/>
<text text-anchor="middle" x="122.5" y="-228" font-family="Helvetica,sans-Serif" font-size="10.00"> &lt; std::vector&lt; COULEUR &gt; &gt;</text>
</g>
<!-- Node4 -->
<g id="node4" class="node"><title>Node4</title>
<polygon fill="white" stroke="#bfbfbf" points="73,-359.5 73,-416.5 102,-416.5 102,-359.5 73,-359.5"/>
<text text-anchor="middle" x="87.5" y="-404.5" font-family="Helvetica,sans-Serif" font-size="10.00">T</text>
<polyline fill="none" stroke="#bfbfbf" points="73,-397.5 102,-397.5 "/>
<text text-anchor="middle" x="87.5" y="-385.5" font-family="Helvetica,sans-Serif" font-size="10.00"> </text>
<polyline fill="none" stroke="#bfbfbf" points="73,-378.5 102,-378.5 "/>
<text text-anchor="middle" x="87.5" y="-366.5" font-family="Helvetica,sans-Serif" font-size="10.00"> </text>
</g>
<!-- Node4&#45;&gt;Node3 -->
<g id="edge3" class="edge"><title>Node4&#45;&gt;Node3</title>
<path fill="none" stroke="#404040" d="M72.9423,-366.777C67.9893,-359.039 62.8614,-349.924 59.5,-341 57.4183,-335.473 55.7653,-329.479 54.454,-323.524"/>
<polygon fill="none" stroke="#404040" points="54.4148,-323.314 49.3823,-318.149 52.2141,-311.517 57.2466,-316.682 54.4148,-323.314"/>
<text text-anchor="middle" x="84" y="-333" font-family="Helvetica,sans-Serif" font-size="10.00"> +elements</text>
</g>
<!-- Node6 -->
<g id="node6" class="node"><title>Node6</title>
<g id="a_node6"><a xlink:title="STL class. ">
<polygon fill="white" stroke="#bfbfbf" points="160.5,-254.5 160.5,-311.5 252.5,-311.5 252.5,-254.5 160.5,-254.5"/>
<text text-anchor="middle" x="206.5" y="-299.5" font-family="Helvetica,sans-Serif" font-size="10.00">std::map&lt; K, T &gt;</text>
<polyline fill="none" stroke="#bfbfbf" points="160.5,-292.5 252.5,-292.5 "/>
<text text-anchor="middle" x="206.5" y="-280.5" font-family="Helvetica,sans-Serif" font-size="10.00"> </text>
<polyline fill="none" stroke="#bfbfbf" points="160.5,-273.5 252.5,-273.5 "/>
<text text-anchor="middle" x="206.5" y="-261.5" font-family="Helvetica,sans-Serif" font-size="10.00"> </text>
</a>
</g>
</g>
<!-- Node4&#45;&gt;Node6 -->
<g id="edge7" class="edge"><title>Node4&#45;&gt;Node6</title>
<path fill="none" stroke="#404040" d="M102.092,-374.37C117.732,-360.833 143.269,-338.73 165.172,-319.771"/>
<polygon fill="none" stroke="#404040" points="165.224,-319.727 167.142,-312.776 174.297,-311.873 172.378,-318.824 165.224,-319.727"/>
<text text-anchor="middle" x="176" y="-333" font-family="Helvetica,sans-Serif" font-size="10.00"> +elements</text>
</g>
<!-- Node5 -->
<g id="node5" class="node"><title>Node5</title>
<polygon fill="white" stroke="#bfbfbf" points="143.5,-127.5 143.5,-206.5 259.5,-206.5 259.5,-127.5 143.5,-127.5"/>
<text text-anchor="start" x="151.5" y="-194.5" font-family="Helvetica,sans-Serif" font-size="10.00">std::map&lt; COULEUR,</text>
<text text-anchor="middle" x="201.5" y="-183.5" font-family="Helvetica,sans-Serif" font-size="10.00"> unsigned &gt;</text>
<polyline fill="none" stroke="#bfbfbf" points="143.5,-176.5 259.5,-176.5 "/>
<text text-anchor="start" x="151.5" y="-164.5" font-family="Helvetica,sans-Serif" font-size="10.00">+ keys</text>
<text text-anchor="start" x="151.5" y="-153.5" font-family="Helvetica,sans-Serif" font-size="10.00">+ elements</text>
<polyline fill="none" stroke="#bfbfbf" points="143.5,-146.5 259.5,-146.5 "/>
<text text-anchor="middle" x="201.5" y="-134.5" font-family="Helvetica,sans-Serif" font-size="10.00"> </text>
</g>
<!-- Node5&#45;&gt;Node1 -->
<g id="edge4" class="edge"><title>Node5&#45;&gt;Node1</title>
<path fill="none" stroke="#404040" d="M182.392,-127.476C176.617,-115.833 170.193,-102.881 164.112,-90.6201"/>
<polygon fill="none" stroke="#404040" points="163.984,-90.3623 157.734,-86.7646 158.652,-79.6121 164.901,-83.2098 163.984,-90.3623"/>
<text text-anchor="middle" x="192" y="-101" font-family="Helvetica,sans-Serif" font-size="10.00"> +scores</text>
</g>
<!-- Node6&#45;&gt;Node5 -->
<g id="edge5" class="edge"><title>Node6&#45;&gt;Node5</title>
<path fill="none" stroke="orange" d="M204.841,-244.176C204.311,-232.082 203.723,-218.685 203.19,-206.541"/>
<polygon fill="orange" stroke="orange" points="201.355,-244.567 205.29,-254.404 208.348,-244.26 201.355,-244.567"/>
<text text-anchor="middle" x="262.5" y="-228" font-family="Helvetica,sans-Serif" font-size="10.00"> &lt; COULEUR, unsigned &gt;</text>
</g>
<!-- Node7 -->
<g id="node7" class="node"><title>Node7</title>
<polygon fill="white" stroke="#bfbfbf" points="192,-359.5 192,-416.5 221,-416.5 221,-359.5 192,-359.5"/>
<text text-anchor="middle" x="206.5" y="-404.5" font-family="Helvetica,sans-Serif" font-size="10.00">K</text>
<polyline fill="none" stroke="#bfbfbf" points="192,-397.5 221,-397.5 "/>
<text text-anchor="middle" x="206.5" y="-385.5" font-family="Helvetica,sans-Serif" font-size="10.00"> </text>
<polyline fill="none" stroke="#bfbfbf" points="192,-378.5 221,-378.5 "/>
<text text-anchor="middle" x="206.5" y="-366.5" font-family="Helvetica,sans-Serif" font-size="10.00"> </text>
</g>
<!-- Node7&#45;&gt;Node6 -->
<g id="edge6" class="edge"><title>Node7&#45;&gt;Node6</title>
<path fill="none" stroke="#404040" d="M206.5,-359.398C206.5,-348.545 206.5,-335.873 206.5,-324.049"/>
<polygon fill="none" stroke="#404040" points="206.5,-323.678 202.5,-317.678 206.5,-311.678 210.5,-317.678 206.5,-323.678"/>
<text text-anchor="middle" x="222" y="-333" font-family="Helvetica,sans-Serif" font-size="10.00"> +keys</text>
</g>
</g>
</svg>
