<?xml version="1.0" encoding="UTF-8" standalone="no"?>
<!DOCTYPE svg PUBLIC "-//W3C//DTD SVG 1.1//EN"
 "http://www.w3.org/Graphics/SVG/1.1/DTD/svg11.dtd">
<!-- Generated by graphviz version 2.38.0 (20140413.2041)
 -->
<!-- Title: IA::PV Pages: 1 -->
<svg width="65pt" height="193pt"
 viewBox="0.00 0.00 65.00 193.00" xmlns="http://www.w3.org/2000/svg" xmlns:xlink="http://www.w3.org/1999/xlink">
<g id="graph0" class="graph" transform="scale(1 1) rotate(0) translate(4 189)">
<title>IA::PV</title>
<polygon fill="white" stroke="none" points="-4,4 -4,-189 61,-189 61,4 -4,4"/>
<!-- Node1 -->
<g id="node1" class="node"><title>Node1</title>
<polygon fill="#bfbfbf" stroke="black" points="5.5,-0.5 5.5,-57.5 51.5,-57.5 51.5,-0.5 5.5,-0.5"/>
<text text-anchor="middle" x="28.5" y="-45.5" font-family="Helvetica,sans-Serif" font-size="10.00">IA::PV</text>
<polyline fill="none" stroke="black" points="5.5,-38.5 51.5,-38.5 "/>
<text text-anchor="start" x="13.5" y="-26.5" font-family="Helvetica,sans-Serif" font-size="10.00">+ val</text>
<polyline fill="none" stroke="black" points="5.5,-19.5 51.5,-19.5 "/>
<text text-anchor="middle" x="28.5" y="-7.5" font-family="Helvetica,sans-Serif" font-size="10.00"> </text>
</g>
<!-- Node2 -->
<g id="node2" class="node"><title>Node2</title>
<g id="a_node2"><a xlink:href="structPion.html" target="_top" xlink:title="{Pion\n|+ x\l+ y\l+ couleur\l|}">
<polygon fill="white" stroke="black" points="0,-105.5 0,-184.5 57,-184.5 57,-105.5 0,-105.5"/>
<text text-anchor="middle" x="28.5" y="-172.5" font-family="Helvetica,sans-Serif" font-size="10.00">Pion</text>
<polyline fill="none" stroke="black" points="0,-165.5 57,-165.5 "/>
<text text-anchor="start" x="8" y="-153.5" font-family="Helvetica,sans-Serif" font-size="10.00">+ x</text>
<text text-anchor="start" x="8" y="-142.5" font-family="Helvetica,sans-Serif" font-size="10.00">+ y</text>
<text text-anchor="start" x="8" y="-131.5" font-family="Helvetica,sans-Serif" font-size="10.00">+ couleur</text>
<polyline fill="none" stroke="black" points="0,-124.5 57,-124.5 "/>
<text text-anchor="middle" x="28.5" y="-112.5" font-family="Helvetica,sans-Serif" font-size="10.00"> </text>
</a>
</g>
</g>
<!-- Node2&#45;&gt;Node1 -->
<g id="edge1" class="edge"><title>Node2&#45;&gt;Node1</title>
<path fill="none" stroke="#404040" d="M28.5,-105.405C28.5,-93.9252 28.5,-81.3299 28.5,-69.7765"/>
<polygon fill="none" stroke="#404040" points="28.5001,-69.7509 24.5,-63.7509 28.5,-57.7509 32.5,-63.7508 28.5001,-69.7509"/>
<text text-anchor="middle" x="42.5" y="-79" font-family="Helvetica,sans-Serif" font-size="10.00"> +pion</text>
</g>
</g>
</svg>
